<svg viewBox="0 0 330 200" xmlns="http://www.w3.org/2000/svg"><g><g><g><g><g><line x1="50" y1="177" x2="45" y2="177" style="visibility: inherit;" fill="rgb(0, 0, 0)" stroke="rgb(204, 204, 204)" stroke-width="1px"></line><line x1="50" y1="154.875" x2="45" y2="154.875" style="visibility: inherit;" fill="rgb(0, 0, 0)" stroke="rgb(204, 204, 204)" stroke-width="1px"></line><line x1="50" y1="132.75" x2="45" y2="132.75" style="visibility: inherit;" fill="rgb(0, 0, 0)" stroke="rgb(204, 204, 204)" stroke-width="1px"></line><line x1="50" y1="110.625" x2="45" y2="110.625" style="visibility: inherit;" fill="rgb(0, 0, 0)" stroke="rgb(204, 204, 204)" stroke-width="1px"></line><line x1="50" y1="88.5" x2="45" y2="88.5" style="visibility: inherit;" fill="rgb(0, 0, 0)" stroke="rgb(204, 204, 204)" stroke-width="1px"></line><line x1="50" y1="66.375" x2="45" y2="66.375" style="visibility: inherit;" fill="rgb(0, 0, 0)" stroke="rgb(204, 204, 204)" stroke-width="1px"></line><line x1="50" y1="44.25000000000002" x2="45" y2="44.25000000000002" style="visibility: inherit;" fill="rgb(0, 0, 0)" stroke="rgb(204, 204, 204)" stroke-width="1px"></line><line x1="50" y1="22.125" x2="45" y2="22.125" style="visibility: inherit;" fill="rgb(0, 0, 0)" stroke="rgb(204, 204, 204)" stroke-width="1px"></line><line x1="50" y1="0" x2="45" y2="0" style="visibility: inherit;" fill="rgb(0, 0, 0)" stroke="rgb(204, 204, 204)" stroke-width="1px"></line></g><g transform="translate(40, 0)"><text x="0" y="177" dx="0em" dy="0.3em" style="text-anchor: end; visibility: hidden; font-family: Roboto, sans-serif; font-size: 12px; font-weight: 200;" fill="rgb(33, 33, 33)" stroke="none" stroke-width="1px">0.05</text><text x="0" y="154.875" dx="0em" dy="0.3em" style="text-anchor: end; visibility: inherit; font-family: Roboto, sans-serif; font-size: 12px; font-weight: 200;" fill="rgb(33, 33, 33)" stroke="none" stroke-width="1px">0.1</text><text x="0" y="132.75" dx="0em" dy="0.3em" style="text-anchor: end; visibility: hidden; font-family: Roboto, sans-serif; font-size: 12px; font-weight: 200;" fill="rgb(33, 33, 33)" stroke="none" stroke-width="1px">0.15</text><text x="0" y="110.625" dx="0em" dy="0.3em" style="text-anchor: end; visibility: inherit; font-family: Roboto, sans-serif; font-size: 12px; font-weight: 200;" fill="rgb(33, 33, 33)" stroke="none" stroke-width="1px">0.2</text><text x="0" y="88.5" dx="0em" dy="0.3em" style="text-anchor: end; visibility: hidden; font-family: Roboto, sans-serif; font-size: 12px; font-weight: 200;" fill="rgb(33, 33, 33)" stroke="none" stroke-width="1px">0.25</text><text x="0" y="66.375" dx="0em" dy="0.3em" style="text-anchor: end; visibility: inherit; font-family: Roboto, sans-serif; font-size: 12px; font-weight: 200;" fill="rgb(33, 33, 33)" stroke="none" stroke-width="1px">0.3</text><text x="0" y="44.25000000000002" dx="0em" dy="0.3em" style="text-anchor: end; visibility: hidden; font-family: Roboto, sans-serif; font-size: 12px; font-weight: 200;" fill="rgb(33, 33, 33)" stroke="none" stroke-width="1px">0.35</text><text x="0" y="22.125" dx="0em" dy="0.3em" style="text-anchor: end; visibility: inherit; font-family: Roboto, sans-serif; font-size: 12px; font-weight: 200;" fill="rgb(33, 33, 33)" stroke="none" stroke-width="1px">0.4</text><text x="0" y="0" dx="0em" dy="0.3em" style="text-anchor: end; visibility: hidden; font-family: Roboto, sans-serif; font-size: 12px; font-weight: 200;" fill="rgb(33, 33, 33)" stroke="none" stroke-width="1px">0.45</text></g><line x1="50" y1="0" x2="50" y2="177" fill="rgb(0, 0, 0)" stroke="rgb(204, 204, 204)" stroke-width="1px"></line></g></g><g transform="translate(50, 0)" clip-path="url(#clip_0)"><clipPath id="clip_0"><rect width="280" height="176"></rect></clipPath><g><g><g><line x1="0" y1="0" x2="0" y2="177" fill="rgb(0, 0, 0)" stroke="rgb(66, 66, 66)" stroke-width="1px" opacity="0.25"></line><line x1="28" y1="0" x2="28" y2="177" fill="rgb(0, 0, 0)" stroke="rgb(66, 66, 66)" stroke-width="1px" opacity="0.25"></line><line x1="56" y1="0" x2="56" y2="177" fill="rgb(0, 0, 0)" stroke="rgb(66, 66, 66)" stroke-width="1px" opacity="0.25"></line><line x1="84" y1="0" x2="84" y2="177" fill="rgb(0, 0, 0)" stroke="rgb(66, 66, 66)" stroke-width="1px" opacity="0.25"></line><line x1="112" y1="0" x2="112" y2="177" fill="rgb(0, 0, 0)" stroke="rgb(66, 66, 66)" stroke-width="1px" opacity="0.25"></line><line x1="140" y1="0" x2="140" y2="177" fill="rgb(0, 0, 0)" stroke="rgb(66, 66, 66)" stroke-width="1px" opacity="0.25"></line><line x1="168" y1="0" x2="168" y2="177" fill="rgb(0, 0, 0)" stroke="rgb(66, 66, 66)" stroke-width="1px" opacity="0.25"></line><line x1="196" y1="0" x2="196" y2="177" fill="rgb(0, 0, 0)" stroke="rgb(66, 66, 66)" stroke-width="1px" opacity="0.25"></line><line x1="224" y1="0" x2="224" y2="177" fill="rgb(0, 0, 0)" stroke="rgb(66, 66, 66)" stroke-width="1px" opacity="0.25"></line><line x1="252" y1="0" x2="252" y2="177" fill="rgb(0, 0, 0)" stroke="rgb(66, 66, 66)" stroke-width="1px" opacity="0.25"></line><line x1="280" y1="0" x2="280" y2="177" fill="rgb(0, 0, 0)" stroke="rgb(66, 66, 66)" stroke-width="1px" opacity="0.25"></line></g><g><line x1="0" y1="177" x2="280" y2="177" fill="rgb(0, 0, 0)" stroke="rgb(66, 66, 66)" stroke-width="1px" opacity="0.25"></line><line x1="0" y1="154.875" x2="280" y2="154.875" fill="rgb(0, 0, 0)" stroke="rgb(66, 66, 66)" stroke-width="1px" opacity="0.25"></line><line x1="0" y1="132.75" x2="280" y2="132.75" fill="rgb(0, 0, 0)" stroke="rgb(66, 66, 66)" stroke-width="1px" opacity="0.25"></line><line x1="0" y1="110.625" x2="280" y2="110.625" fill="rgb(0, 0, 0)" stroke="rgb(66, 66, 66)" stroke-width="1px" opacity="0.25"></line><line x1="0" y1="88.5" x2="280" y2="88.5" fill="rgb(0, 0, 0)" stroke="rgb(66, 66, 66)" stroke-width="1px" opacity="0.25"></line><line x1="0" y1="66.375" x2="280" y2="66.375" fill="rgb(0, 0, 0)" stroke="rgb(66, 66, 66)" stroke-width="1px" opacity="0.25"></line><line x1="0" y1="44.25000000000002" x2="280" y2="44.25000000000002" fill="rgb(0, 0, 0)" stroke="rgb(66, 66, 66)" stroke-width="1px" opacity="0.25"></line><line x1="0" y1="22.125" x2="280" y2="22.125" fill="rgb(0, 0, 0)" stroke="rgb(66, 66, 66)" stroke-width="1px" opacity="0.25"></line><line x1="0" y1="0" x2="280" y2="0" fill="rgb(0, 0, 0)" stroke="rgb(66, 66, 66)" stroke-width="1px" opacity="0.25"></line></g></g></g><g><g><line x1="0" y1="199.125" x2="280" y2="199.125" fill="rgb(0, 0, 0)" stroke="rgb(153, 153, 153)" stroke-width="1.5px"></line></g></g><g><g><line x1="28" y1="0" x2="28" y2="177" fill="rgb(0, 0, 0)" stroke="rgb(153, 153, 153)" stroke-width="1.5px"></line></g></g><g><g><g><g><g><path stroke="rgb(255, 112, 67)" stroke-width="2px" d="M31.36,-21.125381873436645L31.92,10.818037131800404L32.480000000000004,34.671990829544306L33.04,45.233919150979446L33.6,4.696848441935823L34.16,-0.7434179198685638L35.28,-11.069839386169068L35.84,9.354281995158692L36.4,30.22590600275215L36.96,-3.452778327087458L37.52,25.46344303372538L38.080000000000005,11.558422215281023L38.64,29.693313631198997L39.2,58.10121621784812L39.76,61.513081367814436L40.32,14.15517261540767L40.879999999999995,58.07560619876297L41.44,60.849785652140554L42,19.148738707731066L42.56,22.105018223495346L43.12,48.36282090427722L43.68,51.080761749127554L44.24,65.448301117126L44.800000000000004,51.58874817859821L45.36,66.7754303512014L45.92,85.23999701677756L46.480000000000004,93.47575069562912L47.040000000000006,89.16850195928627L47.6,82.30887757977139L48.16,63.75068704468974L48.72,45.6546782726627L49.279999999999994,63.12479246125121L49.839999999999996,75.82877737471232L50.4,90.32943722987174L50.96,55.86397185088014L51.519999999999996,51.72006409144446L52.08,42.567598280370376L52.64,64.28916764309896L53.2,36.41660869574099L53.76,57.950890225712925L54.32,68.3353999870632L54.88,83.63718366748527L55.440000000000005,72.16990354723262L56,69.31633122005587L56.56,101.1891889199858L57.12,87.60247290282528L57.68,102.833657393764L58.239999999999995,60.144411158481574L58.8,92.63880014237158L59.36,89.36086603293579L59.92,104.26301860684217L60.48,81.93719111605735L61.04,33.57046018078244L61.6,28.43806656619482L62.160000000000004,26.725164213303152L62.72,71.2282904377724L63.28,61.70706610626843L63.84,42.47808626143248L64.4,58.78350967078278L64.96000000000001,85.22594759111928L65.52000000000001,97.61382501271564L66.08,92.2224456962776L66.64,76.33570979814716L67.2,73.68905052412147L67.75999999999999,95.8822739205873L68.32,106.44799390328622L68.88,46.70685591037691L69.44,52.51752704820405L70,54.1981140937887L70.56,79.20130213001268L71.12,72.52272694646655L71.68,56.69899790489277L72.24000000000001,63.47379134895566L72.8,75.29312621535159L73.36,103.12695287901937L73.92,77.50564654015768L74.48,111.09745662416977L75.04,112.7048705518601L75.60000000000001,112.60245583357559L76.16000000000001,105.12088631631224L76.72,94.63420691514786L77.28,108.48653284564479L77.84,120.80608753475465L78.4,131.691044767874L78.96,123.96968694935889L79.52,95.33297134286552L80.08,100.66050611046784L80.64,93.56298530762096L81.19999999999999,88.06508787670552L81.75999999999999,87.71473772644292L82.32,53.01908478927191L82.88,93.74979679162252L83.44,94.79486604556408L84,83.69289940014463L84.56,90.04618978151667L85.12,64.75468835025421L85.67999999999999,84.16938279443615L86.24,88.8525236152031L86.8,87.49554499402154L87.36,93.74462400921887L87.92,78.09282338052216L88.48,79.58320989864602L89.04,43.20757382307964L89.60000000000001,57.135468108621346L90.16,81.43816485891766L90.72,84.19654982620494L91.28,100.09019134243738L91.84,123.15091249674805L92.4,140.43939814764408L92.96000000000001,144.82590585826725L93.52000000000001,148.370262116962L94.08000000000001,113.85630483673414L94.64,101.40782764104844L95.2,105.22045495836637L95.76,107.55461233394566L96.32,123.92861733011738L96.88,113.06747985286911L97.44,139.19240757169368L98,124.81361376251007L98.55999999999999,108.79018644097582L99.11999999999999,128.50730287941178L99.67999999999999,91.62871534771851L100.24,123.05045914886671L100.8,137.20606719695496L101.36,146.28358015711885L101.92,146.94569905576574L102.48,150.64018595354239L103.03999999999999,125.2054850586443L103.6,113.44500361252956L104.16,133.20094583105524L104.72,123.8731275598495L105.28,122.94002640249063L105.84,137.62381223292192L106.4,156.1218413387301L106.96000000000001,153.74637692866102L107.52,120.09805624900683L108.08,131.36354995053068L108.64,134.17139736581478L109.2,121.32640434365648L109.76,96.72122709191548L110.32000000000001,123.61489628992501L110.88000000000001,129.187882880819L111.44000000000001,101.61619858768711L112,122.575747286243L112.56,115.31830792424844L113.12,90.40694420813183L113.68,116.31970624940789L114.24,134.80863843004224L114.8,134.81239605033588L115.36,106.27571983387585L115.91999999999999,109.25468180924962L116.47999999999999,131.75095985591597L117.03999999999999,146.46452573990933L117.6,127.31147722635335L118.16,142.06241538514894L118.72,109.07697236174465L119.28,120.5977792271025L119.84,113.07384517061993L120.39999999999999,125.75289799432923L120.96,122.01730987525562L121.52,141.32120559422125L122.08,120.78219529275864L122.64,126.34337388148768L123.2,101.7117903928212L123.76,109.66017007531237L124.32000000000001,98.63177146733709L124.88,66.0430781854445L125.44,107.63387771476832L126,114.99681667107062L126.56,106.28565776120254L127.12,124.44101733279605L127.68,69.3643077690147L128.24,115.21792608149305L128.8,114.41901972381746L129.36,96.94121914797113L129.92000000000002,123.44956156875541L130.48000000000002,110.18179485956341L131.04000000000002,95.12521105265326L131.6,84.52687183770958L132.16,115.99610808493748L132.72,120.02781980932981L133.28,117.55609396219988L133.84,120.57304642868483L134.4,100.2410688476112L134.96,123.2011339590756L135.51999999999998,125.77903666650104L136.07999999999998,142.81428291681317L136.64,131.52723375429457L137.2,134.04005499166098L137.76,97.79050565053134L138.32,101.86693480783168L138.88,131.73074433683433L139.44,135.31338503050256L140,125.80127039007812L140.56,117.30592352123539L141.12,93.15022439343618L141.68,126.3152012241357L142.24,91.09637677147825L142.8,99.7032919286182L143.36,129.89062375402392L143.92000000000002,133.8923926536795L144.48000000000002,123.18820595947244L145.04,139.93553516541326L145.6,135.12566264733317L146.16,138.62733706989673L146.72,134.06235771869888L147.28,151.40402176749868L147.84,151.858418019248L148.4,150.0952391008335L148.96,140.68343651770343L149.52,139.45554296063654L150.08,157.01354480616612L150.64000000000001,157.498644081249L151.20000000000002,129.1609433755244L151.76000000000002,138.9710538455823L152.32000000000002,137.58964507394904L152.88000000000002,124.45620350607561L153.44,143.02060379277663L154,144.7650268759787L154.56,129.65107639053224L155.12,103.4569527710602L155.68,105.77683334977183L156.24,53.734097060148436L156.8,80.79683695231945L157.36,109.45831222382229L157.92,98.78653983501816L158.48,117.9418901084556L159.04,117.41143127552829L159.6,124.73889943523503L160.16,103.0897441837984L160.72,113.25478549205052L161.28,137.17808782325858L161.83999999999997,136.05584416250392L162.39999999999998,128.94122943258287L162.95999999999998,148.36863714591266L163.51999999999998,145.20800956866503L164.07999999999998,121.58033083546974L164.64,135.06612953346263L165.2,147.4358682307678L165.76,119.86558928329212L166.32,96.92020731114427L166.88,100.96571460928367L167.44,66.6909690175405L168,97.9602859615654L168.56,94.70367795821254L169.12,88.70889643190038L169.68,111.06520326946816L170.24,124.68377517023467L170.79999999999998,120.26332579766981L171.35999999999999,96.07891202995343L171.92,132.51859699765836L172.48,120.06076114821431L173.04,134.5117895018935L173.6,123.05892638038873L174.16,124.29225245518256L174.72,138.61386128308038L175.28,142.0885176333288L175.84,152.5831850929558L176.4,120.87212770959734L176.96,123.20721500385402L177.52,135.22032759200692L178.08,125.29906712836718L178.64000000000001,146.0059483944875L179.20000000000002,155.7094183265866L179.76,158.57902120648035L180.32,129.08481568156606L180.88,141.04950681512906L181.44,124.27751488498065L182,138.77398525781163L182.56,135.76288586322502L183.12,137.8143561301472L183.68,155.51424350993884L184.24,138.01775111649664L184.8,157.86521104026872L185.36,134.61524010329865L185.92000000000002,150.37378686073077L186.48000000000002,113.84152738095912L187.04000000000002,114.09608950818533L187.60000000000002,137.29522483560416L188.16000000000003,137.985520294386L188.72,127.36613628034462L189.28,145.93148964726728L189.84,118.36431695272803L190.4,142.67240794599223L190.96,130.63554903030496L191.52,118.73108066117825L192.08,86.69653764960803L192.64,119.88098949550175L193.2,132.6325382328545L193.76,148.61431222775667L194.32,149.7846462316459L194.88,139.16282477302227L195.44,154.37425228624267L196,140.6087786505742L196.56,105.37165045440932L197.11999999999998,112.66054639935935L197.67999999999998,137.22384308633474L198.23999999999998,114.68172552500528L198.79999999999998,134.38946118989207L199.35999999999999,133.7221233847059L199.92,131.51515601291163L200.48,149.07864657246412L201.04,152.18570820214356L201.6,133.1674634857297L202.16,132.802682584126L202.72,134.08847929871035L203.28,146.6780195807573L203.84,137.06929876358254L204.4,150.41635579884613L204.96,134.59697601807454L205.51999999999998,141.48844981409513L206.07999999999998,153.9865258714104L206.64,165.30981584820415L207.2,170.62263794054547L207.76,168.5627132657764L208.32,166.4449506866096L208.88,139.05293288929215L209.44,148.5340177244124L210,146.1782793924914L210.56,151.53235644851364L211.12,123.19270908686063L211.68,104.9152323237213L212.24,131.12382362223582L212.8,140.10555459670374L213.36,157.62980624355168L213.92000000000002,155.13898098210865L214.48000000000002,138.83278621876462L215.04,152.99382157709732L215.6,167.4311295898201L216.16,152.067845159855L216.72,125.46547683124932L217.28,109.4047010007214L217.84,124.20285953359077L218.4,144.5657122121827L218.96,123.20445733586408L219.52,110.78663767170582L220.08,117.7088502782087L220.64000000000001,138.94670432135464L221.20000000000002,130.5016622503102L221.76000000000002,144.57317103204133L222.32000000000002,127.67637642179133L222.88000000000002,113.08217867287514L223.44,111.58882539315533L224,132.92763651814172L224.56,133.9876962030298L225.12,140.953019975088L225.68,131.03990085927367L226.24,150.7086211935146L226.8,146.6825216201224L227.36,158.21759527696835L227.92,159.258996090434L228.48,154.9655956141007L229.04,141.83778321813656L229.6,139.3534099016852L230.16,134.2614356341521L230.72,92.0082900561428L231.28,124.05977203175641L231.83999999999997,124.5076893134428L232.39999999999998,145.89971771916822L232.95999999999998,98.05970817852662L233.51999999999998,111.01685626237777L234.07999999999998,113.09595831888431L234.64,135.0642933705897L235.2,134.44463374671048L235.76,140.60673438135805L236.32,131.70568716003908L236.88,150.73784522249946L237.44,164.63217096461145L238,140.88188197274977L238.56,136.64734570717795L239.12,151.5215903075694L239.68,147.79680560244077L240.24,106.18000775106522L240.79999999999998,89.09045269207819L241.35999999999999,124.17650924841563L241.92,140.63777844291926L242.48,153.6665628168404L243.04,150.07347481479766L243.6,162.73366295415474L244.16,171.78187099244187L244.72,152.18610311237566L245.28,165.2842815328395L245.84,136.02674627356262L246.4,131.67199607522804L246.96,146.8272123252244L247.52,130.17397444933005L248.08,151.51621461206284L248.64000000000001,160.71676187168723L249.20000000000002,158.7660663437913L249.76,161.12416722697438L250.32,172.4713615820403L250.88,156.8787466523406L251.44,132.6602616868828" style="fill: none;" fill="none"></path></g></g></g></g><g opacity="0.2"><g><g><g><path stroke="rgb(255, 112, 67)" stroke-width="2px" d="M29.119999999999997,-68.33359578251834L29.68,16.549297481775284L30.24,39.00744608044624L30.8,-34.53852528333664L31.36,-21.461350858211517L31.92,57.3918486982584L32.480000000000004,69.85193914175034L33.04,60.917151778936386L33.6,-55.74108937382694L35.28,-7.600626289844513L35.84,39.96645627915859L36.4,61.51862172782421L36.96,-53.95655313134189L37.52,68.83043324947357L38.080000000000005,-9.296990722417831L38.64,56.89399315416813L39.2,100.7115121409297L39.76,66.63076682388783L40.32,-56.880755513906436L40.879999999999995,123.95573629438877L41.44,65.01103511452675L42,-43.402653872966766L42.56,26.539429932832718L43.12,87.74948461353779L43.68,55.15767051279545L44.24,86.99960222840309L44.800000000000004,30.79942336678505L45.36,89.55545058846474L45.92,112.93684481084347L46.480000000000004,105.82938062399626L47.040000000000006,82.70762903988361L47.6,72.01944118738174L48.16,35.913401529192924L48.72,18.51066528260708L49.279999999999994,89.32996364682913L49.839999999999996,94.88475470244884L50.4,112.08042698353529L50.96,4.165773823857307L51.519999999999996,45.50420245528221L52.08,28.838899567723274L52.64,96.87152168154716L53.2,-5.392229720950127L53.76,90.25231251865625L54.32,83.9121646285057L54.88,106.589859187603L55.440000000000005,54.96898336708546L56,65.0359727293253L56.56,148.99847546964884L57.12,67.22239887714386L57.68,125.6804341301322L58.239999999999995,-3.889458194375038L58.8,141.38038361817598L59.36,84.44396486878395L59.92,126.61624746769667L60.48,48.44844987988472L61.04,-38.9796362221241L61.6,20.739476144313812L62.160000000000004,24.155810683965683L62.72,137.9829797744751L63.28,47.425229609012604L63.84,13.634616494178772L64.4,83.24164478480816L64.96000000000001,124.8896044716239L65.52000000000001,116.19564114511013L66.08,84.13537672162056L66.64,52.505605950951576L67.2,69.71906161308289L67.75999999999999,129.17210901528597L68.32,122.2965738773346L68.88,-42.90485107898712L69.44,61.2335337549448L70,56.71899466216564L70.56,116.70608418434858L71.12,62.50486417114735L71.68,32.96340434253216L72.24000000000001,73.63598151504993L72.8,93.0221285149455L73.36,144.87769287452102L73.92,39.07368703186512L74.48,161.48517175018787L75.04,115.11599144339561L75.60000000000001,112.44883375614882L76.16000000000001,93.8985320404172L76.72,78.90418781340122L77.28,129.26502174139023L77.84,139.28541956841946L78.4,148.018480617553L78.96,112.38765022158623L79.52,52.377897933125496L80.08,108.65180826187134L80.64,82.91670410335064L81.19999999999999,79.81824173033237L81.75999999999999,87.18921250104904L82.32,0.975605383515358L82.88,154.84586479514837L83.44,96.36246992647648L84,67.03994943201542L84.56,99.57612535357475L85.12,26.817436203360558L85.67999999999999,113.2914244607091L86.24,95.87723484635353L86.8,85.46007706224918L87.36,103.11824253201485L87.92,54.61512243747711L88.48,81.8187896758318L89.04,-11.355880290269852L89.60000000000001,78.0273095369339L90.16,117.89220998436213L90.72,88.33412727713585L91.28,123.930653616786L91.84,157.74199422821403L92.4,166.37212662398815L92.96000000000001,151.40566742420197L93.52000000000001,153.68679650500417L94.08000000000001,62.085368916392326L94.64,82.73511184751987L95.2,110.93939593434334L95.76,111.05584839731455L96.32,148.4896248243749L96.88,96.77577363699675L97.44,178.37979914993048L98,103.24542304873466L98.55999999999999,84.75504545867443L99.11999999999999,158.08297753706574L99.67999999999999,36.31083405017853L100.24,170.18307485058904L100.8,158.43947926908731L101.36,159.89984959736466L101.92,147.93887740373611L102.48,156.18191630020738L103.03999999999999,87.05343371629715L103.6,95.80428144335747L104.16,162.83485915884376L104.72,109.88140015304089L105.28,121.54037466645241L105.84,159.6494909785688L106.4,183.86888499744236L106.96000000000001,150.1831803135574L107.52,69.62557522952557L108.08,148.26179050281644L108.64,138.38316848874092L109.2,102.05891481041908L109.76,59.81346121430397L110.32000000000001,163.95540008693933L110.88000000000001,137.54736276715994L111.44000000000001,60.25867214798927L112,154.01507033407688L112.56,104.43214888125658L113.12,53.03989863395691L113.68,155.18884931132197L114.24,162.54203670099378L114.8,134.8180324807763L115.36,63.47070550918579L115.91999999999999,113.72312477231026L116.47999999999999,165.49537692591548L117.03999999999999,168.53487456589937L117.6,98.5819044560194L118.16,164.18882262334228L118.72,59.59880782663822L119.28,137.87898952513933L119.84,101.78794408589602L120.39999999999999,144.7714772298932L120.96,116.41392769664526L121.52,170.27704917266965L122.08,89.97367984056473L122.64,134.6851417645812L123.2,64.76441515982151L123.76,121.58273959904909L124.32000000000001,82.08917355537415L124.88,17.160038262605667L125.44,170.02007700875401L126,126.04122510552406L126.56,93.21891939640045L127.12,151.67405669018626L127.68,-13.250756576657295L128.24,183.9983535502106L128.8,113.22066018730402L129.36,70.72451828420162L129.92000000000002,163.21207519993186L130.48000000000002,90.28014479577541L131.04000000000002,72.54033534228802L131.6,68.62936301529408L132.16,163.1999624557793L132.72,126.07538739591837L133.28,113.84850519150496L133.84,125.09847512841225L134.4,69.74310247600079L134.96,157.6412316262722L135.51999999999998,129.6458907276392L136.07999999999998,168.3671522922814L136.64,114.59666001051664L137.2,137.8092868477106L137.76,43.41618163883686L138.32,107.98157854378223L138.88,176.5264586303383L139.44,140.68734607100487L140,111.53309842944145L140.56,104.56290321797132L141.12,56.916675701737404L141.68,176.06266647018492L142.24,38.268140092492104L142.8,112.6136646643281L143.36,175.17162149213254L143.92000000000002,139.89504600316286L144.48000000000002,107.13192591816187L145.04,165.05652897432446L145.6,127.91085387021303L146.16,143.87984870374203L146.72,127.21488869190216L147.28,177.41651784069836L147.84,152.54001239687204L148.4,147.45047072321177L148.96,126.56573264300823L149.52,137.61370262503624L150.08,183.3505475744605L150.64000000000001,158.22629299387336L151.20000000000002,86.65439231693745L151.76000000000002,153.6862195506692L152.32000000000002,135.51753191649914L152.88000000000002,104.7560411542654L153.44,170.86720422282815L154,147.38166150078177L154.56,106.98015066236258L155.12,64.16576734185219L155.68,109.25665421783924L156.24,-24.33000737428665L156.8,121.39094679057598L157.36,152.45052513107657L157.92,82.77888125181198L158.48,146.67491551861167L159.04,116.61574302613735L159.6,135.73010167479515L160.16,70.61601130664349L160.72,128.50234745442867L161.28,173.06304132007062L161.83999999999997,134.37247867137194L162.39999999999998,118.26930733770132L162.95999999999998,177.50974871590734L163.51999999999998,140.4670682027936L164.07999999999998,86.13881273567677L164.64,155.29482758045197L165.2,165.99047627672553L165.76,78.51017086207867L166.32,62.50213435292244L166.88,107.0339755564928L167.44,15.278850629925728L168,144.86426137760282L168.56,89.81876595318317L169.12,79.71672414243221L169.68,144.59966352581978L170.24,145.11163302138448L170.79999999999998,113.63265173882246L171.35999999999999,59.80229137837887L171.92,187.17812444921583L172.48,101.37400737404823L173.04,156.1883320324123L173.6,105.87963169813156L174.16,126.14224156737328L174.72,160.09627452492714L175.28,147.30050215870142L175.84,168.32518628239632L176.4,73.30554163455963L176.96,126.70984594523907L177.52,153.23999647423625L178.08,110.41717643290758L178.64000000000001,177.0662702936679L179.20000000000002,170.26462322473526L179.76,162.88342552632093L180.32,84.8435073941946L180.88,158.9965435154736L181.44,99.11952698975801L182,160.5186908170581L182.56,131.24623677134514L183.12,140.89156153053045L183.68,182.06407457962632L184.24,111.77301252633333L184.8,187.63640092592686L185.36,99.74028369784355L185.92000000000002,174.01160699687898L186.48000000000002,59.04313816130161L187.04000000000002,114.47793269902468L187.60000000000002,172.0939278267324L188.16000000000003,139.02096348255873L188.72,111.43706025928259L189.28,173.77951969765127L189.84,77.01355791091919L190.4,179.13454443588853L190.96,112.58026065677404L191.52,100.87437810748816L192.08,38.64472313225269L192.64,169.6576672643423L193.2,151.75986133888364L193.76,172.58697322010994L194.32,151.5401472374797L194.88,123.23009258508682L195.44,177.1913935560733L196,119.96056819707155L196.56,52.51595816016197L197.11999999999998,123.59389031678438L197.67999999999998,174.0687881167978L198.23999999999998,80.86854918301105L198.79999999999998,163.95106468722224L199.35999999999999,132.7211166769266L199.92,128.20470495522022L200.48,175.42388241179287L201.04,156.8463006466627L201.6,104.64009641110897L202.16,132.25551123172045L202.72,136.01717437058687L203.28,165.5623300038278L203.84,122.65621753782034L204.4,170.43694135174155L204.96,110.86790634691715L205.51999999999998,151.82566050812602L206.07999999999998,172.73363995738328L206.64,182.29475081339478L207.2,178.59187107905746L207.76,165.47282625362277L208.32,163.2683068178594L208.88,97.96490619331598L209.44,162.75564497709274L210,142.64467189460993L210.56,159.563472032547L211.12,80.68323804438114L211.68,77.4990171790123L212.24,170.43671057000756L212.8,153.57815105840564L213.36,183.91618371382356L213.92000000000002,151.40274308994412L214.48000000000002,114.37349407374859L215.04,174.23537461459637L215.6,189.0870916089043L216.16,129.02291851490736L216.72,85.56192433834076L217.28,85.31353725492954L217.84,146.4000973328948L218.4,175.1099912300706L218.96,91.16257502138615L219.52,92.15990817546844L220.08,128.092169187963L220.64000000000001,170.8034853860736L221.20000000000002,117.83409914374352L221.76000000000002,165.680434204638L222.32000000000002,102.33118450641632L222.88000000000002,91.19088204950094L223.44,109.34879547357559L224,164.93585320562124L224.56,135.57778573036194L225.12,151.40100563317537L225.68,116.17022218555212L226.24,180.21170169487596L226.8,140.64337226003408L227.36,175.5202057622373L227.92,160.82109731063247L228.48,148.52549489960074L229.04,122.14606462419033L229.6,135.62684992700815L230.16,126.62347423285246L230.72,28.628571689128876L231.28,172.1369949951768L231.83999999999997,125.1795652359724L232.39999999999998,177.9877603277564L232.95999999999998,26.2996938675642L233.51999999999998,130.4525783881545L234.07999999999998,116.21461140364408L234.64,168.01679594814777L235.2,133.51514431089163L235.76,149.84988533332944L236.32,118.35411632806063L236.88,179.28608231619L237.44,185.47365957777947L238,105.25644848495722L238.56,130.29554130882025L239.12,173.83295720815659L239.68,142.20962854474783L240.24,43.754810974001884L240.79999999999998,63.45612010359764L241.35999999999999,176.80559408292174L241.92,165.3296822346747L242.48,173.20973937772214L243.04,144.68384281173348L243.6,181.72394516319036L244.16,185.35418304987252L244.72,122.79245129227638L245.28,184.93154916353524L245.84,92.14044338464737L246.4,125.13987077772617L246.96,169.56003670021892L247.52,105.19411763548851L248.08,183.52957485616207L248.64000000000001,174.51758276112378L249.20000000000002,155.84002305194736L249.76,164.661318551749L250.32,189.49215311463922L250.88,133.48982425779104L251.44,96.3325342386961" style="fill: none;" fill="none"></path></g></g></g></g></g></g><g transform="translate(50, 177)" clip-path="url(#clip_1)"><clipPath id="clip_1"><rect width="280" height="22"></rect></clipPath><g><g><line x1="0" y1="0" x2="0" y2="5" style="visibility: inherit;" fill="rgb(0, 0, 0)" stroke="rgb(204, 204, 204)" stroke-width="1px"></line><line x1="28" y1="0" x2="28" y2="5" style="visibility: inherit;" fill="rgb(0, 0, 0)" stroke="rgb(204, 204, 204)" stroke-width="1px"></line><line x1="56" y1="0" x2="56" y2="5" style="visibility: inherit;" fill="rgb(0, 0, 0)" stroke="rgb(204, 204, 204)" stroke-width="1px"></line><line x1="84" y1="0" x2="84" y2="5" style="visibility: inherit;" fill="rgb(0, 0, 0)" stroke="rgb(204, 204, 204)" stroke-width="1px"></line><line x1="112" y1="0" x2="112" y2="5" style="visibility: inherit;" fill="rgb(0, 0, 0)" stroke="rgb(204, 204, 204)" stroke-width="1px"></line><line x1="140" y1="0" x2="140" y2="5" style="visibility: inherit;" fill="rgb(0, 0, 0)" stroke="rgb(204, 204, 204)" stroke-width="1px"></line><line x1="168" y1="0" x2="168" y2="5" style="visibility: inherit;" fill="rgb(0, 0, 0)" stroke="rgb(204, 204, 204)" stroke-width="1px"></line><line x1="196" y1="0" x2="196" y2="5" style="visibility: inherit;" fill="rgb(0, 0, 0)" stroke="rgb(204, 204, 204)" stroke-width="1px"></line><line x1="224" y1="0" x2="224" y2="5" style="visibility: inherit;" fill="rgb(0, 0, 0)" stroke="rgb(204, 204, 204)" stroke-width="1px"></line><line x1="252" y1="0" x2="252" y2="5" style="visibility: inherit;" fill="rgb(0, 0, 0)" stroke="rgb(204, 204, 204)" stroke-width="1px"></line><line x1="280" y1="0" x2="280" y2="5" style="visibility: inherit;" fill="rgb(0, 0, 0)" stroke="rgb(204, 204, 204)" stroke-width="1px"></line></g><g transform="translate(0, 8)"><text x="0" y="0" dx="0em" dy="0.95em" style="text-anchor: middle; visibility: hidden; font-family: Roboto, sans-serif; font-size: 12px; font-weight: 200;" fill="rgb(33, 33, 33)" stroke="none" stroke-width="1px">-5k</text><text x="28" y="0" dx="0em" dy="0.95em" style="text-anchor: middle; visibility: inherit; font-family: Roboto, sans-serif; font-size: 12px; font-weight: 200;" fill="rgb(33, 33, 33)" stroke="none" stroke-width="1px">0</text><text x="56" y="0" dx="0em" dy="0.95em" style="text-anchor: middle; visibility: inherit; font-family: Roboto, sans-serif; font-size: 12px; font-weight: 200;" fill="rgb(33, 33, 33)" stroke="none" stroke-width="1px">5k</text><text x="84" y="0" dx="0em" dy="0.95em" style="text-anchor: middle; visibility: inherit; font-family: Roboto, sans-serif; font-size: 12px; font-weight: 200;" fill="rgb(33, 33, 33)" stroke="none" stroke-width="1px">10k</text><text x="112" y="0" dx="0em" dy="0.95em" style="text-anchor: middle; visibility: inherit; font-family: Roboto, sans-serif; font-size: 12px; font-weight: 200;" fill="rgb(33, 33, 33)" stroke="none" stroke-width="1px">15k</text><text x="140" y="0" dx="0em" dy="0.95em" style="text-anchor: middle; visibility: inherit; font-family: Roboto, sans-serif; font-size: 12px; font-weight: 200;" fill="rgb(33, 33, 33)" stroke="none" stroke-width="1px">20k</text><text x="168" y="0" dx="0em" dy="0.95em" style="text-anchor: middle; visibility: inherit; font-family: Roboto, sans-serif; font-size: 12px; font-weight: 200;" fill="rgb(33, 33, 33)" stroke="none" stroke-width="1px">25k</text><text x="196" y="0" dx="0em" dy="0.95em" style="text-anchor: middle; visibility: inherit; font-family: Roboto, sans-serif; font-size: 12px; font-weight: 200;" fill="rgb(33, 33, 33)" stroke="none" stroke-width="1px">30k</text><text x="224" y="0" dx="0em" dy="0.95em" style="text-anchor: middle; visibility: inherit; font-family: Roboto, sans-serif; font-size: 12px; font-weight: 200;" fill="rgb(33, 33, 33)" stroke="none" stroke-width="1px">35k</text><text x="252" y="0" dx="0em" dy="0.95em" style="text-anchor: middle; visibility: inherit; font-family: Roboto, sans-serif; font-size: 12px; font-weight: 200;" fill="rgb(33, 33, 33)" stroke="none" stroke-width="1px">40k</text><text x="280" y="0" dx="0em" dy="0.95em" style="text-anchor: middle; visibility: hidden; font-family: Roboto, sans-serif; font-size: 12px; font-weight: 200;" fill="rgb(33, 33, 33)" stroke="none" stroke-width="1px">45k</text></g><line x1="0" y1="0" x2="280" y2="0" fill="rgb(0, 0, 0)" stroke="rgb(204, 204, 204)" stroke-width="1px"></line></g></g></g></g></svg>