<svg viewBox="0 0 330 200" xmlns="http://www.w3.org/2000/svg"><g><g><g><g><g><line x1="60" y1="177" x2="55" y2="177" style="visibility: inherit;" fill="rgb(0, 0, 0)" stroke="rgb(204, 204, 204)" stroke-width="1px"></line><line x1="60" y1="165.2" x2="55" y2="165.2" style="visibility: inherit;" fill="rgb(0, 0, 0)" stroke="rgb(204, 204, 204)" stroke-width="1px"></line><line x1="60" y1="153.4" x2="55" y2="153.4" style="visibility: inherit;" fill="rgb(0, 0, 0)" stroke="rgb(204, 204, 204)" stroke-width="1px"></line><line x1="60" y1="141.6" x2="55" y2="141.6" style="visibility: inherit;" fill="rgb(0, 0, 0)" stroke="rgb(204, 204, 204)" stroke-width="1px"></line><line x1="60" y1="129.8" x2="55" y2="129.8" style="visibility: inherit;" fill="rgb(0, 0, 0)" stroke="rgb(204, 204, 204)" stroke-width="1px"></line><line x1="60" y1="118" x2="55" y2="118" style="visibility: inherit;" fill="rgb(0, 0, 0)" stroke="rgb(204, 204, 204)" stroke-width="1px"></line><line x1="60" y1="106.20000000000002" x2="55" y2="106.20000000000002" style="visibility: inherit;" fill="rgb(0, 0, 0)" stroke="rgb(204, 204, 204)" stroke-width="1px"></line><line x1="60" y1="94.4" x2="55" y2="94.4" style="visibility: inherit;" fill="rgb(0, 0, 0)" stroke="rgb(204, 204, 204)" stroke-width="1px"></line><line x1="60" y1="82.6" x2="55" y2="82.6" style="visibility: inherit;" fill="rgb(0, 0, 0)" stroke="rgb(204, 204, 204)" stroke-width="1px"></line><line x1="60" y1="70.79999999999998" x2="55" y2="70.79999999999998" style="visibility: inherit;" fill="rgb(0, 0, 0)" stroke="rgb(204, 204, 204)" stroke-width="1px"></line><line x1="60" y1="59.00000000000001" x2="55" y2="59.00000000000001" style="visibility: inherit;" fill="rgb(0, 0, 0)" stroke="rgb(204, 204, 204)" stroke-width="1px"></line><line x1="60" y1="47.20000000000001" x2="55" y2="47.20000000000001" style="visibility: inherit;" fill="rgb(0, 0, 0)" stroke="rgb(204, 204, 204)" stroke-width="1px"></line><line x1="60" y1="35.39999999999999" x2="55" y2="35.39999999999999" style="visibility: inherit;" fill="rgb(0, 0, 0)" stroke="rgb(204, 204, 204)" stroke-width="1px"></line><line x1="60" y1="23.599999999999977" x2="55" y2="23.599999999999977" style="visibility: inherit;" fill="rgb(0, 0, 0)" stroke="rgb(204, 204, 204)" stroke-width="1px"></line><line x1="60" y1="11.799999999999978" x2="55" y2="11.799999999999978" style="visibility: inherit;" fill="rgb(0, 0, 0)" stroke="rgb(204, 204, 204)" stroke-width="1px"></line><line x1="60" y1="0" x2="55" y2="0" style="visibility: inherit;" fill="rgb(0, 0, 0)" stroke="rgb(204, 204, 204)" stroke-width="1px"></line></g><g transform="translate(50, 0)"><text x="0" y="177" dx="0em" dy="0.3em" style="text-anchor: end; visibility: hidden; font-family: Roboto, sans-serif; font-size: 12px; font-weight: 200;" fill="rgb(33, 33, 33)" stroke="none" stroke-width="1px">6e-3</text><text x="0" y="165.2" dx="0em" dy="0.3em" style="text-anchor: end; visibility: inherit; font-family: Roboto, sans-serif; font-size: 12px; font-weight: 200;" fill="rgb(33, 33, 33)" stroke="none" stroke-width="1px">8e-3</text><text x="0" y="153.4" dx="0em" dy="0.3em" style="text-anchor: end; visibility: hidden; font-family: Roboto, sans-serif; font-size: 12px; font-weight: 200;" fill="rgb(33, 33, 33)" stroke="none" stroke-width="1px">0.01</text><text x="0" y="141.6" dx="0em" dy="0.3em" style="text-anchor: end; visibility: inherit; font-family: Roboto, sans-serif; font-size: 12px; font-weight: 200;" fill="rgb(33, 33, 33)" stroke="none" stroke-width="1px">0.012</text><text x="0" y="129.8" dx="0em" dy="0.3em" style="text-anchor: end; visibility: hidden; font-family: Roboto, sans-serif; font-size: 12px; font-weight: 200;" fill="rgb(33, 33, 33)" stroke="none" stroke-width="1px">0.014</text><text x="0" y="118" dx="0em" dy="0.3em" style="text-anchor: end; visibility: inherit; font-family: Roboto, sans-serif; font-size: 12px; font-weight: 200;" fill="rgb(33, 33, 33)" stroke="none" stroke-width="1px">0.016</text><text x="0" y="106.20000000000002" dx="0em" dy="0.3em" style="text-anchor: end; visibility: hidden; font-family: Roboto, sans-serif; font-size: 12px; font-weight: 200;" fill="rgb(33, 33, 33)" stroke="none" stroke-width="1px">0.018</text><text x="0" y="94.4" dx="0em" dy="0.3em" style="text-anchor: end; visibility: inherit; font-family: Roboto, sans-serif; font-size: 12px; font-weight: 200;" fill="rgb(33, 33, 33)" stroke="none" stroke-width="1px">0.02</text><text x="0" y="82.6" dx="0em" dy="0.3em" style="text-anchor: end; visibility: hidden; font-family: Roboto, sans-serif; font-size: 12px; font-weight: 200;" fill="rgb(33, 33, 33)" stroke="none" stroke-width="1px">0.022</text><text x="0" y="70.79999999999998" dx="0em" dy="0.3em" style="text-anchor: end; visibility: inherit; font-family: Roboto, sans-serif; font-size: 12px; font-weight: 200;" fill="rgb(33, 33, 33)" stroke="none" stroke-width="1px">0.024</text><text x="0" y="59.00000000000001" dx="0em" dy="0.3em" style="text-anchor: end; visibility: hidden; font-family: Roboto, sans-serif; font-size: 12px; font-weight: 200;" fill="rgb(33, 33, 33)" stroke="none" stroke-width="1px">0.026</text><text x="0" y="47.20000000000001" dx="0em" dy="0.3em" style="text-anchor: end; visibility: inherit; font-family: Roboto, sans-serif; font-size: 12px; font-weight: 200;" fill="rgb(33, 33, 33)" stroke="none" stroke-width="1px">0.028</text><text x="0" y="35.39999999999999" dx="0em" dy="0.3em" style="text-anchor: end; visibility: hidden; font-family: Roboto, sans-serif; font-size: 12px; font-weight: 200;" fill="rgb(33, 33, 33)" stroke="none" stroke-width="1px">0.03</text><text x="0" y="23.599999999999977" dx="0em" dy="0.3em" style="text-anchor: end; visibility: inherit; font-family: Roboto, sans-serif; font-size: 12px; font-weight: 200;" fill="rgb(33, 33, 33)" stroke="none" stroke-width="1px">0.032</text><text x="0" y="11.799999999999978" dx="0em" dy="0.3em" style="text-anchor: end; visibility: hidden; font-family: Roboto, sans-serif; font-size: 12px; font-weight: 200;" fill="rgb(33, 33, 33)" stroke="none" stroke-width="1px">0.034</text><text x="0" y="0" dx="0em" dy="0.3em" style="text-anchor: end; visibility: hidden; font-family: Roboto, sans-serif; font-size: 12px; font-weight: 200;" fill="rgb(33, 33, 33)" stroke="none" stroke-width="1px">0.036</text></g><line x1="60" y1="0" x2="60" y2="177" fill="rgb(0, 0, 0)" stroke="rgb(204, 204, 204)" stroke-width="1px"></line></g></g><g transform="translate(60, 0)" clip-path="url(#clip_0)"><clipPath id="clip_0"><rect width="270" height="176"></rect></clipPath><g><g><g><line x1="0" y1="0" x2="0" y2="177" fill="rgb(0, 0, 0)" stroke="rgb(66, 66, 66)" stroke-width="1px" opacity="0.25"></line><line x1="27" y1="0" x2="27" y2="177" fill="rgb(0, 0, 0)" stroke="rgb(66, 66, 66)" stroke-width="1px" opacity="0.25"></line><line x1="54" y1="0" x2="54" y2="177" fill="rgb(0, 0, 0)" stroke="rgb(66, 66, 66)" stroke-width="1px" opacity="0.25"></line><line x1="81" y1="0" x2="81" y2="177" fill="rgb(0, 0, 0)" stroke="rgb(66, 66, 66)" stroke-width="1px" opacity="0.25"></line><line x1="108" y1="0" x2="108" y2="177" fill="rgb(0, 0, 0)" stroke="rgb(66, 66, 66)" stroke-width="1px" opacity="0.25"></line><line x1="135" y1="0" x2="135" y2="177" fill="rgb(0, 0, 0)" stroke="rgb(66, 66, 66)" stroke-width="1px" opacity="0.25"></line><line x1="162" y1="0" x2="162" y2="177" fill="rgb(0, 0, 0)" stroke="rgb(66, 66, 66)" stroke-width="1px" opacity="0.25"></line><line x1="189" y1="0" x2="189" y2="177" fill="rgb(0, 0, 0)" stroke="rgb(66, 66, 66)" stroke-width="1px" opacity="0.25"></line><line x1="216" y1="0" x2="216" y2="177" fill="rgb(0, 0, 0)" stroke="rgb(66, 66, 66)" stroke-width="1px" opacity="0.25"></line><line x1="243" y1="0" x2="243" y2="177" fill="rgb(0, 0, 0)" stroke="rgb(66, 66, 66)" stroke-width="1px" opacity="0.25"></line><line x1="270" y1="0" x2="270" y2="177" fill="rgb(0, 0, 0)" stroke="rgb(66, 66, 66)" stroke-width="1px" opacity="0.25"></line></g><g><line x1="0" y1="177" x2="270" y2="177" fill="rgb(0, 0, 0)" stroke="rgb(66, 66, 66)" stroke-width="1px" opacity="0.25"></line><line x1="0" y1="165.2" x2="270" y2="165.2" fill="rgb(0, 0, 0)" stroke="rgb(66, 66, 66)" stroke-width="1px" opacity="0.25"></line><line x1="0" y1="153.4" x2="270" y2="153.4" fill="rgb(0, 0, 0)" stroke="rgb(66, 66, 66)" stroke-width="1px" opacity="0.25"></line><line x1="0" y1="141.6" x2="270" y2="141.6" fill="rgb(0, 0, 0)" stroke="rgb(66, 66, 66)" stroke-width="1px" opacity="0.25"></line><line x1="0" y1="129.8" x2="270" y2="129.8" fill="rgb(0, 0, 0)" stroke="rgb(66, 66, 66)" stroke-width="1px" opacity="0.25"></line><line x1="0" y1="118" x2="270" y2="118" fill="rgb(0, 0, 0)" stroke="rgb(66, 66, 66)" stroke-width="1px" opacity="0.25"></line><line x1="0" y1="106.20000000000002" x2="270" y2="106.20000000000002" fill="rgb(0, 0, 0)" stroke="rgb(66, 66, 66)" stroke-width="1px" opacity="0.25"></line><line x1="0" y1="94.4" x2="270" y2="94.4" fill="rgb(0, 0, 0)" stroke="rgb(66, 66, 66)" stroke-width="1px" opacity="0.25"></line><line x1="0" y1="82.6" x2="270" y2="82.6" fill="rgb(0, 0, 0)" stroke="rgb(66, 66, 66)" stroke-width="1px" opacity="0.25"></line><line x1="0" y1="70.79999999999998" x2="270" y2="70.79999999999998" fill="rgb(0, 0, 0)" stroke="rgb(66, 66, 66)" stroke-width="1px" opacity="0.25"></line><line x1="0" y1="59.00000000000001" x2="270" y2="59.00000000000001" fill="rgb(0, 0, 0)" stroke="rgb(66, 66, 66)" stroke-width="1px" opacity="0.25"></line><line x1="0" y1="47.20000000000001" x2="270" y2="47.20000000000001" fill="rgb(0, 0, 0)" stroke="rgb(66, 66, 66)" stroke-width="1px" opacity="0.25"></line><line x1="0" y1="35.39999999999999" x2="270" y2="35.39999999999999" fill="rgb(0, 0, 0)" stroke="rgb(66, 66, 66)" stroke-width="1px" opacity="0.25"></line><line x1="0" y1="23.599999999999977" x2="270" y2="23.599999999999977" fill="rgb(0, 0, 0)" stroke="rgb(66, 66, 66)" stroke-width="1px" opacity="0.25"></line><line x1="0" y1="11.799999999999978" x2="270" y2="11.799999999999978" fill="rgb(0, 0, 0)" stroke="rgb(66, 66, 66)" stroke-width="1px" opacity="0.25"></line><line x1="0" y1="0" x2="270" y2="0" fill="rgb(0, 0, 0)" stroke="rgb(66, 66, 66)" stroke-width="1px" opacity="0.25"></line></g></g></g><g><g><line x1="0" y1="212.4" x2="270" y2="212.4" fill="rgb(0, 0, 0)" stroke="rgb(153, 153, 153)" stroke-width="1.5px"></line></g></g><g><g><line x1="27" y1="0" x2="27" y2="177" fill="rgb(0, 0, 0)" stroke="rgb(153, 153, 153)" stroke-width="1.5px"></line></g></g><g><g><g><g><g><path stroke="rgb(255, 112, 67)" stroke-width="2px" d="M34.02,-12.564431861002095L34.56,6.167597452262134L35.1,9.336759293969514L35.64,0.62478973652485L36.18,5.042488906783281L36.720000000000006,-4.798884808456592L37.260000000000005,7.999479514526136L37.800000000000004,8.516097451342903L38.339999999999996,17.36518982398537L38.879999999999995,17.11420356872337L39.419999999999995,44.32802088480847L39.96,29.067060481502008L40.5,21.1098229851024L41.04,15.305120208936522L41.58,19.691753306707238L42.12,22.525210563106306L42.660000000000004,27.14116594602051L43.2,34.688655155726856L43.74,35.023175432381116L44.28,35.08709774626385L44.82,36.78686866452497L45.36,30.925685739432794L45.900000000000006,36.851092093856685L46.44,31.31796210540648L46.98,44.310185529155056L47.519999999999996,44.537566664345505L48.059999999999995,41.43893655632627L48.6,37.09132477348848L49.14,36.65229942363713L49.68,34.41956872912677L50.22,40.33598057296511L50.76,52.98287438265794L51.3,46.82820897071312L51.84,63.361586850717934L52.38,56.8944971904705L52.92,48.44174511752365L53.46,46.82082148563646L54,49.43647049828716L54.540000000000006,59.227865794713075L55.08,61.20650946821007L55.62,71.39118093745127L56.16,61.16276013609846L56.699999999999996,55.97055005345792L57.239999999999995,54.76984201916458L57.78,50.44294488518418L58.32,60.25418210440346L58.86,60.181889501294314L59.4,64.32470117693006L59.94,59.07879567614108L60.480000000000004,79.32767598373259L61.02,71.44855643595785L61.56,63.7599176847072L62.1,68.72445772845337L62.64,66.28054950749151L63.18000000000001,65.96153266856238L63.72,63.60860765712957L64.25999999999999,74.43697513245044L64.8,76.34033135892453L65.34,73.27100924206674L65.88,77.63896997364104L66.42,71.99468324596728L66.96,81.71945012280372L67.5,74.60989906054155L68.04,83.5994535968388L68.58,86.0197548953107L69.12,79.43238362654512L69.66,77.703887945917L70.2,75.05473836511776L70.74000000000001,78.40148088544849L71.28,80.24888472741988L71.82000000000001,88.8449502771267L72.36,87.83907326431088L72.9,100.45726118070489L73.44000000000001,98.28729454387788L73.98,91.25845923906304L74.52000000000001,88.38954319647394L75.06,89.36435282940533L75.60000000000001,90.00207663664145L76.13999999999999,91.96062047594144L76.67999999999999,101.53629420944067L77.22,101.69848167805681L77.75999999999999,94.17389550810343L78.3,93.47648468676378L78.83999999999999,90.92602818109494L79.38,93.24661345778644L79.92,91.98946283816542L80.46,95.0098165283158L81,90.22334596631256L81.53999999999999,107.18917135725813L82.08,108.34076209622856L82.62,99.32723033343696L83.16,104.46339243063296L83.7,103.05802021628001L84.24,105.68614539686071L84.78,108.36293504108923L85.32000000000001,115.72284363400897L85.86,113.4524507152555L86.4,111.42723399028286L86.94,114.9344389213628L87.48,110.21486250659862L88.02000000000001,117.34929616273068L88.56,115.59762074721229L89.10000000000001,117.96922730071766L89.64,115.85315993585243L90.18,109.7133171990994L90.72,111.54530599984426L91.26,109.48123339636861L91.80000000000001,111.505344613932L92.34,115.62376867416049L92.88,122.71914617289629L93.41999999999999,122.79512416374402L93.96,131.49026748330422L94.5,129.2958772131266L95.03999999999999,126.37703317007193L95.58,121.6951262128399L96.11999999999999,121.07187189352787L96.66,126.06475731755661L97.2,122.66686525717597L97.74,130.797746921332L98.28,128.9015528370448L98.82,126.27799984332967L99.36,127.28726735035806L99.9,123.7032272453322L100.44,125.73585178823555L100.98,123.00908963365129L101.52,126.24641065497859L102.06,128.1690175804476L102.6,136.05583663779376L103.14,131.99535500763582L103.68,123.09306736504273L104.22,125.45709245988867L104.76,121.8243723195144L105.3,122.87024905183009L105.84,128.33909672348554L106.38000000000001,132.25368359207425L106.92,128.0237562186677L107.46000000000001,126.56110640389673L108,129.83050822241873L108.54,124.31074398829801L109.08000000000001,131.19807098313728L109.62,130.25128430935476L110.16,133.11297394581277L110.69999999999999,132.20494880585457L111.24,125.85645225887646L111.78,128.39591586348502L112.32,127.22745036993676L112.86,127.84517439165268L113.39999999999999,128.17023490702243L113.94,133.15986724010187L114.47999999999999,131.64032079971477L115.02,139.20004530576853L115.56,137.79593182312243L116.1,135.87249747697587L116.64,134.99759045472192L117.17999999999999,134.42714267719057L117.72,137.97546061782998L118.26,137.2200995103059L118.8,142.29236022535193L119.34,138.26688313188092L119.88,136.1495229068514L120.42,136.08316541153883L120.96000000000001,132.7625797631663L121.5,132.89461160017976L122.04,133.4008252645369L122.58,137.84226554690812L123.12,137.73315305506594L123.66000000000001,146.0168499862874L124.2,139.50016229455022L124.74000000000001,132.13494270416706L125.28,132.468543167249L125.82000000000001,130.34038389553766L126.36000000000001,131.8741021435269L126.89999999999999,135.11816448663524L127.44,139.09874506470473L127.97999999999999,139.8392766641194L128.51999999999998,136.4728704861769L129.06,139.1991410557609L129.6,136.5133945428837L130.14,139.9757094319766L130.68,139.75059999502332L131.22,142.41891038910526L131.76,139.04824265745867L132.3,132.57348431651346L132.84,134.51187886807057L133.38,133.23596587993342L133.92,134.05920526276614L134.46,136.5647501840626L135,141.13404324379175L135.54,139.126792568425L136.08,147.8342363041399L136.62,147.26667226325026L137.16,146.1790669907364L137.7,146.32667684908108L138.24,147.1091199171865L138.78,150.48336291237615L139.32,149.54984295382468L139.86,153.61790479936818L140.4,149.9924044553555L140.94,147.31336926544412L141.48000000000002,148.4539563728851L142.02,145.17727205952895L142.56,145.74573065132435L143.1,146.53890502536615L143.64000000000001,150.05080270430042L144.18,151.67906042194718L144.72,156.3439994743845L145.26000000000002,153.5703203336228L145.8,145.45307093058997L146.34,145.1395637723504L146.88000000000002,144.03083597378125L147.42000000000002,146.43392596904152L147.96,148.03232471116613L148.5,150.72643817852872L149.04000000000002,151.3354494794663L149.58,148.85696592089272L150.12,150.64334324453316L150.66000000000003,150.0514421391728L151.20000000000002,152.21305980612294L151.74,152.61565008270415L152.27999999999997,154.17499432478948L152.82,153.6535483039296L153.35999999999999,149.18937226664283L153.89999999999998,149.01524408388886L154.44,148.01941338824483L154.98,148.5467407464817L155.51999999999998,148.83856440155716L156.06,152.72941155385382L156.6,150.48476626277807L157.14,157.14184458718208L157.67999999999998,156.4771831289858L158.22,154.9205762738544L158.76,152.67721155014982L159.29999999999998,153.616709946557L159.84,155.35653204468733L160.38,155.97443299351838L160.92,159.29811376606648L161.45999999999998,155.88105763122573L162,152.32486323997458L162.54,151.69372691264795L163.07999999999998,150.6483650410238L163.62,151.2220964991488L164.16,151.2178549556993L164.7,154.19930026674643L165.24,153.7818149512671L165.78,163.0998784278728L166.32,159.8698748847781L166.85999999999999,153.6733849010431L167.4,154.71770276257772L167.94,151.9529383151494L168.48,152.84197153173463L169.02,153.4190289907013L169.56,156.35684782817094L170.1,154.33655395748693L170.64000000000001,153.3815849765687L171.18,154.1501971515744L171.72,152.18816284344967L172.26,155.58315480563866L172.8,152.07379674711123L173.34,153.84711953638967L173.88,154.11012256138906L174.42000000000002,152.96540985312095L174.96,154.47368796709796L175.5,151.89724204476846L176.04000000000002,152.9772596128951L176.58,154.2193550871712L177.12,158.026628814155L177.66,155.81670120836145L178.20000000000002,160.71941067103054L178.74,159.1563252608389L179.28,157.83590383740727L179.82000000000002,157.63666113324442L180.36,158.93595501755163L180.9,160.08136875077778L181.44,158.00092198845562L181.98000000000002,160.06188596485148L182.52,157.2348793598896L183.06,156.34127931969675L183.60000000000002,157.1751583562929L184.14000000000001,153.1505922783398L184.68,155.01630871260065L185.22000000000003,153.6650992251271L185.76,156.6229952902695L186.29999999999998,155.97808975077274L186.83999999999997,164.70298404140235L187.38,162.7811010077176L187.92,157.74260684130059L188.45999999999998,158.44909481929224L189,155.9346328084259L189.54,158.54150164959364L190.07999999999998,157.71206690333804L190.61999999999998,161.3506367404015L191.16,161.87405795358129L191.7,160.78300378681723L192.23999999999998,161.07977667785585L192.78,161.44594071320833L193.32,163.80837060726967L193.85999999999999,161.61383944789935L194.4,163.5603294135056L194.94,163.9000037965728L195.48,162.2735554213854L196.01999999999998,161.93376481357407L196.56,160.47966667069906L197.1,161.37963128330657L197.64,161.17670606578798L198.18,164.7833749106849L198.72,164.63350140668896L199.26,168.63392638246984L199.8,166.5771003331588L200.34,164.6344344467429L200.88,163.77610430929113L201.42,164.56996834673313L201.96,166.38894412665263L202.5,163.6911616688889L203.04,166.84043292781246L203.58,165.01084803450422L204.12,164.62172010545922L204.66,163.89486716750258L205.2,163.01143666453953L205.74,162.564857610749L206.28,162.94476286005187L206.82,163.97169874776128L207.36,165.07669335763885L207.9,168.5692071565165L208.44,167.12682815689885L208.98000000000002,162.79248314886718L209.52,163.13923802309887L210.06,161.79670803954397L210.6,162.67786604499932L211.14000000000001,162.9035949837334L211.68,165.12425301171345L212.22,162.56403693584798L212.76000000000002,162.6876785315764L213.3,163.74470135227992L213.84,163.7653389454255L214.38000000000002,165.84171684028917L214.92000000000002,164.73093018705973L215.46,165.518866661938L216,164.50544473216056L216.54000000000002,164.02134114673802L217.08,163.82773039651556L217.62,161.9373095796266L218.16000000000003,162.50556690995447L218.70000000000002,163.2505256137523L219.24,166.66812551386792L219.77999999999997,165.03740469198013L220.32,169.65174663099995L220.85999999999999,169.09663545941322L221.39999999999998,167.7403254074157L221.94,166.40188238008622L222.48,166.7403762129474L223.01999999999998,168.90802839830687L223.56,166.9538741441677L224.1,169.33346084830822L224.64,168.0151443149308L225.17999999999998,166.4654253766334L225.72,165.4848220321772L226.26,163.93988732148634L226.79999999999998,164.07534009813918L227.34,163.46782719462902L227.88,165.02754128482815L228.42,165.8760045661442L228.95999999999998,173.45656455257014L229.5,170.58377430914925L230.04,165.93142281281402L230.57999999999998,166.59146593977482L231.12,164.53352260183973L231.66,164.95729920233296L232.2,165.31632688233262L232.74,167.30086241402628L233.28,166.6038891544247L233.82,165.5840879890504L234.35999999999999,166.20658845145599L234.9,166.24303969913183L235.44,168.5249240988401L235.98,167.64897156679078L236.52,167.7604466491845L237.06,165.38526203029792L237.6,164.63874626543188L238.14000000000001,165.06436984679738L238.68,164.37230365450165L239.22,165.37507263168683L239.76,165.5724879410564L240.3,168.65866934011575L240.84,166.9999176612508L241.38,171.14198234444927L241.92000000000002,170.84723867321654L242.46,169.25554438870932" style="fill: none;" fill="none"></path></g></g></g></g><g opacity="0.2"><g><g><g><path stroke="rgb(255, 112, 67)" stroke-width="2px" d="M32.94,-18.092091923952136L33.48,6.809037381410578L34.02,-13.767242228984866L34.56,34.24362262487411L35.1,14.088266918063155L35.64,-12.439477986097357L36.18,11.66791600883005L36.720000000000006,-19.559446147084245L37.260000000000005,27.19585617780684L37.800000000000004,9.290996024012545L38.339999999999996,30.638537199795223L38.879999999999995,16.73772914111612L39.419999999999995,85.14842448532582L39.96,6.175728344917283L40.5,9.174000674486152L41.04,6.59808089733123L41.58,26.27169621884822L42.12,26.775393837690345L42.660000000000004,34.06509646922349L43.2,46.009886467456795L43.74,35.52495578080415L44.28,35.182981209456905L44.82,39.33652492016552L45.36,22.133911603689185L45.900000000000006,45.73920147269963L46.44,23.018267208337775L46.98,63.798520544171325L47.519999999999996,44.878638365864745L48.059999999999995,36.79099140465259L48.6,30.56990710794925L49.14,35.99376139938829L49.68,31.07047268897294L50.22,49.21059833616016L50.76,71.95321509391067L51.3,37.59621085375545L51.84,88.16165366917848L52.38,47.19386270046232L52.92,35.76261700838802L53.46,44.389436037838436L54,53.35994401723145L54.540000000000006,73.91495873928068L55.08,64.17447497844695L55.62,86.66818814128638L56.16,45.82012893408536L56.699999999999996,48.18223492950199L57.239999999999995,52.968779967725254L57.78,43.952599184215046L58.32,74.97103793323039L58.86,60.07345059663056L59.4,70.53891869038341L59.94,51.209937424957744L60.480000000000004,109.70099644511939L61.02,59.62987711429595L61.56,52.22695955783128L62.1,76.17126779407262L62.64,62.61468717604874L63.18000000000001,65.48300741016864L63.72,60.0792201399803L64.25999999999999,90.67952634543181L64.8,79.19536569863557L65.34,68.66702606678008L65.88,84.19091107100246L66.42,63.5282531544566L66.96,96.30660043805837L67.5,63.94557246714829L68.04,97.0837854012847L68.58,89.65020684301854L69.12,69.55132672339677L69.66,75.11114442497491L70.2,71.08101399391889L70.74000000000001,83.42159466594457L71.28,83.01999049037693L71.82000000000001,101.73904860168696L72.36,86.33025774508715L72.9,119.38454305529594L73.44000000000001,95.03234458863736L73.98,80.71520628184078L74.52000000000001,84.08616913259027L75.06,90.8265672788024L75.60000000000001,90.95866234749555L76.13999999999999,94.8984362348914L76.67999999999999,115.89980480968951L77.22,101.94176288098096L77.75999999999999,82.88701625317334L78.3,92.43036845475436L78.83999999999999,87.10034342259169L79.38,96.72749137282372L79.92,90.10373690873385L80.46,99.5403470635414L81,83.0436401233077L81.53999999999999,132.63790944367648L82.08,110.06814820468425L82.62,85.80693268924952L83.16,112.16763557642697L83.7,100.94996189475059L84.24,109.62833316773177L84.78,112.37811950743199L85.32000000000001,126.76270652338863L85.86,110.0468613371253L86.4,108.38940890282392L86.94,120.19524631798267L87.48,103.13549788445233L88.02000000000001,128.0509466469288L88.56,112.97010762393475L89.10000000000001,121.52663713097573L89.64,112.67905888855458L90.18,100.50355309396983L90.72,114.2932892009616L91.26,106.38512449115515L91.80000000000001,114.5415114402771L92.34,121.80140476450323L92.88,133.362212421L93.41999999999999,122.90909115001558L93.96,144.53298246264458L94.5,126.00429180786014L95.03999999999999,121.99876710548997L95.58,114.67226577699185L96.11999999999999,120.13699041455983L96.66,133.5540854535997L97.2,117.570027166605L97.74,142.99406941756607L98.28,126.05726171061397L98.82,122.34267035275697L99.36,128.80116861090065L99.9,118.32716708779334L100.44,128.78478860259057L100.98,118.91894640177489L101.52,131.10239218696952L102.06,131.05292796865106L102.6,147.88606522381306L103.14,125.90463256239892L103.68,109.7396359011531L104.22,129.0031301021576L104.76,116.375292108953L105.3,124.43906415030361L105.84,136.54236823096872L106.38000000000001,138.1255638949573L106.92,121.6788651585579L107.46000000000001,124.36713168174029L108,134.73461095020176L108.54,116.03109763711691L109.08000000000001,141.52906147539616L109.62,128.83110429868103L110.16,137.40550840049983L110.69999999999999,130.84291109591723L111.24,116.33370743840932L111.78,132.2051112703979L112.32,125.47475212961436L112.86,128.77176042422653L113.39999999999999,128.65782568007708L113.94,140.64431573972107L114.47999999999999,129.36100113913417L115.02,150.53963206484914L115.56,135.6897615991533L116.1,132.98734595775605L116.64,133.68522992134095L117.17999999999999,133.5714710108936L117.72,143.29793752878905L118.26,136.08705784901977L118.8,149.90075129792095L119.34,132.22866749167443L119.88,132.9734825693071L120.42,135.98362916857005L120.96000000000001,127.78170129060744L121.5,133.09265935570002L122.04,134.16014576107264L122.58,144.50442597046495L123.12,137.5694843173027L123.66000000000001,158.4423953831196L124.2,129.72513075694442L124.74000000000001,121.08711331859232L125.28,132.96894386187196L125.82000000000001,127.1481449879706L126.36000000000001,134.1746795155108L126.89999999999999,139.98425800129772L127.44,145.06961593180895L127.97999999999999,140.9500740632415L128.51999999999998,131.42326121926308L129.06,143.28854691013694L129.6,132.48477477356792L130.14,145.16918176561595L130.68,139.41293583959342L131.22,146.4213759802282L131.76,133.99224105998874L132.3,122.86134680509568L132.84,137.4194706954062L133.38,131.32209639772773L133.92,135.29406433701516L134.46,140.32306756600738L135,147.98798283338547L135.54,136.11591655537487L136.08,160.89540190771223L136.62,146.41532620191575L137.16,144.5476590819657L137.7,146.54809163659812L138.24,148.28278451934457L138.78,155.54472740516067L139.32,148.14956301599742L139.86,159.71999756768346L140.4,144.55415393933654L140.94,143.294816480577L141.48000000000002,150.16483703404666L142.02,140.2622455894947L142.56,146.59841853901744L143.1,147.7286665864289L143.64000000000001,155.3186492227018L144.18,154.12144699841738L144.72,163.3414080530405L145.26000000000002,149.40980162248016L145.8,133.27719682604075L146.34,144.66930303499103L146.88000000000002,142.36774427592755L147.42000000000002,150.03856096193195L147.96,150.42992282435299L148.5,154.76760837957264L149.04000000000002,152.24896643087268L149.58,145.13924058303238L150.12,153.32290922999383L150.66000000000003,149.16359048113227L151.20000000000002,155.45548630654812L151.74,153.219535497576L152.27999999999997,156.51401068791748L152.82,152.87137927263976L153.35999999999999,142.49310821071268L153.89999999999998,148.75405180975795L154.44,146.52566734477878L154.98,149.33773178383709L155.51999999999998,149.2762998841703L156.06,158.5656822822988L156.6,147.1177983261645L157.14,167.12746207378805L157.67999999999998,155.4801909416914L158.22,152.5856659911573L158.76,149.31216446459294L159.29999999999998,155.02595754116774L159.84,157.96626519188285L160.38,156.90128441676498L160.92,164.28363492488862L161.45999999999998,150.75547342896462L162,146.99057165309787L162.54,150.74702242165804L163.07999999999998,149.0803222335875L163.62,152.08269368633628L164.16,151.2114926405251L164.7,158.67146823331714L165.24,153.1555869780481L165.78,177.07697364278138L166.32,155.02486957013608L166.85999999999999,144.37864992544056L167.4,156.28417955487967L167.94,147.80579164400697L168.48,154.17552135661245L169.02,154.2846151791513L169.56,160.7635760843754L170.1,151.3061131514609L170.64000000000001,151.94913150519133L171.18,155.303115414083L171.72,149.24511138126255L172.26,160.67564274892212L172.8,146.80975965932012L173.34,156.50710372030736L173.88,154.50462709888816L174.42000000000002,151.2483407907188L174.96,156.73610513806344L175.5,148.0325731612742L176.04000000000002,154.59728596508504L176.58,156.08249829858542L177.12,163.73753940463067L177.66,152.50180979967118L178.20000000000002,168.07347486503423L178.74,156.81169714555145L179.28,155.85527170225978L179.82000000000002,157.33779707700015L180.36,160.8848958440125L180.9,161.79948935061694L181.44,154.88025184497238L181.98000000000002,163.15333192944527L182.52,152.9943694524467L183.06,155.00087925940753L183.60000000000002,158.42597691118718L184.14000000000001,147.1137431614101L184.68,157.81488336399198L185.22000000000003,151.63828499391676L185.76,161.0598393879831L186.29999999999998,155.0107314415276L186.83999999999997,177.79032547734678L187.38,159.89827645719052L187.92,150.18486559167505L188.45999999999998,159.50882678627968L189,152.16293979212642L189.54,162.45180491134525L190.07999999999998,156.46791478395463L190.61999999999998,166.80849149599672L191.16,162.65918977335096L191.7,159.14642253667117L192.23999999999998,161.52493601441384L192.78,161.99518676623703L193.32,167.35201544836164L193.85999999999999,158.32204270884395L194.4,166.480064361915L194.94,164.40951537117363L195.48,159.8338828586042L196.01999999999998,161.42407890185714L196.56,158.29851945638657L197.1,162.72957820221782L197.64,160.87231823951007L198.18,170.19337817803026L198.72,164.4086911506951L199.26,174.6345638461411L199.8,163.49186125919223L200.34,161.72043561711908L200.88,162.48860910311342L201.42,165.76076440289617L201.96,169.11740779653192L202.5,159.6444879822433L203.04,171.56433981619776L203.58,162.26647069454194L204.12,164.03802821189166L204.66,162.80458776056767L205.2,161.68629091009498L205.74,161.89498903006316L206.28,163.51462073400617L206.82,165.51210257932544L207.36,166.73418527245522L207.9,173.807977854833L208.44,164.96325965747238L208.98000000000002,156.2909656368196L209.52,163.65937033444644L210.06,159.7829130642116L210.6,163.99960305318237L211.14000000000001,163.2421883918345L211.68,168.45524005368353L212.22,158.72371282204986L212.76000000000002,162.873140925169L213.3,165.33023558333517L213.84,163.7962953351438L214.38000000000002,168.95628368258477L214.92000000000002,163.06475020721555L215.46,166.70077137425542L216,162.98531183749438L216.54000000000002,163.29518576860428L217.08,163.53731427118183L217.62,159.1016783542931L218.16000000000003,163.3579529054463L218.70000000000002,164.3679636694491L219.24,171.79452536404133L219.77999999999997,162.5913234591484L220.32,176.5732595395297L220.85999999999999,168.26396870203317L221.39999999999998,165.70586032941938L221.94,164.39421783909202L222.48,167.24811696223915L223.01999999999998,172.15950667634607L223.56,164.022642762959L224.1,172.90284090451897L224.64,166.0376695148647L225.17999999999998,164.14084696918727L225.72,164.01391701549292L226.26,161.62248525545002L226.79999999999998,164.2785192631185L227.34,162.55655783936382L227.88,167.3671124201268L228.42,167.1486994881183L228.95999999999998,184.82740453220904L229.5,166.2745889440179L230.04,158.95289556831122L230.57999999999998,167.581530630216L231.12,161.4466075949371L231.66,165.5929641030729L232.2,165.85486840233207L232.74,170.2776657115668L233.28,165.55842926502228L233.82,164.05438624098898L234.35999999999999,167.14033914506436L234.9,166.29771657064558L235.44,171.94775069840253L235.98,166.33504276871682L236.52,167.92765927277506L237.06,161.82248510196806L237.6,163.51897261813284L238.14000000000001,165.7028052188456L238.68,163.33420436605812L239.22,166.87922609746457L239.76,165.86861090511084L240.3,173.28794143870473L240.84,164.5117901429534L241.38,177.35507936924697L241.92000000000002,170.40512316636742L242.46,166.86800296194852" style="fill: none;" fill="none"></path></g></g></g></g></g></g><g transform="translate(60, 177)" clip-path="url(#clip_1)"><clipPath id="clip_1"><rect width="270" height="22"></rect></clipPath><g><g><line x1="0" y1="0" x2="0" y2="5" style="visibility: inherit;" fill="rgb(0, 0, 0)" stroke="rgb(204, 204, 204)" stroke-width="1px"></line><line x1="27" y1="0" x2="27" y2="5" style="visibility: inherit;" fill="rgb(0, 0, 0)" stroke="rgb(204, 204, 204)" stroke-width="1px"></line><line x1="54" y1="0" x2="54" y2="5" style="visibility: inherit;" fill="rgb(0, 0, 0)" stroke="rgb(204, 204, 204)" stroke-width="1px"></line><line x1="81" y1="0" x2="81" y2="5" style="visibility: inherit;" fill="rgb(0, 0, 0)" stroke="rgb(204, 204, 204)" stroke-width="1px"></line><line x1="108" y1="0" x2="108" y2="5" style="visibility: inherit;" fill="rgb(0, 0, 0)" stroke="rgb(204, 204, 204)" stroke-width="1px"></line><line x1="135" y1="0" x2="135" y2="5" style="visibility: inherit;" fill="rgb(0, 0, 0)" stroke="rgb(204, 204, 204)" stroke-width="1px"></line><line x1="162" y1="0" x2="162" y2="5" style="visibility: inherit;" fill="rgb(0, 0, 0)" stroke="rgb(204, 204, 204)" stroke-width="1px"></line><line x1="189" y1="0" x2="189" y2="5" style="visibility: inherit;" fill="rgb(0, 0, 0)" stroke="rgb(204, 204, 204)" stroke-width="1px"></line><line x1="216" y1="0" x2="216" y2="5" style="visibility: inherit;" fill="rgb(0, 0, 0)" stroke="rgb(204, 204, 204)" stroke-width="1px"></line><line x1="243" y1="0" x2="243" y2="5" style="visibility: inherit;" fill="rgb(0, 0, 0)" stroke="rgb(204, 204, 204)" stroke-width="1px"></line><line x1="270" y1="0" x2="270" y2="5" style="visibility: inherit;" fill="rgb(0, 0, 0)" stroke="rgb(204, 204, 204)" stroke-width="1px"></line></g><g transform="translate(0, 8)"><text x="0" y="0" dx="0em" dy="0.95em" style="text-anchor: middle; visibility: hidden; font-family: Roboto, sans-serif; font-size: 12px; font-weight: 200;" fill="rgb(33, 33, 33)" stroke="none" stroke-width="1px">-5k</text><text x="27" y="0" dx="0em" dy="0.95em" style="text-anchor: middle; visibility: inherit; font-family: Roboto, sans-serif; font-size: 12px; font-weight: 200;" fill="rgb(33, 33, 33)" stroke="none" stroke-width="1px">0</text><text x="54" y="0" dx="0em" dy="0.95em" style="text-anchor: middle; visibility: inherit; font-family: Roboto, sans-serif; font-size: 12px; font-weight: 200;" fill="rgb(33, 33, 33)" stroke="none" stroke-width="1px">5k</text><text x="81" y="0" dx="0em" dy="0.95em" style="text-anchor: middle; visibility: inherit; font-family: Roboto, sans-serif; font-size: 12px; font-weight: 200;" fill="rgb(33, 33, 33)" stroke="none" stroke-width="1px">10k</text><text x="108" y="0" dx="0em" dy="0.95em" style="text-anchor: middle; visibility: inherit; font-family: Roboto, sans-serif; font-size: 12px; font-weight: 200;" fill="rgb(33, 33, 33)" stroke="none" stroke-width="1px">15k</text><text x="135" y="0" dx="0em" dy="0.95em" style="text-anchor: middle; visibility: inherit; font-family: Roboto, sans-serif; font-size: 12px; font-weight: 200;" fill="rgb(33, 33, 33)" stroke="none" stroke-width="1px">20k</text><text x="162" y="0" dx="0em" dy="0.95em" style="text-anchor: middle; visibility: inherit; font-family: Roboto, sans-serif; font-size: 12px; font-weight: 200;" fill="rgb(33, 33, 33)" stroke="none" stroke-width="1px">25k</text><text x="189" y="0" dx="0em" dy="0.95em" style="text-anchor: middle; visibility: inherit; font-family: Roboto, sans-serif; font-size: 12px; font-weight: 200;" fill="rgb(33, 33, 33)" stroke="none" stroke-width="1px">30k</text><text x="216" y="0" dx="0em" dy="0.95em" style="text-anchor: middle; visibility: inherit; font-family: Roboto, sans-serif; font-size: 12px; font-weight: 200;" fill="rgb(33, 33, 33)" stroke="none" stroke-width="1px">35k</text><text x="243" y="0" dx="0em" dy="0.95em" style="text-anchor: middle; visibility: inherit; font-family: Roboto, sans-serif; font-size: 12px; font-weight: 200;" fill="rgb(33, 33, 33)" stroke="none" stroke-width="1px">40k</text><text x="270" y="0" dx="0em" dy="0.95em" style="text-anchor: middle; visibility: hidden; font-family: Roboto, sans-serif; font-size: 12px; font-weight: 200;" fill="rgb(33, 33, 33)" stroke="none" stroke-width="1px">45k</text></g><line x1="0" y1="0" x2="270" y2="0" fill="rgb(0, 0, 0)" stroke="rgb(204, 204, 204)" stroke-width="1px"></line></g></g></g></g></svg>