<svg viewBox="0 0 330 200" xmlns="http://www.w3.org/2000/svg"><g><g><g><g><g><line x1="50" y1="177" x2="45" y2="177" style="visibility: inherit;" fill="rgb(0, 0, 0)" stroke="rgb(204, 204, 204)" stroke-width="1px"></line><line x1="50" y1="151.71428571428572" x2="45" y2="151.71428571428572" style="visibility: inherit;" fill="rgb(0, 0, 0)" stroke="rgb(204, 204, 204)" stroke-width="1px"></line><line x1="50" y1="126.42857142857144" x2="45" y2="126.42857142857144" style="visibility: inherit;" fill="rgb(0, 0, 0)" stroke="rgb(204, 204, 204)" stroke-width="1px"></line><line x1="50" y1="101.14285714285714" x2="45" y2="101.14285714285714" style="visibility: inherit;" fill="rgb(0, 0, 0)" stroke="rgb(204, 204, 204)" stroke-width="1px"></line><line x1="50" y1="75.85714285714286" x2="45" y2="75.85714285714286" style="visibility: inherit;" fill="rgb(0, 0, 0)" stroke="rgb(204, 204, 204)" stroke-width="1px"></line><line x1="50" y1="50.57142857142859" x2="45" y2="50.57142857142859" style="visibility: inherit;" fill="rgb(0, 0, 0)" stroke="rgb(204, 204, 204)" stroke-width="1px"></line><line x1="50" y1="25.285714285714313" x2="45" y2="25.285714285714313" style="visibility: inherit;" fill="rgb(0, 0, 0)" stroke="rgb(204, 204, 204)" stroke-width="1px"></line><line x1="50" y1="0" x2="45" y2="0" style="visibility: inherit;" fill="rgb(0, 0, 0)" stroke="rgb(204, 204, 204)" stroke-width="1px"></line></g><g transform="translate(40, 0)"><text x="0" y="177" dx="0em" dy="0.3em" style="text-anchor: end; visibility: hidden; font-family: Roboto, sans-serif; font-size: 12px; font-weight: 200;" fill="rgb(33, 33, 33)" stroke="none" stroke-width="1px">0.05</text><text x="0" y="151.71428571428572" dx="0em" dy="0.3em" style="text-anchor: end; visibility: inherit; font-family: Roboto, sans-serif; font-size: 12px; font-weight: 200;" fill="rgb(33, 33, 33)" stroke="none" stroke-width="1px">0.1</text><text x="0" y="126.42857142857144" dx="0em" dy="0.3em" style="text-anchor: end; visibility: inherit; font-family: Roboto, sans-serif; font-size: 12px; font-weight: 200;" fill="rgb(33, 33, 33)" stroke="none" stroke-width="1px">0.15</text><text x="0" y="101.14285714285714" dx="0em" dy="0.3em" style="text-anchor: end; visibility: inherit; font-family: Roboto, sans-serif; font-size: 12px; font-weight: 200;" fill="rgb(33, 33, 33)" stroke="none" stroke-width="1px">0.2</text><text x="0" y="75.85714285714286" dx="0em" dy="0.3em" style="text-anchor: end; visibility: inherit; font-family: Roboto, sans-serif; font-size: 12px; font-weight: 200;" fill="rgb(33, 33, 33)" stroke="none" stroke-width="1px">0.25</text><text x="0" y="50.57142857142859" dx="0em" dy="0.3em" style="text-anchor: end; visibility: inherit; font-family: Roboto, sans-serif; font-size: 12px; font-weight: 200;" fill="rgb(33, 33, 33)" stroke="none" stroke-width="1px">0.3</text><text x="0" y="25.285714285714313" dx="0em" dy="0.3em" style="text-anchor: end; visibility: inherit; font-family: Roboto, sans-serif; font-size: 12px; font-weight: 200;" fill="rgb(33, 33, 33)" stroke="none" stroke-width="1px">0.35</text><text x="0" y="0" dx="0em" dy="0.3em" style="text-anchor: end; visibility: hidden; font-family: Roboto, sans-serif; font-size: 12px; font-weight: 200;" fill="rgb(33, 33, 33)" stroke="none" stroke-width="1px">0.4</text></g><line x1="50" y1="0" x2="50" y2="177" fill="rgb(0, 0, 0)" stroke="rgb(204, 204, 204)" stroke-width="1px"></line></g></g><g transform="translate(50, 0)" clip-path="url(#clip_0)"><clipPath id="clip_0"><rect width="280" height="176"></rect></clipPath><g><g><g><line x1="0" y1="0" x2="0" y2="177" fill="rgb(0, 0, 0)" stroke="rgb(66, 66, 66)" stroke-width="1px" opacity="0.25"></line><line x1="40" y1="0" x2="40" y2="177" fill="rgb(0, 0, 0)" stroke="rgb(66, 66, 66)" stroke-width="1px" opacity="0.25"></line><line x1="80" y1="0" x2="80" y2="177" fill="rgb(0, 0, 0)" stroke="rgb(66, 66, 66)" stroke-width="1px" opacity="0.25"></line><line x1="120" y1="0" x2="120" y2="177" fill="rgb(0, 0, 0)" stroke="rgb(66, 66, 66)" stroke-width="1px" opacity="0.25"></line><line x1="160" y1="0" x2="160" y2="177" fill="rgb(0, 0, 0)" stroke="rgb(66, 66, 66)" stroke-width="1px" opacity="0.25"></line><line x1="200" y1="0" x2="200" y2="177" fill="rgb(0, 0, 0)" stroke="rgb(66, 66, 66)" stroke-width="1px" opacity="0.25"></line><line x1="240" y1="0" x2="240" y2="177" fill="rgb(0, 0, 0)" stroke="rgb(66, 66, 66)" stroke-width="1px" opacity="0.25"></line><line x1="280" y1="0" x2="280" y2="177" fill="rgb(0, 0, 0)" stroke="rgb(66, 66, 66)" stroke-width="1px" opacity="0.25"></line></g><g><line x1="0" y1="177" x2="280" y2="177" fill="rgb(0, 0, 0)" stroke="rgb(66, 66, 66)" stroke-width="1px" opacity="0.25"></line><line x1="0" y1="151.71428571428572" x2="280" y2="151.71428571428572" fill="rgb(0, 0, 0)" stroke="rgb(66, 66, 66)" stroke-width="1px" opacity="0.25"></line><line x1="0" y1="126.42857142857144" x2="280" y2="126.42857142857144" fill="rgb(0, 0, 0)" stroke="rgb(66, 66, 66)" stroke-width="1px" opacity="0.25"></line><line x1="0" y1="101.14285714285714" x2="280" y2="101.14285714285714" fill="rgb(0, 0, 0)" stroke="rgb(66, 66, 66)" stroke-width="1px" opacity="0.25"></line><line x1="0" y1="75.85714285714286" x2="280" y2="75.85714285714286" fill="rgb(0, 0, 0)" stroke="rgb(66, 66, 66)" stroke-width="1px" opacity="0.25"></line><line x1="0" y1="50.57142857142859" x2="280" y2="50.57142857142859" fill="rgb(0, 0, 0)" stroke="rgb(66, 66, 66)" stroke-width="1px" opacity="0.25"></line><line x1="0" y1="25.285714285714313" x2="280" y2="25.285714285714313" fill="rgb(0, 0, 0)" stroke="rgb(66, 66, 66)" stroke-width="1px" opacity="0.25"></line><line x1="0" y1="0" x2="280" y2="0" fill="rgb(0, 0, 0)" stroke="rgb(66, 66, 66)" stroke-width="1px" opacity="0.25"></line></g></g></g><g><g><line x1="0" y1="202.28571428571428" x2="280" y2="202.28571428571428" fill="rgb(0, 0, 0)" stroke="rgb(153, 153, 153)" stroke-width="1.5px"></line></g></g><g><g><line x1="40" y1="0" x2="40" y2="177" fill="rgb(0, 0, 0)" stroke="rgb(153, 153, 153)" stroke-width="1.5px"></line></g></g><g><g><g><g><g><path stroke="rgb(255, 112, 67)" stroke-width="2px" d="M45.6,-24.80811234915073L46.4,17.077579759365754L47.199999999999996,1.9935710147769536L48,1.8234978711903471L48.800000000000004,34.92601731122234L49.599999999999994,67.84095885851805L50.4,37.85692687920438L51.2,46.1690019725742L52,21.081635002198254L52.800000000000004,23.199366410613788L53.599999999999994,24.358265829850836L54.4,-10.452104420052194L55.2,38.46088808616226L56,27.62123133135242L56.8,53.18809242515417L57.6,72.25730526806245L58.4,51.52985760046545L59.2,31.178477212999788L60,66.77336917232503L60.8,53.92546418930288L61.6,56.71156046960711L62.400000000000006,57.00466634379937L63.199999999999996,72.66172310273714L64,72.0033167986876L64.8,68.20317177434356L65.60000000000001,87.5414196659063L66.4,96.7706489351574L67.2,78.58784171684538L68,49.802519427471545L68.8,19.825416061571683L69.60000000000001,-13.15476642550376L70.4,32.29170610002124L71.2,33.117547590167675L72,60.08428181958435L72.8,39.77342954089539L73.6,46.06968883259561L74.4,24.74551150181097L75.2,54.59134302010776L76,59.07513846212022L76.8,38.183433556433755L77.6,42.539110579514684L78.4,67.44812270853434L79.2,89.47242603147342L80,106.7420959150864L80.80000000000001,108.75465856393068L81.6,90.85931329110907L82.39999999999999,103.64410087148912L83.2,92.12967679905505L84,110.43344714476498L84.80000000000001,101.34919349775521L85.6,110.44210302402472L86.39999999999999,113.01907625963817L87.2,108.79878087911732L88,109.39687358695785L88.8,69.08533363300464L89.60000000000001,104.76330750780936L90.39999999999999,124.63654664515052L91.2,141.92298197363974L92,117.2469432262915L92.8,124.04974869454219L93.60000000000001,109.65388811056121L94.39999999999999,117.46155032002085L95.2,130.41692339810479L96,146.4553676571414L96.8,140.5203919417667L76,128.16170689079635L76.8,104.28260156111573L77.6,106.63926286712423L78.4,114.06677829070259L79.2,93.6625944647649L80,116.14301931785016L80.80000000000001,112.15254014516327L81.6,115.34005231899123L82.39999999999999,123.2241343895833L83.2,100.47042559284552L84,110.7736351821168L84.80000000000001,108.92721112739534L85.6,97.37213699919873L86.39999999999999,46.7637100273543L87.2,64.43874627844961L88,95.76024361804154L88.8,47.260706069201404L89.60000000000001,56.22599388317647L90.39999999999999,67.29211982666995L91.2,88.061482225194L92,81.03064065663652L92.8,113.47101348844635L93.60000000000001,134.71326708065806L94.39999999999999,130.20000985594424L95.2,113.02406866492787L96,102.3964871321352L96.8,123.898602271758L97.60000000000001,91.7237579015985L98.4,120.14917697835534L99.19999999999999,133.68603221714494L100,112.96172927871773L100.8,122.2097187735251L101.60000000000001,85.2063727454056L102.4,103.02151238007175L103.19999999999999,120.87907244442175L104,103.10277185418599L104.8,76.82920738207333L105.60000000000001,81.94293852621253L106.4,67.47632002474371L107.19999999999999,103.84673238097814L108,127.20607732542439L108.8,143.8972211460187L109.6,115.53274456483463L110.4,123.28003661186048L111.2,82.02487371517407L112,95.93107509534043L112.8,69.17516469908048L113.6,107.34195756372895L114.4,91.34907378145593L115.2,101.00685054721129L116.00000000000001,104.73594284622317L116.8,123.34376657858843L117.6,132.84556783777262L118.4,129.2869604883811L119.2,146.48194073530223L120,138.0487641575041L120.8,126.74070406449452L121.6,124.0662832289494L122.4,140.94823404726725L123.2,122.29212583477278L124,141.5128906059477L124.80000000000001,131.60007232272193L125.6,126.9409037836151L126.39999999999999,147.95755616983598L127.2,158.23580431863732L128,164.07988108437016L128.8,117.7412894493216L129.6,129.04160609654969L130.4,117.74684859998456L131.20000000000002,135.75527713112493L132,148.87323217893262L132.8,139.95977003670788L133.6,149.74808831647414L134.4,115.11039144775496L135.20000000000002,113.64088497235828L136,119.19856192020109L136.79999999999998,117.44363545812259L137.6,107.2843104260816L138.4,127.88475062168988L139.20000000000002,148.9585508057232L140,154.22656290396017L140.8,155.49148446546943L141.6,159.04828970567553L142.4,134.5554478156168L143.20000000000002,110.28456068646217L144,134.73527474086552L144.79999999999998,143.90424191455116L145.6,154.9618026746175L146.4,158.53401359771004L147.2,149.5384579913788L148,124.33449500389447L148.8,113.88208450514321L149.6,123.49151718230564L150.4,105.04118953200802L151.20000000000002,102.83283066951239L152,127.06658380322884L152.8,98.87206151115267L153.6,123.88122347609622L154.39999999999998,132.80905938771363L155.2,129.62502820184315L156,109.53254461648922L156.8,75.38715589603359L157.6,61.514870936465286L158.4,79.6367852639764L159.20000000000002,118.17026445832649L160,142.91735980848551L160.8,111.49118457656293L161.60000000000002,119.04081029972718L162.39999999999998,131.26259480797307L163.2,129.7118777106331L164,146.79458687893737L164.79999999999998,142.01392290877044L165.6,134.16384025063445L166.4,132.14224073676067L167.20000000000002,125.42046338976674L168,110.9342813309846L168.8,136.31348422695675L169.60000000000002,131.2639553757279L170.39999999999998,142.26692799399905L171.2,154.7478681374399L172,151.38996804085508L172.79999999999998,124.00127180498833L173.6,113.38933321456737L174.4,135.1571996572566L175.2,145.61813634924093L176,158.42717862132957L176.8,165.93561982770171L177.6,165.73446587461729L178.4,126.11326234184803L179.20000000000002,136.61470455825474L180,148.84872448810597L180.79999999999998,124.62055542688762L181.6,118.40280460830108L182.4,141.7168246095598L183.2,123.46627176741652L184,121.98274318710332L184.8,99.19113880766083L185.6,79.55651691011748L186.4,117.0598443254106L187.20000000000002,122.52543520697448L187.99999999999997,97.5202075467616L188.79999999999998,120.77008570247692L189.6,113.00085386131201L190.4,131.3613906736527L191.2,144.83930571630577L192,160.28068767299385L192.8,154.12068216985543L193.6,145.51217711559582L194.4,117.53996692397045L195.20000000000002,108.42582867833966L196,125.31858785497373L196.8,95.39227358684418L197.6,114.72936185708929L198.39999999999998,122.29757422343238L199.2,140.12161702168618L200,112.78416696256267L200.8,129.37039833874454L201.6,114.29766252660465L202.4,107.18618223425831L203.20000000000002,127.04935289238148L204,146.49756115819707L204.8,152.25696808867784L205.60000000000002,128.1985855880907L206.39999999999998,123.9363425789962L207.2,138.67463522409395L208,92.82329538616538L208.79999999999998,81.90458362278852L209.6,43.25496247737967L210.4,64.43526712767189L211.20000000000002,94.64322677508706L212,97.04248622723138L212.8,128.5920122765422L213.60000000000002,109.26630548852206L214.39999999999998,130.47453543928918L215.2,126.13116834309577L216,115.5637396746262L216.79999999999998,128.09736700580535L217.6,127.71267256232852L218.4,111.79992019419097L219.2,136.04233856200284L220,143.67706616469258L220.8,152.53464205966358L221.60000000000002,156.54312801475334L222.4,164.52738703472704L223.2,147.78751984007278L224,142.96463968700155L224.79999999999998,154.51833193678675L225.6,122.79823831171065L226.4,141.58395723287708L227.2,150.33495514264374L228,151.24102764869986L228.8,160.22553963645595L229.6,151.04949895508807L230.4,104.36781037856346L231.20000000000002,134.18655212186442L232.00000000000003,97.05170012562503L232.79999999999998,108.29272764354367L233.6,104.72700647456811L234.4,128.04466111115352L235.2,147.83668920615924L236,116.7207007923614L236.8,114.6420755525337L237.6,137.4647449908882L238.4,141.13645788267345L239.20000000000002,96.10870497366841L240,124.691934323811L240.79999999999998,147.38356720937355L241.6,154.0772418505221L242.4,158.65032051021618L243.2,165.53797525346562L244,167.2207836332168L244.8,156.26018145727872L245.6,133.0818305844361L246.4,154.09780096105217L247.20000000000002,158.78342810838595L248,163.97936636548744L248.8,114.42515938996462L249.60000000000002,125.19560193218018L250.39999999999998,113.8944937760324L251.2,100.49600798932853L252,118.92866278319444L252.79999999999998,113.95990093810406L253.6,106.43918031099977L254.4,105.20965860529013L255.20000000000002,128.63243067920453L256,133.9772586453146L256.8,125.0906319056009L257.6,97.55357215096596L258.4,126.50822700690398L259.2,114.92128605111854L260,80.35540916685626" style="fill: none;" fill="none"></path></g></g></g></g><g opacity="0.2"><g><g><g><path stroke="rgb(255, 112, 67)" stroke-width="2px" d="M40,-264.7528233187539L40.8,4.345325027193359L41.6,-40.396700876099715L42.400000000000006,-40.17159354686737L43.199999999999996,66.79286527633667L44,-0.5144070216587331L45.6,-50.3582729101181L46.4,78.8508397425924L47.199999999999996,-20.40442402022225L48,1.5699307067053827L48.800000000000004,84.39965402228492L49.599999999999994,117.10589818443572L50.4,-7.060379249708965L51.2,58.62734408038005L52,-16.531721898487632L52.800000000000004,26.375067370278504L53.599999999999994,26.096320714269368L54.4,-62.66235678536548L55.2,111.8259060042245L56,11.362340671675558L56.8,91.53754277740205L57.6,100.8607480440821L58.4,20.438931635447915L59.2,0.6515512807028803L60,120.1655553153583L60.8,34.65363958903723L61.6,60.89070061274937L62.400000000000006,57.44432488509587L63.199999999999996,96.1472995877266L64,71.01570756094797L64.8,62.50295499392918L65.60000000000001,116.54878919465202L66.4,110.61449217796326L67.2,51.31363167081561L68,6.624536735670919L68.8,-25.140238523483276L69.60000000000001,-62.625039849962484L70.4,100.46141463518143L71.2,34.35630982262748L72,100.53438310963767L72.8,9.307151147297464L73.6,55.51407776560103L74.4,-7.24075448513031L75.2,99.3600902897971L76,65.8008316244398L76.8,6.845876199858541L77.6,49.0726261138916L78.4,104.81164090122496L79.2,122.508881015437L80,132.64660074029652L80.80000000000001,111.7735025371824L81.6,64.01629538195475L82.39999999999999,122.82128224202566L83.2,74.85804069042206L84,137.88910266331266L84.80000000000001,87.72281302724566L85.6,124.08146731342589L86.39999999999999,116.88453611305782L87.2,102.46833780833653L88,110.2940126487187L88.8,8.618023702076517L89.60000000000001,158.2802683200155L90.39999999999999,154.44640535116196L91.2,167.85263496637344L92,80.2328851052693L92.8,134.25395689691817L93.60000000000001,88.06009723458972L94.39999999999999,129.17304363421033L95.2,149.84998301523072L96,170.51303404569626L96.8,131.61792836870467L76,109.62367931434086L76.8,68.4639435665948L77.6,110.174254826137L78.4,125.20805142607009L79.2,63.05631872585842L80,149.86365659747807L80.80000000000001,106.16682138613292L81.6,120.12132057973318L82.39999999999999,135.0502574954714L83.2,66.33986239773887L84,126.2284495660237L84.80000000000001,106.15757504531315L85.6,80.03952580690384L86.39999999999999,-29.148930430412292L87.2,90.95130065509252L88,142.74248962742942L88.8,-25.488600254058838L89.60000000000001,69.67392560413906L90.39999999999999,83.89130874191012L91.2,119.21552582298007L92,70.48437830380031L92.8,162.1315727361611L93.60000000000001,166.5766474689756L94.39999999999999,123.4301240188735L95.2,87.26015687840325L96,86.45511483294624L96.8,156.15177498119218L97.60000000000001,43.46149134635925L98.4,162.7873055934906L99.19999999999999,153.99131507532937L100,81.87527487107685L100.8,136.08170301573617L101.60000000000001,29.701353703226378L102.4,129.74422183207105L103.19999999999999,147.6654125409467L104,76.43832096883229L104.8,37.41886067390442L105.60000000000001,89.61353524242128L106.4,45.776392272540505L107.19999999999999,158.4023509153298L108,162.24509474209378L108.8,168.93393687691008L109.6,72.98602969305857L110.4,134.9009746823992L111.2,20.14212937014445L112,116.79037716559002L112.8,29.04129910469055L113.6,164.59214686070172L114.4,67.3597481080464L115.2,115.49351569584438L116.00000000000001,110.32958129474095L116.8,151.2555021771363L117.6,147.0982697265489L118.4,123.94904946429389L119.2,172.27441110568387L120,125.39899929080691L120.8,109.77861392498016L121.6,120.05465197563171L122.4,166.27116027474403L123.2,94.307963516031L124,170.34403776271003L124.80000000000001,116.73084489788329L125.6,119.95215097495489L126.39999999999999,179.4825347491673L127.2,173.65317654183934L128,172.84599623296944L128.8,48.233401996748796L129.6,145.9920810673918L130.4,100.80471235513687L131.20000000000002,162.76791992783546L132,168.55016475064414L132.8,126.5895768233708L133.6,164.4305657361235L134.4,63.15384614467621L135.20000000000002,111.43662525926317L136,127.53507734196526L136.79999999999998,114.81124576500484L137.6,92.04532287802016L138.4,158.78541091510226L139.20000000000002,180.56925108177322L140,162.12858105131556L140.8,157.38886680773328L141.6,164.38349756598473L142.4,97.8161849805287L143.20000000000002,73.87822999273028L144,171.41134582247054L144.79999999999998,157.6576926750796L145.6,171.54814381471704L146.4,163.89232998234885L147.2,136.04512458188194L148,86.52855052266803L148.8,98.20346875701631L149.6,137.9056661980493L150.4,77.36569805656161L151.20000000000002,99.52029237576893L152,163.4172135038035L152.8,56.58027807303837L153.6,161.3949664235115L154.39999999999998,146.20081325513976L155.2,124.8489814230374L156,79.39381923845836L156.8,24.169072815350138L157.6,40.706443497112836L158.4,106.81965675524303L159.20000000000002,175.97048324985164L160,180.03800283372402L160.8,64.35192172867912L161.60000000000002,130.36524888447354L162.39999999999998,149.59527157034194L163.2,127.38580206462316L164,172.4186506313937L164.79999999999998,134.8429269535201L165.6,122.38871626343047L166.4,129.10984146595L167.20000000000002,115.33779736927578L168,89.20500824281149L168.8,174.38228857091497L169.60000000000002,123.68966209888458L170.39999999999998,158.7713869214058L171.2,173.4692783526012L172,146.35311789597785L172.79999999999998,82.91822745118823L173.6,97.4714253289359L174.4,167.80899932129043L175.2,161.3095413872174L176,177.64074202946253L176.8,177.1982816372599L177.6,165.4327349449907L178.4,66.68145704269409L179.20000000000002,152.36686788286482L180,167.19975438288282L180.79999999999998,88.27830183506012L181.6,109.07617838042123L182.4,176.68785461144788L183.2,96.09044250420162L184,119.75745031663351L184.8,65.00373223849705L185.6,50.10458406380245L186.4,173.3148354483502L187.20000000000002,130.7238215293203L187.99999999999997,60.01236605644226L188.79999999999998,155.64490293604987L189.6,101.34700609956468L190.4,158.9021958921637L191.2,165.05617828028542L192,183.44276060802596L192.8,144.88067391514778L193.6,132.5994195342064L194.4,75.58165163653237L195.20000000000002,94.75462130989348L196,150.6577266199248L196.8,50.50280218464988L197.6,143.7349942624569L198.39999999999998,133.64989277294706L199.2,166.85768121906688L200,71.7779918738774L200.8,154.2497454030173L201.6,91.68855880839484L202.4,96.51896179573876L203.20000000000002,156.8441088795662L204,175.66987355692046L204.8,160.896078484399L205.60000000000002,92.11101183720999L206.39999999999998,117.54297806535449L207.2,160.78207419174058L208,24.04628562927246L208.79999999999998,65.52651597772326L209.6,-14.719469240733561L210.4,96.20572410311019L211.20000000000002,139.95516624620984L212,100.64137540544783L212.8,175.91630135050843L213.60000000000002,80.27774530649185L214.39999999999998,162.28688036543983L215.2,119.61611769880568L216,99.71259667192186L216.79999999999998,146.89780800257412L217.6,127.13563089711326L218.4,87.93079164198467L219.2,172.40596611372064L220,155.12915756872724L220.8,165.82100590212005L221.60000000000002,162.55585694738795L222.4,176.5037755646876L223.2,122.67771904809135L224,135.73031945739476L224.79999999999998,171.84887031146457L225.6,75.21809787409646L226.4,169.76253561462676L227.2,163.4614520072937L228,152.60013640778405L228.8,173.7023076180901L229.6,137.28543793303626L230.4,34.34527751377651L231.20000000000002,178.91466473681587L232.00000000000003,41.34942213126593L232.79999999999998,125.1542689204216L233.6,99.37842472110475L234.4,163.0211430660316L235.2,177.5247313486678L236,70.04671817166465L236.8,111.52413769279207L237.6,171.69874914841992L238.4,146.64402722035138L239.20000000000002,28.567075610160828L240,167.56677834902493L240.79999999999998,181.4210165377174L241.6,164.11775381224496L242.4,165.50993849975723L243.2,175.8694573683398L244,169.74499620284354L244.8,139.81927819337164L245.6,98.3143042751721L246.4,185.6217565259763L247.20000000000002,165.81186882938658L248,171.77327375113964L248.8,40.09384892668044L249.60000000000002,141.35126574550358L250.39999999999998,96.94283154181072L251.2,80.39827930927277L252,146.5776449739933L252.79999999999998,106.50675817046846L253.6,95.15809937034334L254.4,103.36537604672569L255.20000000000002,163.76658879007613L256,141.99450059447972L256.8,111.76069179603032L257.6,56.24798251901355L258.4,169.940209290811L259.2,97.54087461744035L260,28.50659384046283" style="fill: none;" fill="none"></path></g></g></g></g></g></g><g transform="translate(50, 177)" clip-path="url(#clip_1)"><clipPath id="clip_1"><rect width="280" height="22"></rect></clipPath><g><g><line x1="0" y1="0" x2="0" y2="5" style="visibility: inherit;" fill="rgb(0, 0, 0)" stroke="rgb(204, 204, 204)" stroke-width="1px"></line><line x1="40" y1="0" x2="40" y2="5" style="visibility: inherit;" fill="rgb(0, 0, 0)" stroke="rgb(204, 204, 204)" stroke-width="1px"></line><line x1="80" y1="0" x2="80" y2="5" style="visibility: inherit;" fill="rgb(0, 0, 0)" stroke="rgb(204, 204, 204)" stroke-width="1px"></line><line x1="120" y1="0" x2="120" y2="5" style="visibility: inherit;" fill="rgb(0, 0, 0)" stroke="rgb(204, 204, 204)" stroke-width="1px"></line><line x1="160" y1="0" x2="160" y2="5" style="visibility: inherit;" fill="rgb(0, 0, 0)" stroke="rgb(204, 204, 204)" stroke-width="1px"></line><line x1="200" y1="0" x2="200" y2="5" style="visibility: inherit;" fill="rgb(0, 0, 0)" stroke="rgb(204, 204, 204)" stroke-width="1px"></line><line x1="240" y1="0" x2="240" y2="5" style="visibility: inherit;" fill="rgb(0, 0, 0)" stroke="rgb(204, 204, 204)" stroke-width="1px"></line><line x1="280" y1="0" x2="280" y2="5" style="visibility: inherit;" fill="rgb(0, 0, 0)" stroke="rgb(204, 204, 204)" stroke-width="1px"></line></g><g transform="translate(0, 8)"><text x="0" y="0" dx="0em" dy="0.95em" style="text-anchor: middle; visibility: hidden; font-family: Roboto, sans-serif; font-size: 12px; font-weight: 200;" fill="rgb(33, 33, 33)" stroke="none" stroke-width="1px">-5k</text><text x="40" y="0" dx="0em" dy="0.95em" style="text-anchor: middle; visibility: inherit; font-family: Roboto, sans-serif; font-size: 12px; font-weight: 200;" fill="rgb(33, 33, 33)" stroke="none" stroke-width="1px">0</text><text x="80" y="0" dx="0em" dy="0.95em" style="text-anchor: middle; visibility: inherit; font-family: Roboto, sans-serif; font-size: 12px; font-weight: 200;" fill="rgb(33, 33, 33)" stroke="none" stroke-width="1px">5k</text><text x="120" y="0" dx="0em" dy="0.95em" style="text-anchor: middle; visibility: inherit; font-family: Roboto, sans-serif; font-size: 12px; font-weight: 200;" fill="rgb(33, 33, 33)" stroke="none" stroke-width="1px">10k</text><text x="160" y="0" dx="0em" dy="0.95em" style="text-anchor: middle; visibility: inherit; font-family: Roboto, sans-serif; font-size: 12px; font-weight: 200;" fill="rgb(33, 33, 33)" stroke="none" stroke-width="1px">15k</text><text x="200" y="0" dx="0em" dy="0.95em" style="text-anchor: middle; visibility: inherit; font-family: Roboto, sans-serif; font-size: 12px; font-weight: 200;" fill="rgb(33, 33, 33)" stroke="none" stroke-width="1px">20k</text><text x="240" y="0" dx="0em" dy="0.95em" style="text-anchor: middle; visibility: inherit; font-family: Roboto, sans-serif; font-size: 12px; font-weight: 200;" fill="rgb(33, 33, 33)" stroke="none" stroke-width="1px">25k</text><text x="280" y="0" dx="0em" dy="0.95em" style="text-anchor: middle; visibility: hidden; font-family: Roboto, sans-serif; font-size: 12px; font-weight: 200;" fill="rgb(33, 33, 33)" stroke="none" stroke-width="1px">30k</text></g><line x1="0" y1="0" x2="280" y2="0" fill="rgb(0, 0, 0)" stroke="rgb(204, 204, 204)" stroke-width="1px"></line></g></g></g></g></svg>