<svg viewBox="0 0 330 200" xmlns="http://www.w3.org/2000/svg"><g><g><g><g><g><line x1="60" y1="177" x2="55" y2="177" style="visibility: inherit;" fill="rgb(0, 0, 0)" stroke="rgb(204, 204, 204)" stroke-width="1px"></line><line x1="60" y1="164.35714285714286" x2="55" y2="164.35714285714286" style="visibility: inherit;" fill="rgb(0, 0, 0)" stroke="rgb(204, 204, 204)" stroke-width="1px"></line><line x1="60" y1="151.7142857142857" x2="55" y2="151.7142857142857" style="visibility: inherit;" fill="rgb(0, 0, 0)" stroke="rgb(204, 204, 204)" stroke-width="1px"></line><line x1="60" y1="139.07142857142856" x2="55" y2="139.07142857142856" style="visibility: inherit;" fill="rgb(0, 0, 0)" stroke="rgb(204, 204, 204)" stroke-width="1px"></line><line x1="60" y1="126.42857142857142" x2="55" y2="126.42857142857142" style="visibility: inherit;" fill="rgb(0, 0, 0)" stroke="rgb(204, 204, 204)" stroke-width="1px"></line><line x1="60" y1="113.78571428571428" x2="55" y2="113.78571428571428" style="visibility: inherit;" fill="rgb(0, 0, 0)" stroke="rgb(204, 204, 204)" stroke-width="1px"></line><line x1="60" y1="101.14285714285714" x2="55" y2="101.14285714285714" style="visibility: inherit;" fill="rgb(0, 0, 0)" stroke="rgb(204, 204, 204)" stroke-width="1px"></line><line x1="60" y1="88.5" x2="55" y2="88.5" style="visibility: inherit;" fill="rgb(0, 0, 0)" stroke="rgb(204, 204, 204)" stroke-width="1px"></line><line x1="60" y1="75.85714285714285" x2="55" y2="75.85714285714285" style="visibility: inherit;" fill="rgb(0, 0, 0)" stroke="rgb(204, 204, 204)" stroke-width="1px"></line><line x1="60" y1="63.21428571428571" x2="55" y2="63.21428571428571" style="visibility: inherit;" fill="rgb(0, 0, 0)" stroke="rgb(204, 204, 204)" stroke-width="1px"></line><line x1="60" y1="50.57142857142855" x2="55" y2="50.57142857142855" style="visibility: inherit;" fill="rgb(0, 0, 0)" stroke="rgb(204, 204, 204)" stroke-width="1px"></line><line x1="60" y1="37.92857142857143" x2="55" y2="37.92857142857143" style="visibility: inherit;" fill="rgb(0, 0, 0)" stroke="rgb(204, 204, 204)" stroke-width="1px"></line><line x1="60" y1="25.285714285714274" x2="55" y2="25.285714285714274" style="visibility: inherit;" fill="rgb(0, 0, 0)" stroke="rgb(204, 204, 204)" stroke-width="1px"></line><line x1="60" y1="12.642857142857117" x2="55" y2="12.642857142857117" style="visibility: inherit;" fill="rgb(0, 0, 0)" stroke="rgb(204, 204, 204)" stroke-width="1px"></line><line x1="60" y1="0" x2="55" y2="0" style="visibility: inherit;" fill="rgb(0, 0, 0)" stroke="rgb(204, 204, 204)" stroke-width="1px"></line></g><g transform="translate(50, 0)"><text x="0" y="177" dx="0em" dy="0.3em" style="text-anchor: end; visibility: hidden; font-family: Roboto, sans-serif; font-size: 12px; font-weight: 200;" fill="rgb(33, 33, 33)" stroke="none" stroke-width="1px">8e-3</text><text x="0" y="164.35714285714286" dx="0em" dy="0.3em" style="text-anchor: end; visibility: inherit; font-family: Roboto, sans-serif; font-size: 12px; font-weight: 200;" fill="rgb(33, 33, 33)" stroke="none" stroke-width="1px">0.01</text><text x="0" y="151.7142857142857" dx="0em" dy="0.3em" style="text-anchor: end; visibility: hidden; font-family: Roboto, sans-serif; font-size: 12px; font-weight: 200;" fill="rgb(33, 33, 33)" stroke="none" stroke-width="1px">0.012</text><text x="0" y="139.07142857142856" dx="0em" dy="0.3em" style="text-anchor: end; visibility: inherit; font-family: Roboto, sans-serif; font-size: 12px; font-weight: 200;" fill="rgb(33, 33, 33)" stroke="none" stroke-width="1px">0.014</text><text x="0" y="126.42857142857142" dx="0em" dy="0.3em" style="text-anchor: end; visibility: hidden; font-family: Roboto, sans-serif; font-size: 12px; font-weight: 200;" fill="rgb(33, 33, 33)" stroke="none" stroke-width="1px">0.016</text><text x="0" y="113.78571428571428" dx="0em" dy="0.3em" style="text-anchor: end; visibility: inherit; font-family: Roboto, sans-serif; font-size: 12px; font-weight: 200;" fill="rgb(33, 33, 33)" stroke="none" stroke-width="1px">0.018</text><text x="0" y="101.14285714285714" dx="0em" dy="0.3em" style="text-anchor: end; visibility: hidden; font-family: Roboto, sans-serif; font-size: 12px; font-weight: 200;" fill="rgb(33, 33, 33)" stroke="none" stroke-width="1px">0.02</text><text x="0" y="88.5" dx="0em" dy="0.3em" style="text-anchor: end; visibility: inherit; font-family: Roboto, sans-serif; font-size: 12px; font-weight: 200;" fill="rgb(33, 33, 33)" stroke="none" stroke-width="1px">0.022</text><text x="0" y="75.85714285714285" dx="0em" dy="0.3em" style="text-anchor: end; visibility: hidden; font-family: Roboto, sans-serif; font-size: 12px; font-weight: 200;" fill="rgb(33, 33, 33)" stroke="none" stroke-width="1px">0.024</text><text x="0" y="63.21428571428571" dx="0em" dy="0.3em" style="text-anchor: end; visibility: inherit; font-family: Roboto, sans-serif; font-size: 12px; font-weight: 200;" fill="rgb(33, 33, 33)" stroke="none" stroke-width="1px">0.026</text><text x="0" y="50.57142857142855" dx="0em" dy="0.3em" style="text-anchor: end; visibility: hidden; font-family: Roboto, sans-serif; font-size: 12px; font-weight: 200;" fill="rgb(33, 33, 33)" stroke="none" stroke-width="1px">0.028</text><text x="0" y="37.92857142857143" dx="0em" dy="0.3em" style="text-anchor: end; visibility: inherit; font-family: Roboto, sans-serif; font-size: 12px; font-weight: 200;" fill="rgb(33, 33, 33)" stroke="none" stroke-width="1px">0.03</text><text x="0" y="25.285714285714274" dx="0em" dy="0.3em" style="text-anchor: end; visibility: hidden; font-family: Roboto, sans-serif; font-size: 12px; font-weight: 200;" fill="rgb(33, 33, 33)" stroke="none" stroke-width="1px">0.032</text><text x="0" y="12.642857142857117" dx="0em" dy="0.3em" style="text-anchor: end; visibility: inherit; font-family: Roboto, sans-serif; font-size: 12px; font-weight: 200;" fill="rgb(33, 33, 33)" stroke="none" stroke-width="1px">0.034</text><text x="0" y="0" dx="0em" dy="0.3em" style="text-anchor: end; visibility: hidden; font-family: Roboto, sans-serif; font-size: 12px; font-weight: 200;" fill="rgb(33, 33, 33)" stroke="none" stroke-width="1px">0.036</text></g><line x1="60" y1="0" x2="60" y2="177" fill="rgb(0, 0, 0)" stroke="rgb(204, 204, 204)" stroke-width="1px"></line></g></g><g transform="translate(60, 0)" clip-path="url(#clip_0)"><clipPath id="clip_0"><rect width="270" height="176"></rect></clipPath><g><g><g><line x1="0" y1="0" x2="0" y2="177" fill="rgb(0, 0, 0)" stroke="rgb(66, 66, 66)" stroke-width="1px" opacity="0.25"></line><line x1="38.57142857142857" y1="0" x2="38.57142857142857" y2="177" fill="rgb(0, 0, 0)" stroke="rgb(66, 66, 66)" stroke-width="1px" opacity="0.25"></line><line x1="77.14285714285714" y1="0" x2="77.14285714285714" y2="177" fill="rgb(0, 0, 0)" stroke="rgb(66, 66, 66)" stroke-width="1px" opacity="0.25"></line><line x1="115.71428571428571" y1="0" x2="115.71428571428571" y2="177" fill="rgb(0, 0, 0)" stroke="rgb(66, 66, 66)" stroke-width="1px" opacity="0.25"></line><line x1="154.28571428571428" y1="0" x2="154.28571428571428" y2="177" fill="rgb(0, 0, 0)" stroke="rgb(66, 66, 66)" stroke-width="1px" opacity="0.25"></line><line x1="192.85714285714286" y1="0" x2="192.85714285714286" y2="177" fill="rgb(0, 0, 0)" stroke="rgb(66, 66, 66)" stroke-width="1px" opacity="0.25"></line><line x1="231.42857142857142" y1="0" x2="231.42857142857142" y2="177" fill="rgb(0, 0, 0)" stroke="rgb(66, 66, 66)" stroke-width="1px" opacity="0.25"></line><line x1="270" y1="0" x2="270" y2="177" fill="rgb(0, 0, 0)" stroke="rgb(66, 66, 66)" stroke-width="1px" opacity="0.25"></line></g><g><line x1="0" y1="177" x2="270" y2="177" fill="rgb(0, 0, 0)" stroke="rgb(66, 66, 66)" stroke-width="1px" opacity="0.25"></line><line x1="0" y1="164.35714285714286" x2="270" y2="164.35714285714286" fill="rgb(0, 0, 0)" stroke="rgb(66, 66, 66)" stroke-width="1px" opacity="0.25"></line><line x1="0" y1="151.7142857142857" x2="270" y2="151.7142857142857" fill="rgb(0, 0, 0)" stroke="rgb(66, 66, 66)" stroke-width="1px" opacity="0.25"></line><line x1="0" y1="139.07142857142856" x2="270" y2="139.07142857142856" fill="rgb(0, 0, 0)" stroke="rgb(66, 66, 66)" stroke-width="1px" opacity="0.25"></line><line x1="0" y1="126.42857142857142" x2="270" y2="126.42857142857142" fill="rgb(0, 0, 0)" stroke="rgb(66, 66, 66)" stroke-width="1px" opacity="0.25"></line><line x1="0" y1="113.78571428571428" x2="270" y2="113.78571428571428" fill="rgb(0, 0, 0)" stroke="rgb(66, 66, 66)" stroke-width="1px" opacity="0.25"></line><line x1="0" y1="101.14285714285714" x2="270" y2="101.14285714285714" fill="rgb(0, 0, 0)" stroke="rgb(66, 66, 66)" stroke-width="1px" opacity="0.25"></line><line x1="0" y1="88.5" x2="270" y2="88.5" fill="rgb(0, 0, 0)" stroke="rgb(66, 66, 66)" stroke-width="1px" opacity="0.25"></line><line x1="0" y1="75.85714285714285" x2="270" y2="75.85714285714285" fill="rgb(0, 0, 0)" stroke="rgb(66, 66, 66)" stroke-width="1px" opacity="0.25"></line><line x1="0" y1="63.21428571428571" x2="270" y2="63.21428571428571" fill="rgb(0, 0, 0)" stroke="rgb(66, 66, 66)" stroke-width="1px" opacity="0.25"></line><line x1="0" y1="50.57142857142855" x2="270" y2="50.57142857142855" fill="rgb(0, 0, 0)" stroke="rgb(66, 66, 66)" stroke-width="1px" opacity="0.25"></line><line x1="0" y1="37.92857142857143" x2="270" y2="37.92857142857143" fill="rgb(0, 0, 0)" stroke="rgb(66, 66, 66)" stroke-width="1px" opacity="0.25"></line><line x1="0" y1="25.285714285714274" x2="270" y2="25.285714285714274" fill="rgb(0, 0, 0)" stroke="rgb(66, 66, 66)" stroke-width="1px" opacity="0.25"></line><line x1="0" y1="12.642857142857117" x2="270" y2="12.642857142857117" fill="rgb(0, 0, 0)" stroke="rgb(66, 66, 66)" stroke-width="1px" opacity="0.25"></line><line x1="0" y1="0" x2="270" y2="0" fill="rgb(0, 0, 0)" stroke="rgb(66, 66, 66)" stroke-width="1px" opacity="0.25"></line></g></g></g><g><g><line x1="0" y1="227.57142857142858" x2="270" y2="227.57142857142858" fill="rgb(0, 0, 0)" stroke="rgb(153, 153, 153)" stroke-width="1.5px"></line></g></g><g><g><line x1="38.57142857142857" y1="0" x2="38.57142857142857" y2="177" fill="rgb(0, 0, 0)" stroke="rgb(153, 153, 153)" stroke-width="1.5px"></line></g></g><g><g><g><g><g><path stroke="rgb(255, 112, 67)" stroke-width="2px" d="M47.05714285714286,-3.4374819778157226L47.82857142857142,11.143374814824144L48.6,10.877400687407635L49.371428571428574,2.9978357909416613L50.142857142857146,3.818456045137208L50.91428571428572,20.13091182125029L51.68571428571428,10.628059960411099L52.457142857142856,4.41470350303486L53.22857142857143,17.54409574858737L54,24.416771263372045L54.77142857142857,25.622642479508045L55.542857142857144,25.60060170684385L56.31428571428572,34.43002391503953L57.08571428571429,34.623879067415494L57.857142857142854,24.295666215163592L58.628571428571426,35.22370922506991L59.4,47.84267792495673L60.17142857142857,39.70133997487238L60.942857142857136,30.57195343642979L61.714285714285715,46.82455007649931L62.48571428571429,52.514329000011884L63.25714285714286,47.361681305830594L64.02857142857142,57.812784560310135L64.8,55.126072337550326L65.57142857142857,54.74412581780046L66.34285714285714,44.715998391445275L67.11428571428571,54.95514246672036L67.88571428571429,60.16237093982702L68.65714285714286,57.11816187953453L69.42857142857142,66.40715389552979L70.2,71.06300331405583L70.97142857142858,65.23665506246839L71.74285714285715,58.12584806193225L72.51428571428572,64.43161168267468L73.28571428571428,67.96561834939874L74.05714285714286,68.27319885991591L74.82857142857142,57.503272987164806L75.60000000000001,65.21733038540609L76.37142857142857,67.04249678013903L77.14285714285714,64.15747360475646L77.91428571428573,67.40258015766793L78.68571428571428,81.07623859286598L79.45714285714286,79.65455107840492L80.22857142857143,75.249002302472L81,80.33558005145717L81.77142857142857,82.90235755836227L82.54285714285714,82.92671557129863L83.3142857142857,73.17260332982809L84.08571428571429,76.26732715948793L84.85714285714286,84.2333731309779L85.62857142857142,79.21057482164623L86.4,89.60688766450606L87.17142857142856,95.31078773270889L87.94285714285715,86.25218784891355L88.71428571428571,80.74323899156661L89.48571428571428,89.8313715836812L90.25714285714287,95.08870836279104L91.02857142857142,90.66593853513614L91.80000000000001,81.1616998386481L92.57142857142857,91.21126749051206L93.34285714285714,93.80905762530065L73.28571428571428,75.8847185477758L74.05714285714286,76.88126666512672L74.82857142857142,59.28159424698017L75.60000000000001,65.9539991225512L76.37142857142857,67.66468674851295L77.14285714285714,63.08928248681329L77.91428571428573,66.5620769656419L78.68571428571428,80.67350889956978L79.45714285714286,79.70069808471389L80.22857142857143,76.72902821724527L81,78.83784939163446L81.77142857142857,84.6607987526865L82.54285714285714,85.93899778537815L83.3142857142857,75.92163278042423L84.08571428571429,79.57045608814616L84.85714285714286,83.82713994417225L85.62857142857142,81.28933750347191L86.4,87.67199485007463L87.17142857142856,86.75963219278604L87.94285714285715,86.43795210307397L88.71428571428571,80.7783700179193L89.48571428571428,83.10483973160757L90.25714285714287,86.96643599424841L91.02857142857142,82.995189649189L91.80000000000001,77.94333805261097L92.57142857142857,87.24176007238991L93.34285714285714,91.57715877877453L94.11428571428571,92.6984088720232L94.88571428571429,99.19200647013058L95.65714285714284,100.05386562982343L96.42857142857143,98.4250265582323L97.2,88.05003186649459L97.97142857142858,90.48688109632444L98.74285714285715,92.39494572125399L99.5142857142857,84.97441463580954L100.28571428571429,99.7502884299658L101.05714285714285,105.33576843923939L101.82857142857144,104.9319409134186L102.6,97.17211309663207L103.37142857142857,104.26972288607891L104.14285714285715,108.34200080210424L104.91428571428571,107.22321380893774L105.68571428571428,93.88916923109355L106.45714285714286,102.28186610470978L107.22857142857143,104.3875358521218L108,103.3987905667077L108.77142857142857,109.63767178612909L109.54285714285714,115.99564452793403L110.31428571428572,111.30743060859905L111.08571428571429,106.95437800030204L111.85714285714286,116.33894127020415L112.62857142857143,118.24493975776795L113.39999999999999,111.75858858557136L114.17142857142858,100.65840932754205L114.94285714285714,114.50458230030763L115.71428571428571,115.66955373833488L116.4857142857143,115.0597451287077L117.25714285714285,122.40011655956901L118.02857142857144,125.88482492273856L118.8,126.04953381418385L119.57142857142857,113.57285523137398L120.34285714285714,121.13110427498529L121.11428571428571,126.12806224818992L121.88571428571427,125.63790754013554L122.65714285714286,131.49858223230333L123.42857142857143,132.4500694363797L124.2,127.10628260247529L124.97142857142858,126.00167852577L125.74285714285713,133.157009975659L126.51428571428572,133.80394929026536L127.28571428571428,135.5897411895648L128.05714285714285,121.44833640051729L128.82857142857142,127.91217782352645L129.6,125.68892447951006L130.37142857142857,122.8576229043245L131.14285714285714,130.7158032183526L131.9142857142857,136.37461105370306L132.68571428571428,135.37769311735588L133.45714285714286,128.44564111465803L134.22857142857143,132.9048713468374L135,133.68660280244714L135.77142857142857,135.79740173717497L136.54285714285714,126.47079463022187L137.31428571428572,131.19744535143516L138.0857142857143,136.07428104631595L138.85714285714283,130.52778921482175L139.62857142857143,135.1795446452928L140.4,137.70379537975813L141.17142857142858,137.1842332621363L141.94285714285715,128.73255812827713L142.71428571428572,135.02726614724548L143.4857142857143,138.18943206913272L144.25714285714284,133.3930652072421L145.02857142857144,128.78087326086197L145.8,135.08160589380046L146.57142857142856,137.32279724549045L147.34285714285713,135.63054453789806L148.11428571428573,139.07471787958684L148.88571428571427,139.65797355075426L149.65714285714284,138.78784044382678L150.42857142857144,129.23671018211667L151.20000000000002,135.45127102724175L151.97142857142856,137.55914734937483L152.74285714285713,135.38891310412043L153.51428571428573,143.9911639420505L154.28571428571428,147.25605848100105L155.05714285714285,143.03312260820547L155.82857142857145,135.74311439109576L156.6,142.87768351820037L157.37142857142857,144.9194112251984L158.14285714285714,139.961932361258L158.9142857142857,130.38020167741863L159.68571428571428,138.14122959116173L160.45714285714286,142.7776623573461L161.22857142857146,139.60369541950234L162,140.42188269640758L162.77142857142857,145.25916633167034L163.54285714285714,146.566848860453L164.31428571428572,140.36831866589128L165.0857142857143,146.58661491643838L165.85714285714286,149.62308800714368L166.6285714285714,142.51587821381867L167.4,133.33008240726426L168.17142857142858,139.87681629410199L168.94285714285712,141.66253569365034L169.71428571428572,140.0812584666128L170.4857142857143,145.21409006313772L171.25714285714284,147.47846776877049L172.0285714285714,147.24067352185455L172.8,139.48103406879616L173.57142857142858,145.0129852334075L174.34285714285713,147.39577788583628L175.11428571428573,144.63568174417986L175.8857142857143,150.05718882395388L176.65714285714284,149.46899956994392L177.42857142857142,146.00634689542392L178.20000000000002,143.32028747446978L178.97142857142856,147.8253968707651L179.74285714285713,150.18591176783195L180.51428571428573,149.14665124827712L181.28571428571428,139.2751928076988L182.05714285714285,145.31255520329663L182.82857142857142,146.32864383767375L183.60000000000002,144.61103043002512L184.37142857142857,149.8065014246731L185.14285714285714,153.24332959115847L185.9142857142857,153.3576993036461L186.68571428571428,146.31627265985392L187.45714285714286,151.23616407716196L188.22857142857143,151.35099781023814L189,152.56755206405816L189.77142857142857,142.51576469492733L190.54285714285714,145.66410874527497L191.3142857142857,148.21110451299177L192.0857142857143,144.9239257030594L192.85714285714286,150.64326276211105L193.62857142857143,151.14551476936012L194.4,153.05304796938665L195.17142857142858,147.34523903226167L195.94285714285715,152.14574418974107L196.7142857142857,154.221926010792L197.4857142857143,151.33261751415574L198.25714285714287,143.96049537912072L199.0285714285714,150.01607160756453L199.8,153.13201411668848L200.57142857142858,150.76183893380912L201.34285714285713,155.67879468516662L202.1142857142857,153.8410902154983L202.8857142857143,153.64600492803356L203.65714285714287,145.33900925837816L204.42857142857142,150.39491703074748L205.2,153.9640849045183L205.9714285714286,151.60015864662918L206.74285714285713,158.094352454648L207.5142857142857,158.56354569238758L208.2857142857143,156.4331216995387L209.05714285714285,151.1898793345373L209.82857142857142,156.49328414646445L210.6,156.90516439374736L211.37142857142857,155.10799968344838L212.14285714285714,146.26089770088888L212.9142857142857,152.35656282693748L213.6857142857143,155.766514430501L214.45714285714286,153.45166436107291L215.22857142857143,154.81445442057026L216,158.18537981534823L216.77142857142857,158.0752692738378L217.54285714285714,153.19349463526203L218.31428571428572,158.53816460314098L219.0857142857143,160.49234926941048L219.85714285714286,156.08883662304225L220.62857142857143,147.48109421397245L221.39999999999998,154.46177788896642L222.17142857142858,155.01194702643411L222.94285714285715,152.8683768144955L223.71428571428572,156.4947841973983L224.48571428571427,157.63341309254238L225.25714285714287,157.75941738613935L226.02857142857144,151.4363397016265L226.79999999999998,156.47847808358046L227.57142857142858,157.9603234897331L228.34285714285716,156.86062675228655L229.1142857142857,163.01686951098833L229.88571428571427,164.62858949403332L230.65714285714287,159.91974019438248L231.42857142857142,156.3606483167934L232.2,161.3230785221772L232.9714285714286,161.21065181716352L233.74285714285716,162.37634031107893L234.5142857142857,153.23202935939696L235.28571428571428,157.48532447578623L236.05714285714288,158.592120423304L236.82857142857142,157.05846118411498L237.6,162.28160475193818L238.3714285714286,165.18368477033334L239.14285714285714,163.38882440571047L239.9142857142857,158.48209237612434L240.68571428571428,160.84278325653506L241.45714285714286,160.71308262266433L242.22857142857143,161.80215120736958L243,153.2940379215942L243.77142857142854,157.0002093212789L244.54285714285714,159.34928787045308L245.31428571428572,155.4825394147621L246.0857142857143,159.27829813378543L246.85714285714286,161.03472827698283L247.62857142857143,161.44482071593697L248.4,154.3336722455L249.17142857142855,158.44707532481232L249.94285714285715,160.28760279835646L250.71428571428572,158.36718319577804" style="fill: none;" fill="none"></path></g></g></g></g><g opacity="0.2"><g><g><g><path stroke="rgb(255, 112, 67)" stroke-width="2px" d="M46.285714285714285,-14.762414801333655L47.05714285714286,16.191609154854486L47.82857142857142,32.967050976519054L48.6,10.478960567287011L49.371428571428574,-8.812249421009001L50.142857142857146,5.04880766144819L50.91428571428572,44.59269260082925L51.68571428571428,-3.623805057789615L52.457142857142856,-4.904384640710706L53.22857142857143,37.2369840384594L54,34.72540762169019L54.77142857142857,27.431409624006044L55.542857142857144,25.567540983004218L56.31428571428572,47.67405263440949L57.08571428571429,34.91466041814003L57.857142857142854,8.803390981895571L58.628571428571426,51.6157457780625L59.4,66.77111160169754L60.17142857142857,27.489340549068782L60.942857142857136,16.877878674438996L61.714285714285715,71.20343964706574L62.48571428571429,61.04899625320519L63.25714285714286,39.63271037968141L64.02857142857142,73.48943869343825L64.8,51.09600411887679L65.57142857142857,54.171206048024544L66.34285714285714,29.673807407064086L67.11428571428571,70.31385848458324L67.88571428571429,67.97321362048386L68.65714285714286,52.551848299269146L69.42857142857142,80.34064190089703L70.2,78.04677743624363L70.97142857142858,56.49713268929294L71.74285714285715,47.459637564207824L72.51428571428572,73.89025711214967L73.28571428571428,73.26662834893379L74.05714285714286,68.7345696256629L74.82857142857142,41.348384178642696L75.60000000000001,76.78841648250818L76.37142857142857,69.7802463722016L77.14285714285714,59.82993884171758L77.91428571428573,72.27023998701146L78.68571428571428,101.58672624560339L79.45714285714286,77.52201980671711L80.22857142857143,68.64067913857953L81,87.96544667493019L81.77142857142857,86.75252381871853L82.54285714285714,82.9632525907031L83.3142857142857,58.541434967624284L84.08571428571429,80.90941290397728L84.85714285714286,96.18244208821228L85.62857142857142,71.67637735764895L86.4,105.20135692879558L87.17142857142856,103.86663783501301L87.94285714285715,72.66428802322064L88.71428571428571,72.4798157055463L89.48571428571428,103.46357047185302L90.25714285714287,102.97471353145582L91.02857142857142,84.03178379365376L91.80000000000001,66.90534179391605L92.57142857142857,106.28561896830797L93.34285714285714,97.70574282748359L73.28571428571428,48.998209931488546L74.05714285714286,78.37608884115303L74.82857142857142,32.8820856197604L75.60000000000001,75.96260643590773L76.37142857142857,70.23071818745561L77.14285714285714,56.22617609426377L77.91428571428573,71.77126868388481L78.68571428571428,101.84065680046166L79.45714285714286,78.24148186243005L80.22857142857143,72.27152341604233L81,82.00108115321822L81.77142857142857,93.39522279426455L82.54285714285714,87.85629633441567L83.3142857142857,60.89558527299336L84.08571428571429,85.04369104972906L84.85714285714286,90.2121657282114L85.62857142857142,77.48263384242142L86.4,97.24598086997867L87.17142857142856,85.39108820685318L87.94285714285715,85.95543196850589L88.71428571428571,72.28899689018726L89.48571428571428,86.59454430213995L90.25714285714287,92.75883038820965L91.02857142857142,77.0383201315999L91.80000000000001,70.36556065774388L92.57142857142857,101.18939310205835L93.34285714285714,98.08025683835149L94.11428571428571,94.38028401189617L94.88571428571429,108.93240286729164L95.65714285714284,101.34665436936277L96.42857142857143,95.98176795084561L97.2,72.487539828888L97.97142857142858,94.14215494106922L98.74285714285715,95.25704265864832L99.5142857142857,73.84361800764287L100.28571428571429,121.91409912120018L101.05714285714285,113.7139884531498L101.82857142857144,104.32619962468743L102.6,85.53237137145229L103.37142857142857,114.91613757024918L104.14285714285715,114.45041767614228L104.91428571428571,105.54503331918801L105.68571428571428,73.88810236432722L106.45714285714286,114.87091141513415L107.22857142857143,107.54604047323976L108,101.91567263858659L108.77142857142857,118.99599361526114L109.54285714285714,125.53260364064148L110.31428571428572,104.27510972959655L111.08571428571429,100.42479908785648L111.85714285714286,130.4157861750573L112.62857142857143,121.10393748911363L113.39999999999999,102.02906182727642L114.17142857142858,84.00814044049807L114.94285714285714,135.27384175945605L115.71428571428571,117.41701089537568L116.4857142857143,114.1450322142669L117.25714285714285,133.41067370586097L118.02857142857144,131.1118874674929L118.8,126.29659715135182L119.57142857142857,94.85783735715917L120.34285714285714,132.4684778404023L121.11428571428571,133.6234992079969L121.88571428571427,124.90267547805394L122.65714285714286,140.28959427055503L123.42857142857143,133.87730024249424L124.2,119.09060235161866L124.97142857142858,124.34477241071207L125.74285714285713,143.8900071504925L126.51428571428572,134.7743582621749L127.28571428571428,138.268429038514L128.05714285714285,100.23622921694601L128.82857142857142,137.60793995804022L129.6,122.35404446348548L130.37142857142857,118.61067054154617L131.14285714285714,142.50307368939477L131.9142857142857,144.86282280672873L132.68571428571428,133.88231621283504L133.45714285714286,118.04756311061126L134.22857142857143,139.59371669510645L135,134.85919998586178L135.77142857142857,138.96360013926667L136.54285714285714,112.4808839697923L137.31428571428572,138.28742143325508L138.0857142857143,143.38953458863708L138.85714285714283,122.20805146758045L139.62857142857143,142.1571777909994L140.4,141.49017148145606L141.17142857142858,136.40489008570356L141.94285714285715,116.05504542748842L142.71428571428572,144.46932817569802L143.4857142857143,142.93268095196356L144.25714285714284,126.19851491440619L145.02857142857144,121.86258534129176L145.8,144.5327048432082L146.57142857142856,140.6845842730254L147.34285714285713,133.0921654765095L148.11428571428573,144.24097789212L148.88571428571427,140.53285705750542L149.65714285714284,137.48264078343553L150.42857142857144,114.9100147895515L151.20000000000002,144.77311229492935L151.97142857142856,140.72096183257443L152.74285714285713,132.13356173623885L153.51428571428573,156.89454019894558L154.28571428571428,152.15340028942694L155.05714285714285,136.69871879901203L155.82857142857145,124.80810206543121L156.6,153.57953720885726L157.37142857142857,147.98200278569544L158.14285714285714,132.5257140653474L158.9142857142857,116.00760565165962L159.68571428571428,149.78277146177632L160.45714285714286,149.7323115066226L161.22857142857146,134.84274501273674L162,141.6491636117654L162.77142857142857,152.5150917845645L163.54285714285714,148.52837265362697L164.31428571428572,131.07052337404872L165.0857142857143,155.91405929225894L165.85714285714286,154.17779764320167L166.6285714285714,131.8550635238311L167.4,119.55138869743261L168.17142857142858,149.69691712435866L168.94285714285712,144.3411147929728L169.71428571428572,137.7093426260565L170.4857142857143,152.91333745792508L171.25714285714284,150.87503432721962L172.0285714285714,146.88398215148064L172.8,127.84157488920859L173.57142857142858,153.31091198032456L174.34285714285713,150.96996686447943L175.11428571428573,140.4955375316952L175.8857142857143,158.1894494436149L176.65714285714284,148.58671568892896L177.42857142857142,140.81236788364393L178.20000000000002,139.29119834303856L178.97142857142856,154.58306096520806L179.74285714285713,153.72668411343227L180.51428571428573,147.5877604689449L181.28571428571428,124.46800514683127L182.05714285714285,154.36859879669333L182.82857142857142,147.85277678923947L183.60000000000002,142.03461031855215L184.37142857142857,157.59970791664506L185.14285714285714,158.39857184088658L185.9142857142857,153.52925387237752L186.68571428571428,135.7541326941656L187.45714285714286,158.61600120312403L188.22857142857143,151.52324840985239L189,154.39238344478818L189.77142857142857,127.43808364123106L190.54285714285714,150.3866248207965L191.3142857142857,152.03159816456693L192.0857142857143,139.9931574881609L192.85714285714286,159.22226835068847L193.62857142857143,151.89889278023372L194.4,155.91434776942643L195.17142857142858,138.78352562657426L195.94285714285715,159.34650192596018L196.7142857142857,157.3361987423684L197.4857142857143,146.99865476920138L198.25714285714287,132.90231217656816L199.0285714285714,159.09943595023026L199.8,157.80592788037444L200.57142857142858,147.20657615949L201.34285714285713,163.05422831220287L202.1142857142857,151.08453351099575L202.8857142857143,153.3533769968365L203.65714285714287,132.87851575389504L204.42857142857142,157.97877868930144L205.2,159.31783671517456L205.9714285714286,148.05426925979555L206.74285714285713,167.83564316667616L207.5142857142857,159.26733554899693L208.2857142857143,153.23748571026536L209.05714285714285,143.32501578703523L209.82857142857142,164.4483913643552L210.6,157.52298476467175L211.37142857142857,152.4122526179999L212.14285714285714,132.99024472704957L212.9142857142857,161.50006051601042L213.6857142857143,160.8814418358462L214.45714285714286,149.97938925693077L215.22857142857143,156.85863950981627L216,163.24176790751517L216.77142857142857,157.9101034615721L217.54285714285714,145.87083267739843L218.31428571428572,166.55516955495943L219.0857142857143,163.4236262688147L219.85714285714286,149.48356765348996L220.62857142857143,134.56948060036768L221.39999999999998,164.9328034014574L222.17142857142858,155.83720073263558L222.94285714285715,149.65302149658757L223.71428571428572,161.93439527175258L224.48571428571427,159.3413564352585L225.25714285714287,157.94842382653485L226.02857142857144,141.95172317485722L226.79999999999998,164.04168565651136L227.57142857142858,160.18309159896205L228.34285714285716,155.2110816461167L229.1142857142857,172.25123364904096L229.88571428571427,167.04616946860085L230.65714285714287,152.8564662449062L231.42857142857142,151.02201050040978L232.2,168.7667238302529L232.9714285714286,161.04201175964306L233.74285714285716,164.12487305195202L234.5142857142857,139.51556293187397L235.28571428571428,163.86526715037013L236.05714285714288,160.25231434458067L236.82857142857142,154.7579723253314L237.6,170.11632010367302L238.3714285714286,169.53680479792612L239.14285714285714,160.6965338587761L239.9142857142857,151.12199433174516L240.68571428571428,164.38381957715112L241.45714285714286,160.51853167185826L242.22857142857143,163.43575408442746L243,140.53186799293118L243.77142857142854,162.55946642080588L244.54285714285714,162.87290569421435L245.31428571428572,149.68241673122557L246.0857142857143,164.97193621232043L246.85714285714286,163.66937349177897L247.62857142857143,162.0599593743682L248.4,143.6669495398445L249.17142857142855,164.6171799437808L249.94285714285715,163.04839400867266L250.71428571428572,155.4865537919104" style="fill: none;" fill="none"></path></g></g></g></g></g></g><g transform="translate(60, 177)" clip-path="url(#clip_1)"><clipPath id="clip_1"><rect width="270" height="22"></rect></clipPath><g><g><line x1="0" y1="0" x2="0" y2="5" style="visibility: inherit;" fill="rgb(0, 0, 0)" stroke="rgb(204, 204, 204)" stroke-width="1px"></line><line x1="38.57142857142857" y1="0" x2="38.57142857142857" y2="5" style="visibility: inherit;" fill="rgb(0, 0, 0)" stroke="rgb(204, 204, 204)" stroke-width="1px"></line><line x1="77.14285714285714" y1="0" x2="77.14285714285714" y2="5" style="visibility: inherit;" fill="rgb(0, 0, 0)" stroke="rgb(204, 204, 204)" stroke-width="1px"></line><line x1="115.71428571428571" y1="0" x2="115.71428571428571" y2="5" style="visibility: inherit;" fill="rgb(0, 0, 0)" stroke="rgb(204, 204, 204)" stroke-width="1px"></line><line x1="154.28571428571428" y1="0" x2="154.28571428571428" y2="5" style="visibility: inherit;" fill="rgb(0, 0, 0)" stroke="rgb(204, 204, 204)" stroke-width="1px"></line><line x1="192.85714285714286" y1="0" x2="192.85714285714286" y2="5" style="visibility: inherit;" fill="rgb(0, 0, 0)" stroke="rgb(204, 204, 204)" stroke-width="1px"></line><line x1="231.42857142857142" y1="0" x2="231.42857142857142" y2="5" style="visibility: inherit;" fill="rgb(0, 0, 0)" stroke="rgb(204, 204, 204)" stroke-width="1px"></line><line x1="270" y1="0" x2="270" y2="5" style="visibility: inherit;" fill="rgb(0, 0, 0)" stroke="rgb(204, 204, 204)" stroke-width="1px"></line></g><g transform="translate(0, 8)"><text x="0" y="0" dx="0em" dy="0.95em" style="text-anchor: middle; visibility: hidden; font-family: Roboto, sans-serif; font-size: 12px; font-weight: 200;" fill="rgb(33, 33, 33)" stroke="none" stroke-width="1px">-5k</text><text x="38.57142857142857" y="0" dx="0em" dy="0.95em" style="text-anchor: middle; visibility: inherit; font-family: Roboto, sans-serif; font-size: 12px; font-weight: 200;" fill="rgb(33, 33, 33)" stroke="none" stroke-width="1px">0</text><text x="77.14285714285714" y="0" dx="0em" dy="0.95em" style="text-anchor: middle; visibility: inherit; font-family: Roboto, sans-serif; font-size: 12px; font-weight: 200;" fill="rgb(33, 33, 33)" stroke="none" stroke-width="1px">5k</text><text x="115.71428571428571" y="0" dx="0em" dy="0.95em" style="text-anchor: middle; visibility: inherit; font-family: Roboto, sans-serif; font-size: 12px; font-weight: 200;" fill="rgb(33, 33, 33)" stroke="none" stroke-width="1px">10k</text><text x="154.28571428571428" y="0" dx="0em" dy="0.95em" style="text-anchor: middle; visibility: inherit; font-family: Roboto, sans-serif; font-size: 12px; font-weight: 200;" fill="rgb(33, 33, 33)" stroke="none" stroke-width="1px">15k</text><text x="192.85714285714286" y="0" dx="0em" dy="0.95em" style="text-anchor: middle; visibility: inherit; font-family: Roboto, sans-serif; font-size: 12px; font-weight: 200;" fill="rgb(33, 33, 33)" stroke="none" stroke-width="1px">20k</text><text x="231.42857142857142" y="0" dx="0em" dy="0.95em" style="text-anchor: middle; visibility: inherit; font-family: Roboto, sans-serif; font-size: 12px; font-weight: 200;" fill="rgb(33, 33, 33)" stroke="none" stroke-width="1px">25k</text><text x="270" y="0" dx="0em" dy="0.95em" style="text-anchor: middle; visibility: hidden; font-family: Roboto, sans-serif; font-size: 12px; font-weight: 200;" fill="rgb(33, 33, 33)" stroke="none" stroke-width="1px">30k</text></g><line x1="0" y1="0" x2="270" y2="0" fill="rgb(0, 0, 0)" stroke="rgb(204, 204, 204)" stroke-width="1px"></line></g></g></g></g></svg>