<svg viewBox="0 0 330 200" xmlns="http://www.w3.org/2000/svg"><g><g><g><g><g><line x1="60" y1="177" x2="55" y2="177" style="visibility: inherit;" fill="rgb(0, 0, 0)" stroke="rgb(204, 204, 204)" stroke-width="1px"></line><line x1="60" y1="157.33333333333331" x2="55" y2="157.33333333333331" style="visibility: inherit;" fill="rgb(0, 0, 0)" stroke="rgb(204, 204, 204)" stroke-width="1px"></line><line x1="60" y1="137.66666666666666" x2="55" y2="137.66666666666666" style="visibility: inherit;" fill="rgb(0, 0, 0)" stroke="rgb(204, 204, 204)" stroke-width="1px"></line><line x1="60" y1="118.00000000000001" x2="55" y2="118.00000000000001" style="visibility: inherit;" fill="rgb(0, 0, 0)" stroke="rgb(204, 204, 204)" stroke-width="1px"></line><line x1="60" y1="98.33333333333334" x2="55" y2="98.33333333333334" style="visibility: inherit;" fill="rgb(0, 0, 0)" stroke="rgb(204, 204, 204)" stroke-width="1px"></line><line x1="60" y1="78.66666666666666" x2="55" y2="78.66666666666666" style="visibility: inherit;" fill="rgb(0, 0, 0)" stroke="rgb(204, 204, 204)" stroke-width="1px"></line><line x1="60" y1="59.00000000000001" x2="55" y2="59.00000000000001" style="visibility: inherit;" fill="rgb(0, 0, 0)" stroke="rgb(204, 204, 204)" stroke-width="1px"></line><line x1="60" y1="39.333333333333314" x2="55" y2="39.333333333333314" style="visibility: inherit;" fill="rgb(0, 0, 0)" stroke="rgb(204, 204, 204)" stroke-width="1px"></line><line x1="60" y1="19.666666666666657" x2="55" y2="19.666666666666657" style="visibility: inherit;" fill="rgb(0, 0, 0)" stroke="rgb(204, 204, 204)" stroke-width="1px"></line><line x1="60" y1="0" x2="55" y2="0" style="visibility: inherit;" fill="rgb(0, 0, 0)" stroke="rgb(204, 204, 204)" stroke-width="1px"></line></g><g transform="translate(50, 0)"><text x="0" y="177" dx="0em" dy="0.3em" style="text-anchor: end; visibility: hidden; font-family: Roboto, sans-serif; font-size: 12px; font-weight: 200;" fill="rgb(33, 33, 33)" stroke="none" stroke-width="1px">0</text><text x="0" y="157.33333333333331" dx="0em" dy="0.3em" style="text-anchor: end; visibility: inherit; font-family: Roboto, sans-serif; font-size: 12px; font-weight: 200;" fill="rgb(33, 33, 33)" stroke="none" stroke-width="1px">5e-3</text><text x="0" y="137.66666666666666" dx="0em" dy="0.3em" style="text-anchor: end; visibility: hidden; font-family: Roboto, sans-serif; font-size: 12px; font-weight: 200;" fill="rgb(33, 33, 33)" stroke="none" stroke-width="1px">0.01</text><text x="0" y="118.00000000000001" dx="0em" dy="0.3em" style="text-anchor: end; visibility: inherit; font-family: Roboto, sans-serif; font-size: 12px; font-weight: 200;" fill="rgb(33, 33, 33)" stroke="none" stroke-width="1px">0.015</text><text x="0" y="98.33333333333334" dx="0em" dy="0.3em" style="text-anchor: end; visibility: hidden; font-family: Roboto, sans-serif; font-size: 12px; font-weight: 200;" fill="rgb(33, 33, 33)" stroke="none" stroke-width="1px">0.02</text><text x="0" y="78.66666666666666" dx="0em" dy="0.3em" style="text-anchor: end; visibility: inherit; font-family: Roboto, sans-serif; font-size: 12px; font-weight: 200;" fill="rgb(33, 33, 33)" stroke="none" stroke-width="1px">0.025</text><text x="0" y="59.00000000000001" dx="0em" dy="0.3em" style="text-anchor: end; visibility: hidden; font-family: Roboto, sans-serif; font-size: 12px; font-weight: 200;" fill="rgb(33, 33, 33)" stroke="none" stroke-width="1px">0.03</text><text x="0" y="39.333333333333314" dx="0em" dy="0.3em" style="text-anchor: end; visibility: inherit; font-family: Roboto, sans-serif; font-size: 12px; font-weight: 200;" fill="rgb(33, 33, 33)" stroke="none" stroke-width="1px">0.035</text><text x="0" y="19.666666666666657" dx="0em" dy="0.3em" style="text-anchor: end; visibility: hidden; font-family: Roboto, sans-serif; font-size: 12px; font-weight: 200;" fill="rgb(33, 33, 33)" stroke="none" stroke-width="1px">0.04</text><text x="0" y="0" dx="0em" dy="0.3em" style="text-anchor: end; visibility: hidden; font-family: Roboto, sans-serif; font-size: 12px; font-weight: 200;" fill="rgb(33, 33, 33)" stroke="none" stroke-width="1px">0.045</text></g><line x1="60" y1="0" x2="60" y2="177" fill="rgb(0, 0, 0)" stroke="rgb(204, 204, 204)" stroke-width="1px"></line></g></g><g transform="translate(60, 0)" clip-path="url(#clip_0)"><clipPath id="clip_0"><rect width="270" height="176"></rect></clipPath><g><g><g><line x1="0" y1="0" x2="0" y2="177" fill="rgb(0, 0, 0)" stroke="rgb(66, 66, 66)" stroke-width="1px" opacity="0.25"></line><line x1="30" y1="0" x2="30" y2="177" fill="rgb(0, 0, 0)" stroke="rgb(66, 66, 66)" stroke-width="1px" opacity="0.25"></line><line x1="60" y1="0" x2="60" y2="177" fill="rgb(0, 0, 0)" stroke="rgb(66, 66, 66)" stroke-width="1px" opacity="0.25"></line><line x1="90" y1="0" x2="90" y2="177" fill="rgb(0, 0, 0)" stroke="rgb(66, 66, 66)" stroke-width="1px" opacity="0.25"></line><line x1="120" y1="0" x2="120" y2="177" fill="rgb(0, 0, 0)" stroke="rgb(66, 66, 66)" stroke-width="1px" opacity="0.25"></line><line x1="150" y1="0" x2="150" y2="177" fill="rgb(0, 0, 0)" stroke="rgb(66, 66, 66)" stroke-width="1px" opacity="0.25"></line><line x1="180" y1="0" x2="180" y2="177" fill="rgb(0, 0, 0)" stroke="rgb(66, 66, 66)" stroke-width="1px" opacity="0.25"></line><line x1="210" y1="0" x2="210" y2="177" fill="rgb(0, 0, 0)" stroke="rgb(66, 66, 66)" stroke-width="1px" opacity="0.25"></line><line x1="240" y1="0" x2="240" y2="177" fill="rgb(0, 0, 0)" stroke="rgb(66, 66, 66)" stroke-width="1px" opacity="0.25"></line><line x1="270" y1="0" x2="270" y2="177" fill="rgb(0, 0, 0)" stroke="rgb(66, 66, 66)" stroke-width="1px" opacity="0.25"></line></g><g><line x1="0" y1="177" x2="270" y2="177" fill="rgb(0, 0, 0)" stroke="rgb(66, 66, 66)" stroke-width="1px" opacity="0.25"></line><line x1="0" y1="157.33333333333331" x2="270" y2="157.33333333333331" fill="rgb(0, 0, 0)" stroke="rgb(66, 66, 66)" stroke-width="1px" opacity="0.25"></line><line x1="0" y1="137.66666666666666" x2="270" y2="137.66666666666666" fill="rgb(0, 0, 0)" stroke="rgb(66, 66, 66)" stroke-width="1px" opacity="0.25"></line><line x1="0" y1="118.00000000000001" x2="270" y2="118.00000000000001" fill="rgb(0, 0, 0)" stroke="rgb(66, 66, 66)" stroke-width="1px" opacity="0.25"></line><line x1="0" y1="98.33333333333334" x2="270" y2="98.33333333333334" fill="rgb(0, 0, 0)" stroke="rgb(66, 66, 66)" stroke-width="1px" opacity="0.25"></line><line x1="0" y1="78.66666666666666" x2="270" y2="78.66666666666666" fill="rgb(0, 0, 0)" stroke="rgb(66, 66, 66)" stroke-width="1px" opacity="0.25"></line><line x1="0" y1="59.00000000000001" x2="270" y2="59.00000000000001" fill="rgb(0, 0, 0)" stroke="rgb(66, 66, 66)" stroke-width="1px" opacity="0.25"></line><line x1="0" y1="39.333333333333314" x2="270" y2="39.333333333333314" fill="rgb(0, 0, 0)" stroke="rgb(66, 66, 66)" stroke-width="1px" opacity="0.25"></line><line x1="0" y1="19.666666666666657" x2="270" y2="19.666666666666657" fill="rgb(0, 0, 0)" stroke="rgb(66, 66, 66)" stroke-width="1px" opacity="0.25"></line><line x1="0" y1="0" x2="270" y2="0" fill="rgb(0, 0, 0)" stroke="rgb(66, 66, 66)" stroke-width="1px" opacity="0.25"></line></g></g></g><g><g><line x1="0" y1="177" x2="270" y2="177" fill="rgb(0, 0, 0)" stroke="rgb(153, 153, 153)" stroke-width="1.5px"></line></g></g><g><g><line x1="30" y1="0" x2="30" y2="177" fill="rgb(0, 0, 0)" stroke="rgb(153, 153, 153)" stroke-width="1.5px"></line></g></g><g><g><g><g><g><path stroke="rgb(255, 112, 67)" stroke-width="2px" d="M36.6,-8.62752741754148L37.2,8.025166249016253L37.800000000000004,21.72320954164782L38.4,22.097372682592912L38.99999999999999,17.80865089645405L39.6,23.52828555251778L40.199999999999996,28.88453909377325L40.8,22.53076713624607L41.4,24.278975088626915L42,26.822292278954933L42.599999999999994,28.242955321201904L43.2,40.857590828771414L43.8,32.75956682473417L44.4,28.172452628455783L45,28.090208157821216L45.6,26.958411542853597L46.199999999999996,25.24511491319794L46.800000000000004,30.87685622850442L47.4,16.940284108427804L48,42.808831769003035L48.6,55.66169254057971L49.2,48.810085092812834L49.8,44.34080672152325L50.400000000000006,55.933065061692005L51,59.48466641487841L51.6,52.330977679518426L52.199999999999996,45.01866235595065L52.800000000000004,57.886162574897895L53.4,56.45588122143028L54,48.164685528955395L54.6,47.94396633394617L55.2,54.33720704423671L55.8,60.435085005687064L56.400000000000006,73.31707191703781L57,66.43014618892946L57.6,63.358121447590854L58.2,64.04770902563922L58.8,73.86533515515832L59.4,65.48654581027444L60,64.2474188283114L60.6,65.14666607032407L61.199999999999996,71.14580983748232L61.800000000000004,85.00652895071339L62.4,75.10328320879626L63,67.43481292060328L63.599999999999994,68.72117352524191L64.2,73.91469757778722L64.8,64.7720233143763L65.4,73.3820659423707L66,73.58167739539373L66.60000000000001,85.97378974057654L67.2,88.26163394986045L67.8,87.80589269641112L68.4,87.63962151632549L69,94.13310392713056L69.6,96.73169597197874L70.2,89.61270484651705L70.80000000000001,82.28225213085959L71.39999999999999,83.47836124775023L72,91.46735692547088L72.60000000000001,76.95967934047974L73.2,83.50018884449679L73.8,90.16215202436534L74.4,95.56477164363278L75,105.27311281741903L75.60000000000001,98.55773847926407L76.2,96.55490937607735L76.8,99.24599424467831L77.4,107.64612927118749L77.99999999999999,95.58320896077042L78.6,95.86694265950452L79.2,99.24351043630875L79.80000000000001,104.34809408662262L80.39999999999999,114.09469943291471L81,103.63325449256018L81.6,101.32777045425524L82.2,102.16603628748705L82.8,104.63999487928977L83.39999999999999,96.45746681673785L84,101.9513004218546L84.60000000000001,104.5241797066733L85.19999999999999,112.80199079595035L85.8,108.09524933625475L86.4,111.13215789077213L87,111.71792834725494L87.6,114.72964463766324L88.2,117.8182280926063L88.8,113.0261800488723L89.4,111.79373326505578L90,111.53480111920054L90.6,116.91388819533515L91.2,107.58709105005619L91.80000000000001,112.50678834408971L92.39999999999999,114.4379389688797L93,118.93686745298469L93.60000000000001,126.92113211293557L94.2,122.35903621836226L94.8,121.77708519472911L95.4,122.49674025261938L96,127.23898806324328L96.6,118.3632665643139L97.2,118.37510744148751L97.8,119.52897592831211L98.4,123.47015288938219L99,130.22929055275003L99.6,124.97022894987353L100.2,123.4638190575573L100.80000000000001,124.76389032750129L101.39999999999999,125.35880218038241L102,120.32811381274031L102.6,121.8954261592243L103.2,123.91699448731822L103.8,128.7419890523391L104.39999999999999,122.63628570002936L105,125.8570124800759L105.60000000000001,123.88144194955173L106.19999999999999,128.17351286833212L106.8,131.24182975227473L107.4,128.22403796375696L108,127.83326399342756L108.6,128.89134289830847L109.2,132.07615403340213L109.8,124.61653743787183L110.4,126.7274862385009L111,128.32082487083758L111.6,129.71069038373602L112.2,134.0832131264351L112.80000000000001,132.52526360001616L113.39999999999999,133.7207543516941L114,134.3500117986274L114.60000000000001,137.6435528196219L115.2,129.83620086594362L115.8,129.63929582010073L116.4,131.79882784011184L117,133.930882472727L117.6,138.42408424949645L118.2,134.14138254127502L118.8,133.39841139575796L119.4,133.71548615551566L120,134.86906818443484L120.6,129.86108733650414L121.2,129.51690597694932L121.80000000000001,131.86999077913256L122.39999999999999,135.52515733729058L123,131.70922695491862L123.60000000000001,133.61365711824587L124.2,133.45166431349412L124.8,135.20636090327437L125.39999999999999,138.0613233796108L126,134.89704175500165L126.60000000000001,134.07413105691327L127.19999999999999,134.77119494095356L127.8,136.30954670378514L128.4,130.25159639896322L129,132.76557252773466L129.6,132.5079900014529L130.2,134.8944001270212L130.8,139.65998945422237L131.4,136.7755952375368L132,136.97629850788329L132.6,137.39701073179694L126,127.76048032726874L126.60000000000001,131.05610003840545L127.19999999999999,134.12427088879517L127.8,136.32919605133714L128.4,131.63308951889144L129,132.3110713956833L129.6,134.14754530478L130.2,135.74552099618404L130.8,140.2142306365356L131.4,138.0117918350966L132,135.4317211716575L132.6,137.18131384209013L133.20000000000002,139.79105725758401L133.8,134.72510518356043L134.4,134.32538098925676L135,135.3726652900437L135.6,137.99165507297076L136.20000000000002,143.56281362607294L136.8,140.07056776067148L137.39999999999998,138.89819918402353L138,137.67114527321846L138.6,138.3191813297887L139.2,134.2119762292198L139.8,135.67540296161323L140.4,136.56468012180417L141,139.38693598159048L141.60000000000002,136.89967179247475L142.2,137.8851456907316L142.79999999999998,138.7628103802755L143.4,140.06258514882055L144,141.90325913048343L144.6,138.74744296699697L145.20000000000002,138.3809283045725L145.8,140.00184744404532L146.4,141.0317910480903L147,135.3282293767774L147.6,136.86384668793542L148.2,137.62754552868762L148.8,138.99557676200723L149.4,142.6301669932484L150,140.91672773602085L150.60000000000002,141.0901094929922L151.20000000000002,141.927772432956L151.79999999999998,144.61169496947105L152.4,140.36591363712293L153,140.57550409891692L153.6,141.525577028345L154.20000000000002,143.38919416551843L154.8,147.99967453222507L155.4,145.38007315501193L155.99999999999997,145.37524264258911L156.6,145.21801949065588L157.2,145.42699140919248L157.79999999999998,141.3154094802121L158.4,142.91069945316195L159,143.274247136438L159.60000000000002,146.4972323154752L160.20000000000002,143.06979743293988L160.79999999999998,144.29041661214075L161.39999999999998,144.25696347887063L162,145.9691195129439L162.6,147.76310082459955L163.2,145.65440056732004L163.8,144.68725956585428L164.4,145.17813922528282L150,136.292307379229L150.60000000000002,139.51699050707606L151.20000000000002,140.14301152791373L151.79999999999998,143.76638251403446L152.4,139.56400396938807L153,139.62161034156293L153.6,141.55163509831473L154.20000000000002,143.373400198533L154.8,147.35102945741846L155.4,144.09134580002328L155.99999999999997,143.3730180341369L156.6,143.86146019866263L157.2,144.66742361468192L157.79999999999998,141.96799551674994L158.4,142.70815881528023L159,143.11881029369968L159.60000000000002,145.34426078257482L160.20000000000002,142.64869731003557L160.79999999999998,143.84299433828102L161.39999999999998,143.44392236829228L162,145.62513487394904L162.6,147.64088163439186L163.2,145.65862490334365L163.8,144.83830331225147L164.4,144.80036060884962L165,147.04437567120019L165.6,142.55202881788347L166.2,143.05893778976878L166.79999999999998,144.12988369073716L167.4,144.64156062348434L168,148.30998113121836L168.6,145.90842803338916L169.20000000000002,145.45303674848725L169.8,145.85888565517575L170.39999999999998,146.7038752050426L171,141.20715245870113L171.6,141.8661229358158L172.2,143.2691012032454L172.8,144.91093370612214L173.4,147.34720486926486L174,145.48440136925848L174.6,146.33718426624816L175.2,146.2448264078292L175.79999999999998,146.75927480107504L176.4,144.14056399293318L177,145.19230379011776L177.6,145.60039859322634L178.20000000000002,147.7829186949606L178.8,145.31959558328842L179.39999999999998,145.69402735114605L180,145.46246975370553L180.6,146.96205546831075L181.2,148.9961899670461L181.8,147.01790688847498L182.4,146.73773781805232L183,146.95276409247913L183.60000000000002,147.67248585289357L184.2,144.43230385064467L184.79999999999998,144.22652032959095L185.4,145.35105629257933L186,146.2447018190776L186.6,149.3143611911667L187.20000000000002,147.53847583514846L187.8,146.5211875282669L188.4,147.01956252562664L189,149.36424340789117L189.6,145.19015910119572L190.2,145.13282131586922L190.8,145.57291175087963L191.4,146.9449732939045L192,151.72904385614237L192.60000000000002,149.14454230559573L193.2,148.27745716656867L193.79999999999998,148.09215170225872L194.4,148.2787493919216L195,145.81755907465313L195.6,146.11854119576589L196.20000000000002,146.6646264606371L196.8,149.05228812726267L197.4,146.24078632731394L198,147.45430685434235L198.6,147.26602813067134L199.2,148.91125138925767L199.8,150.3404451916253L200.4,148.63047731774859L201,148.07992308353076L201.60000000000002,147.88302268046948L202.20000000000002,148.37035626744517L202.79999999999998,145.91734907175277L203.39999999999998,146.04293093072476L204,146.58273597848677L204.6,147.44367301191247L205.2,150.72356369729056L205.8,149.00050693036246L206.4,148.27333856889283L207,147.6704285255194L207.6,149.60136788404708L208.2,146.417676465611L208.79999999999998,146.10553207709413L209.4,146.92565460183633L210,148.0458324755932L210.6,153.0908024850908L211.20000000000002,151.5000317475253L211.8,150.86988797472242L212.39999999999998,150.97351352335804L213,151.57096254107432L213.6,148.7579473074898L214.2,149.27683647572744L214.8,150.35897803763396L215.4,152.63895571754284L216,150.24384394402847L216.6,150.93373167384988L217.2,150.37522774459518L217.79999999999998,151.49431332909026L218.4,152.77133814769758L219,151.03676993317072L219.6,150.78736784805852L220.20000000000002,150.92999810924132L220.8,152.55063232551018L221.39999999999998,149.28739436827104L222,150.10523348120054L222.6,150.01787046581825L223.2,150.6465034737606L223.8,153.59684173391776L224.4,152.2418328824233L225,151.42085424577738L225.60000000000002,151.6364878511362L226.2,152.9001814834833L226.79999999999998,149.2729461498594L227.4,149.40433510537162L228,150.18010587083427L228.6,151.12827726604814L229.20000000000002,154.61986885062225L229.8,152.44465545718688L230.4,152.48299654417127L231,151.75752694612478L231.6,152.36265100462674L232.2,149.9799935321417L232.8,150.20494729630587L233.4,150.6844495759553L234,152.96111804204065L234.60000000000002,150.9819371548705L235.2,151.7275904996641L235.79999999999998,151.42285604378267L236.4,153.0027181954226L237,154.11371977981176L237.6,152.00875445617982L238.20000000000002,152.0161202768311L238.8,151.60911088555008L239.4,152.05859484793115L240,149.53524599286735L240.6,150.47414832748663L241.2,151.25612721455707L241.8,151.54608212577867L242.4,154.50937835276665L243,152.96375551114804L243.60000000000002,152.03551729047493L244.20000000000002,152.16780730351326L244.79999999999998,153.5836896177005L245.39999999999998,150.28009729638921L246,150.3475196116481L246.6,151.33018082400045L247.20000000000002,152.3227942577196L247.8,156.1808485957201L248.4,153.6992737212111L249.00000000000003,152.6575852622586L249.6,152.86166032840794L250.2,153.24740461472663L250.79999999999998,150.70863297063505L251.4,151.07842126326796L252,151.51217971098643L252.6,153.9863737733298L253.20000000000002,151.812070006299L253.79999999999998,152.52072355846644L254.39999999999998,151.87774719615825L255,153.27932634594072L255.6,154.6372864617429" style="fill: none;" fill="none"></path></g></g></g></g><g opacity="0.2"><g><g><g><path stroke="rgb(255, 112, 67)" stroke-width="2px" d="M31.799999999999997,-49.314034064610816L32.4,14.316460907459252L33,5.6686517298221455L33.6,-3.312933772802353L36,-28.857731650273028L36.6,7.366882930199307L37.2,32.99997863173485L37.800000000000004,42.26818772157032L38.4,22.65858319401741L38.99999999999999,11.37580342094103L39.6,32.10754932959874L40.199999999999996,36.9188136557738L40.8,13.000184466441464L41.4,26.90127459168434L42,30.637257218360887L42.599999999999994,30.373946249485016L43.2,59.779524723688766L43.8,20.612538278102875L44.4,21.291783869266496L45,27.9668414791425L45.6,25.260716845591862L46.199999999999996,22.675170173247654L46.800000000000004,39.324467798074075L47.4,-3.9645734727382793L48,81.61165259281793L48.6,74.94098349908987L49.2,38.53267398476601L49.8,37.63688918948173L50.400000000000006,73.32145253320535L51,64.81206843753655L51.6,41.6004445850849L52.199999999999996,34.050189375877366L52.800000000000004,77.18741289774576L53.4,54.310459191600486L54,35.72789199153582L54.6,47.61288754145304L55.2,63.92706810931365L55.8,69.58190194765726L56.400000000000006,92.64005228380361L57,56.09975759685039L57.6,58.7500843356053L58.2,65.08209039270876L58.8,88.59177434941132L59.4,52.918361792961754L60,62.38872835536797L60.6,66.49553693334262L61.199999999999996,80.14452548821768L61.800000000000004,105.79760762055714L62.4,60.24841459592183L63,55.93210748831431L63.599999999999994,70.65071443219979L64.2,81.70498365660508L64.8,51.05801191926001L65.4,86.2971298843622L66,73.88109457492828L66.60000000000001,104.5619582583507L67.2,91.6934002637863L67.8,87.12228081623714L68.4,87.39021474619707L69,103.87332754333814L69.6,100.629584039251L70.2,78.93421815832455L70.80000000000001,71.28657305737336L71.39999999999999,85.27252492308615L72,103.45085044205189L72.60000000000001,55.198162962992974L73.2,93.31095310052237L73.8,100.15509679416814L74.4,103.66870107253393L75,119.83562457809846L75.60000000000001,88.48467697203158L76.2,93.55066572129725L76.8,103.28262154757977L77.4,120.24633181095123L77.99999999999999,77.48882849514484L78.6,96.29254320760568L79.2,104.30836210151514L79.80000000000001,112.00496956209342L80.39999999999999,128.71460745235282L81,87.94108708202837L81.6,97.86954439679782L82.2,103.42343503733476L82.8,108.35093276699385L83.39999999999999,84.18367472290993L84,110.19205082952976L84.60000000000001,108.38349863390128L85.19999999999999,125.218707429866L85.8,101.03513714671135L86.4,115.68752072254817L87,112.59658403197925L87.6,119.24721907327573L88.2,122.45110327502093L88.8,105.83810798327129L89.4,109.94506308933099L90,111.14640290041764L90.6,124.9825188095371L91.2,93.59689533213772L91.80000000000001,119.88633428514004L92.39999999999999,117.33466490606467L93,125.68526017914215L93.60000000000001,138.89752910286188L94.2,115.51589237650235L94.8,120.90415865927935L95.4,123.57622283945481L96,134.3523597791791L96.6,105.04968431591988L97.2,118.39286875724791L97.8,121.259778658549L98.4,129.3819183309873L99,140.3679970478018L99.6,117.08163654555878L100.2,121.20420421908298L100.80000000000001,126.71399723241727L101.39999999999999,126.25116995970407L102,112.7820812612772L102.6,124.24639467895031L103.2,126.94934697945912L103.8,135.9794808998704L104.39999999999999,113.47773067156473L105,130.68810265014568L105.60000000000001,120.91808615376553L106.19999999999999,134.61161924650273L106.8,135.84430507818857L107.4,123.69735028098027L108,127.24710303793351L108.6,130.47846125562987L109.2,136.85337073604265L109.8,113.42711254457633L110.4,129.89390943944454L111,130.7108328193426L111.6,131.79548865308365L112.2,140.64199724048376L112.80000000000001,130.18833931038776L113.39999999999999,135.513990479211L114,135.29389796902734L114.60000000000001,142.58386435111362L115.2,118.12517293542624L115.8,129.34393825133643L116.4,135.03812587012845L117,137.12896442164978L117.6,145.1638869146506L118.2,127.71732997894287L118.8,132.28395467748246L119.4,134.1910982951522L120,136.59944122781357L120.6,122.3491160646081L121.2,129.00063393761715L121.80000000000001,135.39961798240742L122.39999999999999,141.00790717452765L123,125.9853313813607L123.60000000000001,136.47030236323675L124.2,133.20867510636648L124.8,137.8384057879448L125.39999999999999,142.3437670941154L126,130.1506193180879L126.60000000000001,132.8397650097807L127.19999999999999,135.81679076701403L127.8,138.61707434803247L128.4,121.16467094173034L129,136.5365367208918L129.6,132.12161621203026L130.2,138.47401531537375L130.8,146.80837344502407L131.4,132.4490039125085L132,137.27735341340303L132.6,138.02807906766733L126,113.30568472047648L126.60000000000001,135.99952960511047L127.19999999999999,138.72652716437975L127.8,139.6365837951501L128.4,124.58892972022294L129,133.32804421087107L129.6,136.90225616842508L130.2,138.14248453329006L130.8,146.91729509706298L131.4,134.70813363293806L132,131.5616151764989L132.6,139.80570284773907L133.20000000000002,143.7056723808249L133.8,127.12617707252501L134.4,133.72579469780126L135,136.9435917412241L135.6,141.92013974736136L136.20000000000002,151.91955145572624L136.8,134.83219896256924L137.39999999999998,137.1396463190516L138,135.83056440701085L138.6,139.29123541464406L139.2,128.05116857836643L139.8,137.87054306020337L140.4,137.8985958620906L141,143.62031977126995L141.60000000000002,133.16877550880113L142.2,139.36335653811693L142.79999999999998,140.0793074145913L143.4,142.01224730163813L144,144.66427010297775L144.6,134.01371872176725L145.20000000000002,137.83115631093582L145.8,142.4332261532545L146.4,142.57670645415783L147,126.77288686980805L147.6,139.16727265467244L148.2,138.7730937898159L148.8,141.04762361198664L149.4,148.08205234011015L150,138.34656885017952L150.60000000000002,141.3501821284493L151.20000000000002,143.1842668429017L151.79999999999998,148.6375787742436L152.4,133.99724163860083L153,140.88988979160786L153.6,142.9506864224871L154.20000000000002,146.18461987127858L154.8,154.91539508228502L155.4,141.45067108919224L155.99999999999997,145.36799687395492L156.6,144.98218476275605L157.2,145.74044928699732L157.79999999999998,135.1480365867416L158.4,145.3036344125867L159,143.81956866135198L159.60000000000002,151.33171008403102L160.20000000000002,137.9286451091369L160.79999999999998,146.12134538094202L161.39999999999998,144.20678377896547L162,148.53735356405377L162.6,150.45407279208302L163.2,142.49135018140078L163.8,143.23654806365568L164.4,145.91445871442556L150,122.96355961014827L150.60000000000002,144.35401519884667L151.20000000000002,141.08204305917025L151.79999999999998,149.20143899321556L152.4,133.26043615241846L153,139.70801989982525L153.6,144.44667223344248L154.20000000000002,146.1060478488604L154.8,153.31747334574658L155.4,139.2018203139305L155.99999999999997,142.2955263853073L156.6,144.59412344545126L157.2,145.87636873871088L157.79999999999998,137.91885336985192L158.4,143.81840376307568L159,143.73478751132885L159.60000000000002,148.68243651588756L160.20000000000002,138.60535210122663L160.79999999999998,145.63443988064927L161.39999999999998,142.8453144133091L162,148.89695363243422L162.6,150.66450177505612L163.2,142.68523980677128L163.8,143.60782092561325L164.4,144.74344655374685L165,150.41039826472598L165.6,135.8135085379084L166.2,143.81930124759674L166.79999999999998,145.73630254218975L167.4,145.4090760226051L168,153.8126118928194L168.6,142.30609838664532L169.20000000000002,144.76994982113442L169.8,146.46765901520848L170.39999999999998,147.97135952984294L171,132.9620683391889L171.6,142.85457865148783L172.2,145.37356860438982L172.8,147.3736824604372L173.4,151.00161161397892L174,142.69019611924887L174.6,147.61635861173272L175.2,146.1062896202008L175.79999999999998,147.53094739094377L176.4,140.21249778072038L177,146.7699134858946L177.6,146.21254079788923L178.20000000000002,151.05669884756207L178.8,141.62461091578007L179.39999999999998,146.25567500293255L180,145.11513335754475L180.6,149.2114340402186L181.2,152.04739171514908L181.8,144.05048227061826L182.4,146.31748421241838L183,147.2753035041193L183.60000000000002,148.75206849351525L184.2,139.57203084727126L184.79999999999998,143.91784504801035L185.4,147.03786023706198L186,147.58517010882497L186.6,153.9188502493004L187.20000000000002,144.87464780112109L187.8,144.99525506794453L188.4,147.7671250216663L189,152.88126473128796L189.6,138.92903264115253L190.2,145.04681463787952L190.8,146.23304740339518L191.4,149.00306560844183L192,158.90514969949922L192.60000000000002,145.26778997977573L193.2,146.97682945802808L193.79999999999998,147.8141935057938L194.4,148.55864592641592L195,142.12577359875044L195.6,146.57001437743506L196.20000000000002,147.48375435794392L196.8,152.633780627201L197.4,142.02353362739086L198,149.27458764488497L198.6,146.98361004516482L199.2,151.3790862771372L199.8,152.4842358951767L200.4,146.06552550693354L201,147.25409173220396L201.60000000000002,147.58767207587758L202.20000000000002,149.1013566479087L202.79999999999998,142.23783827821413L203.39999999999998,146.2313037191828L204,147.39244355012974L204.6,148.73507856205106L205.2,155.64339972535768L205.8,146.41592177997032L206.4,147.1825860266884L207,146.76606346045932L207.6,152.49777692183852L208.2,141.6421393379569L208.79999999999998,145.6373154943188L209.4,148.15583838894963L210,149.72609928622842L210.6,160.6582574993372L211.20000000000002,149.1138756411771L211.8,149.92467231551808L212.39999999999998,151.12895184631148L213,152.46713606764874L213.6,144.53842445711297L214.2,150.05517022808394L214.8,151.98219038049382L215.4,156.05892223740616L216,146.65117628375688L216.6,151.96856326858202L217.2,149.5374718507131L217.79999999999998,153.1729417058329L218.4,154.6868753756086L219,148.43491761138043L219.6,150.41326472039023L220.20000000000002,151.1439435010155L220.8,154.98158364991346L221.39999999999998,144.39253743241233L222,151.33199215059477L222.6,149.88682594274482L223.2,151.58945298567414L223.8,158.02234912415346L224.4,150.2093196051816L225,150.18938629080853L225.60000000000002,151.95993825917444L226.2,154.7957219320039L226.79999999999998,143.8320931494236L227.4,149.60141853863993L228,151.34376201902825L228.6,152.550534358869L229.20000000000002,159.85725622748336L229.8,149.1818353670339L230.4,152.5405081746479L231,150.66932254905504L231.6,153.27033709237972L232.2,146.4060073234141L232.8,150.54237794255218L233.4,151.40370299542946L234,156.37612074116865L234.60000000000002,148.01316582411528L235.2,152.84607051685452L235.79999999999998,150.96575435996056L236.4,155.37251142288247L237,155.78022215639552L237.6,148.8513064707319L238.20000000000002,152.02716900780797L238.8,150.99859679862857L239.4,152.73282079150277L240,145.75022271027166L240.6,151.88250182941556L241.2,152.42909554516274L241.8,151.98101449261108L242.4,158.9543226932486L243,150.6453212487201L243.60000000000002,150.64315995946527L244.20000000000002,152.36624232307076L244.79999999999998,155.7075130889813L245.39999999999998,145.32470881442228L246,150.4486530845364L246.6,152.804172642529L247.20000000000002,153.81171440829834L247.8,161.96793010272086L248.4,149.9769114094476L249.00000000000003,151.0950525738299L249.6,153.16777292763194L250.2,153.82602104420465L250.79999999999998,146.9004755044977L251.4,151.63310370221734L252,152.16281738256416L252.6,157.69766486684483L253.20000000000002,148.55061435575288L253.79999999999998,153.58370388671756L254.39999999999998,150.91328265269598L255,155.38169507061443L255.6,156.67422663544613" style="fill: none;" fill="none"></path></g></g></g></g></g></g><g transform="translate(60, 177)" clip-path="url(#clip_1)"><clipPath id="clip_1"><rect width="270" height="22"></rect></clipPath><g><g><line x1="0" y1="0" x2="0" y2="5" style="visibility: inherit;" fill="rgb(0, 0, 0)" stroke="rgb(204, 204, 204)" stroke-width="1px"></line><line x1="30" y1="0" x2="30" y2="5" style="visibility: inherit;" fill="rgb(0, 0, 0)" stroke="rgb(204, 204, 204)" stroke-width="1px"></line><line x1="60" y1="0" x2="60" y2="5" style="visibility: inherit;" fill="rgb(0, 0, 0)" stroke="rgb(204, 204, 204)" stroke-width="1px"></line><line x1="90" y1="0" x2="90" y2="5" style="visibility: inherit;" fill="rgb(0, 0, 0)" stroke="rgb(204, 204, 204)" stroke-width="1px"></line><line x1="120" y1="0" x2="120" y2="5" style="visibility: inherit;" fill="rgb(0, 0, 0)" stroke="rgb(204, 204, 204)" stroke-width="1px"></line><line x1="150" y1="0" x2="150" y2="5" style="visibility: inherit;" fill="rgb(0, 0, 0)" stroke="rgb(204, 204, 204)" stroke-width="1px"></line><line x1="180" y1="0" x2="180" y2="5" style="visibility: inherit;" fill="rgb(0, 0, 0)" stroke="rgb(204, 204, 204)" stroke-width="1px"></line><line x1="210" y1="0" x2="210" y2="5" style="visibility: inherit;" fill="rgb(0, 0, 0)" stroke="rgb(204, 204, 204)" stroke-width="1px"></line><line x1="240" y1="0" x2="240" y2="5" style="visibility: inherit;" fill="rgb(0, 0, 0)" stroke="rgb(204, 204, 204)" stroke-width="1px"></line><line x1="270" y1="0" x2="270" y2="5" style="visibility: inherit;" fill="rgb(0, 0, 0)" stroke="rgb(204, 204, 204)" stroke-width="1px"></line></g><g transform="translate(0, 8)"><text x="0" y="0" dx="0em" dy="0.95em" style="text-anchor: middle; visibility: hidden; font-family: Roboto, sans-serif; font-size: 12px; font-weight: 200;" fill="rgb(33, 33, 33)" stroke="none" stroke-width="1px">-5k</text><text x="30" y="0" dx="0em" dy="0.95em" style="text-anchor: middle; visibility: inherit; font-family: Roboto, sans-serif; font-size: 12px; font-weight: 200;" fill="rgb(33, 33, 33)" stroke="none" stroke-width="1px">0</text><text x="60" y="0" dx="0em" dy="0.95em" style="text-anchor: middle; visibility: inherit; font-family: Roboto, sans-serif; font-size: 12px; font-weight: 200;" fill="rgb(33, 33, 33)" stroke="none" stroke-width="1px">5k</text><text x="90" y="0" dx="0em" dy="0.95em" style="text-anchor: middle; visibility: inherit; font-family: Roboto, sans-serif; font-size: 12px; font-weight: 200;" fill="rgb(33, 33, 33)" stroke="none" stroke-width="1px">10k</text><text x="120" y="0" dx="0em" dy="0.95em" style="text-anchor: middle; visibility: inherit; font-family: Roboto, sans-serif; font-size: 12px; font-weight: 200;" fill="rgb(33, 33, 33)" stroke="none" stroke-width="1px">15k</text><text x="150" y="0" dx="0em" dy="0.95em" style="text-anchor: middle; visibility: inherit; font-family: Roboto, sans-serif; font-size: 12px; font-weight: 200;" fill="rgb(33, 33, 33)" stroke="none" stroke-width="1px">20k</text><text x="180" y="0" dx="0em" dy="0.95em" style="text-anchor: middle; visibility: inherit; font-family: Roboto, sans-serif; font-size: 12px; font-weight: 200;" fill="rgb(33, 33, 33)" stroke="none" stroke-width="1px">25k</text><text x="210" y="0" dx="0em" dy="0.95em" style="text-anchor: middle; visibility: inherit; font-family: Roboto, sans-serif; font-size: 12px; font-weight: 200;" fill="rgb(33, 33, 33)" stroke="none" stroke-width="1px">30k</text><text x="240" y="0" dx="0em" dy="0.95em" style="text-anchor: middle; visibility: inherit; font-family: Roboto, sans-serif; font-size: 12px; font-weight: 200;" fill="rgb(33, 33, 33)" stroke="none" stroke-width="1px">35k</text><text x="270" y="0" dx="0em" dy="0.95em" style="text-anchor: middle; visibility: hidden; font-family: Roboto, sans-serif; font-size: 12px; font-weight: 200;" fill="rgb(33, 33, 33)" stroke="none" stroke-width="1px">40k</text></g><line x1="0" y1="0" x2="270" y2="0" fill="rgb(0, 0, 0)" stroke="rgb(204, 204, 204)" stroke-width="1px"></line></g></g></g></g></svg>