<svg viewBox="0 0 330 200" xmlns="http://www.w3.org/2000/svg"><g><g><g><g><g><line x1="50" y1="177" x2="45" y2="177" style="visibility: inherit;" fill="rgb(0, 0, 0)" stroke="rgb(204, 204, 204)" stroke-width="1px"></line><line x1="50" y1="160.9090909090909" x2="45" y2="160.9090909090909" style="visibility: inherit;" fill="rgb(0, 0, 0)" stroke="rgb(204, 204, 204)" stroke-width="1px"></line><line x1="50" y1="144.8181818181818" x2="45" y2="144.8181818181818" style="visibility: inherit;" fill="rgb(0, 0, 0)" stroke="rgb(204, 204, 204)" stroke-width="1px"></line><line x1="50" y1="128.72727272727272" x2="45" y2="128.72727272727272" style="visibility: inherit;" fill="rgb(0, 0, 0)" stroke="rgb(204, 204, 204)" stroke-width="1px"></line><line x1="50" y1="112.63636363636364" x2="45" y2="112.63636363636364" style="visibility: inherit;" fill="rgb(0, 0, 0)" stroke="rgb(204, 204, 204)" stroke-width="1px"></line><line x1="50" y1="96.54545454545453" x2="45" y2="96.54545454545453" style="visibility: inherit;" fill="rgb(0, 0, 0)" stroke="rgb(204, 204, 204)" stroke-width="1px"></line><line x1="50" y1="80.45454545454544" x2="45" y2="80.45454545454544" style="visibility: inherit;" fill="rgb(0, 0, 0)" stroke="rgb(204, 204, 204)" stroke-width="1px"></line><line x1="50" y1="64.36363636363635" x2="45" y2="64.36363636363635" style="visibility: inherit;" fill="rgb(0, 0, 0)" stroke="rgb(204, 204, 204)" stroke-width="1px"></line><line x1="50" y1="48.272727272727266" x2="45" y2="48.272727272727266" style="visibility: inherit;" fill="rgb(0, 0, 0)" stroke="rgb(204, 204, 204)" stroke-width="1px"></line><line x1="50" y1="32.18181818181817" x2="45" y2="32.18181818181817" style="visibility: inherit;" fill="rgb(0, 0, 0)" stroke="rgb(204, 204, 204)" stroke-width="1px"></line><line x1="50" y1="16.090909090909076" x2="45" y2="16.090909090909076" style="visibility: inherit;" fill="rgb(0, 0, 0)" stroke="rgb(204, 204, 204)" stroke-width="1px"></line><line x1="50" y1="0" x2="45" y2="0" style="visibility: inherit;" fill="rgb(0, 0, 0)" stroke="rgb(204, 204, 204)" stroke-width="1px"></line></g><g transform="translate(40, 0)"><text x="0" y="177" dx="0em" dy="0.3em" style="text-anchor: end; visibility: hidden; font-family: Roboto, sans-serif; font-size: 12px; font-weight: 200;" fill="rgb(33, 33, 33)" stroke="none" stroke-width="1px">0.02</text><text x="0" y="160.9090909090909" dx="0em" dy="0.3em" style="text-anchor: end; visibility: inherit; font-family: Roboto, sans-serif; font-size: 12px; font-weight: 200;" fill="rgb(33, 33, 33)" stroke="none" stroke-width="1px">0.04</text><text x="0" y="144.8181818181818" dx="0em" dy="0.3em" style="text-anchor: end; visibility: hidden; font-family: Roboto, sans-serif; font-size: 12px; font-weight: 200;" fill="rgb(33, 33, 33)" stroke="none" stroke-width="1px">0.06</text><text x="0" y="128.72727272727272" dx="0em" dy="0.3em" style="text-anchor: end; visibility: inherit; font-family: Roboto, sans-serif; font-size: 12px; font-weight: 200;" fill="rgb(33, 33, 33)" stroke="none" stroke-width="1px">0.08</text><text x="0" y="112.63636363636364" dx="0em" dy="0.3em" style="text-anchor: end; visibility: hidden; font-family: Roboto, sans-serif; font-size: 12px; font-weight: 200;" fill="rgb(33, 33, 33)" stroke="none" stroke-width="1px">0.1</text><text x="0" y="96.54545454545453" dx="0em" dy="0.3em" style="text-anchor: end; visibility: inherit; font-family: Roboto, sans-serif; font-size: 12px; font-weight: 200;" fill="rgb(33, 33, 33)" stroke="none" stroke-width="1px">0.12</text><text x="0" y="80.45454545454544" dx="0em" dy="0.3em" style="text-anchor: end; visibility: hidden; font-family: Roboto, sans-serif; font-size: 12px; font-weight: 200;" fill="rgb(33, 33, 33)" stroke="none" stroke-width="1px">0.14</text><text x="0" y="64.36363636363635" dx="0em" dy="0.3em" style="text-anchor: end; visibility: inherit; font-family: Roboto, sans-serif; font-size: 12px; font-weight: 200;" fill="rgb(33, 33, 33)" stroke="none" stroke-width="1px">0.16</text><text x="0" y="48.272727272727266" dx="0em" dy="0.3em" style="text-anchor: end; visibility: hidden; font-family: Roboto, sans-serif; font-size: 12px; font-weight: 200;" fill="rgb(33, 33, 33)" stroke="none" stroke-width="1px">0.18</text><text x="0" y="32.18181818181817" dx="0em" dy="0.3em" style="text-anchor: end; visibility: inherit; font-family: Roboto, sans-serif; font-size: 12px; font-weight: 200;" fill="rgb(33, 33, 33)" stroke="none" stroke-width="1px">0.2</text><text x="0" y="16.090909090909076" dx="0em" dy="0.3em" style="text-anchor: end; visibility: hidden; font-family: Roboto, sans-serif; font-size: 12px; font-weight: 200;" fill="rgb(33, 33, 33)" stroke="none" stroke-width="1px">0.22</text><text x="0" y="0" dx="0em" dy="0.3em" style="text-anchor: end; visibility: hidden; font-family: Roboto, sans-serif; font-size: 12px; font-weight: 200;" fill="rgb(33, 33, 33)" stroke="none" stroke-width="1px">0.24</text></g><line x1="50" y1="0" x2="50" y2="177" fill="rgb(0, 0, 0)" stroke="rgb(204, 204, 204)" stroke-width="1px"></line></g></g><g transform="translate(50, 0)" clip-path="url(#clip_0)"><clipPath id="clip_0"><rect width="280" height="176"></rect></clipPath><g><g><g><line x1="0" y1="0" x2="0" y2="177" fill="rgb(0, 0, 0)" stroke="rgb(66, 66, 66)" stroke-width="1px" opacity="0.25"></line><line x1="31.11111111111111" y1="0" x2="31.11111111111111" y2="177" fill="rgb(0, 0, 0)" stroke="rgb(66, 66, 66)" stroke-width="1px" opacity="0.25"></line><line x1="62.22222222222222" y1="0" x2="62.22222222222222" y2="177" fill="rgb(0, 0, 0)" stroke="rgb(66, 66, 66)" stroke-width="1px" opacity="0.25"></line><line x1="93.33333333333333" y1="0" x2="93.33333333333333" y2="177" fill="rgb(0, 0, 0)" stroke="rgb(66, 66, 66)" stroke-width="1px" opacity="0.25"></line><line x1="124.44444444444444" y1="0" x2="124.44444444444444" y2="177" fill="rgb(0, 0, 0)" stroke="rgb(66, 66, 66)" stroke-width="1px" opacity="0.25"></line><line x1="155.55555555555557" y1="0" x2="155.55555555555557" y2="177" fill="rgb(0, 0, 0)" stroke="rgb(66, 66, 66)" stroke-width="1px" opacity="0.25"></line><line x1="186.66666666666666" y1="0" x2="186.66666666666666" y2="177" fill="rgb(0, 0, 0)" stroke="rgb(66, 66, 66)" stroke-width="1px" opacity="0.25"></line><line x1="217.77777777777777" y1="0" x2="217.77777777777777" y2="177" fill="rgb(0, 0, 0)" stroke="rgb(66, 66, 66)" stroke-width="1px" opacity="0.25"></line><line x1="248.88888888888889" y1="0" x2="248.88888888888889" y2="177" fill="rgb(0, 0, 0)" stroke="rgb(66, 66, 66)" stroke-width="1px" opacity="0.25"></line><line x1="280" y1="0" x2="280" y2="177" fill="rgb(0, 0, 0)" stroke="rgb(66, 66, 66)" stroke-width="1px" opacity="0.25"></line></g><g><line x1="0" y1="177" x2="280" y2="177" fill="rgb(0, 0, 0)" stroke="rgb(66, 66, 66)" stroke-width="1px" opacity="0.25"></line><line x1="0" y1="160.9090909090909" x2="280" y2="160.9090909090909" fill="rgb(0, 0, 0)" stroke="rgb(66, 66, 66)" stroke-width="1px" opacity="0.25"></line><line x1="0" y1="144.8181818181818" x2="280" y2="144.8181818181818" fill="rgb(0, 0, 0)" stroke="rgb(66, 66, 66)" stroke-width="1px" opacity="0.25"></line><line x1="0" y1="128.72727272727272" x2="280" y2="128.72727272727272" fill="rgb(0, 0, 0)" stroke="rgb(66, 66, 66)" stroke-width="1px" opacity="0.25"></line><line x1="0" y1="112.63636363636364" x2="280" y2="112.63636363636364" fill="rgb(0, 0, 0)" stroke="rgb(66, 66, 66)" stroke-width="1px" opacity="0.25"></line><line x1="0" y1="96.54545454545453" x2="280" y2="96.54545454545453" fill="rgb(0, 0, 0)" stroke="rgb(66, 66, 66)" stroke-width="1px" opacity="0.25"></line><line x1="0" y1="80.45454545454544" x2="280" y2="80.45454545454544" fill="rgb(0, 0, 0)" stroke="rgb(66, 66, 66)" stroke-width="1px" opacity="0.25"></line><line x1="0" y1="64.36363636363635" x2="280" y2="64.36363636363635" fill="rgb(0, 0, 0)" stroke="rgb(66, 66, 66)" stroke-width="1px" opacity="0.25"></line><line x1="0" y1="48.272727272727266" x2="280" y2="48.272727272727266" fill="rgb(0, 0, 0)" stroke="rgb(66, 66, 66)" stroke-width="1px" opacity="0.25"></line><line x1="0" y1="32.18181818181817" x2="280" y2="32.18181818181817" fill="rgb(0, 0, 0)" stroke="rgb(66, 66, 66)" stroke-width="1px" opacity="0.25"></line><line x1="0" y1="16.090909090909076" x2="280" y2="16.090909090909076" fill="rgb(0, 0, 0)" stroke="rgb(66, 66, 66)" stroke-width="1px" opacity="0.25"></line><line x1="0" y1="0" x2="280" y2="0" fill="rgb(0, 0, 0)" stroke="rgb(66, 66, 66)" stroke-width="1px" opacity="0.25"></line></g></g></g><g><g><line x1="0" y1="193.09090909090907" x2="280" y2="193.09090909090907" fill="rgb(0, 0, 0)" stroke="rgb(153, 153, 153)" stroke-width="1.5px"></line></g></g><g><g><line x1="31.11111111111111" y1="0" x2="31.11111111111111" y2="177" fill="rgb(0, 0, 0)" stroke="rgb(153, 153, 153)" stroke-width="1.5px"></line></g></g><g><g><g><g><g><path stroke="rgb(255, 112, 67)" stroke-width="2px" d="M34.84444444444444,-29.089754107865996L35.46666666666667,12.981065065202545L36.08888888888889,-0.47454812509817157L36.711111111111116,40.039938387006025L37.333333333333336,20.193431341975266L37.955555555555556,30.409979281935993L38.577777777777776,27.57365675563787L39.2,-11.63706768269652L39.82222222222222,2.026809491343347L40.44444444444444,8.077652434205106L41.06666666666667,-26.57279266553409L41.68888888888888,-10.131651934649316L42.31111111111111,45.32609070723378L42.93333333333333,70.89041498895467L43.55555555555556,9.103786690997353L44.17777777777778,10.211281015791254L44.800000000000004,7.742384821573189L45.42222222222222,38.137985240312204L46.044444444444444,68.62214239685574L46.666666666666664,77.35210515032169L47.28888888888889,35.70318565878981L47.91111111111111,68.75520997751416L48.53333333333333,27.55396596196339L49.15555555555555,29.51826450280252L49.77777777777778,-16.77468862188135L50.4,43.92673744272289L51.022222222222226,82.0624557847076L51.644444444444446,72.56131543111111L52.266666666666666,91.52885124905357L52.888888888888886,91.43971475142024L53.51111111111111,114.5397693869585L54.13333333333333,43.679391201801515L54.75555555555556,87.3342464550362L55.37777777777778,75.42295653926129L56,84.20111489804502L56.62222222222222,77.47646633233086L57.24444444444445,108.26035999313027L57.86666666666667,127.69036096881106L58.488888888888894,127.80336684208278L59.111111111111114,131.42215196082006L59.733333333333334,119.34494918455549L60.355555555555554,132.1983953988606L60.977777777777774,133.12289299497158L61.6,117.48355935226924L62.22222222222222,92.52526841288487L62.84444444444445,84.18611869756688L63.46666666666666,67.94522484702593L64.08888888888889,109.39940881848129L64.71111111111111,104.43428668342791L65.33333333333333,89.29702982500986L65.95555555555555,72.38954207201067L66.57777777777778,103.608994718786L67.2,87.9437494148099L67.82222222222222,46.86888971199821L68.44444444444444,66.37859785392752L69.06666666666666,51.23220910710831L69.68888888888888,73.59877529031047L70.31111111111112,95.18368643042507L70.93333333333334,93.6116404981438L71.55555555555554,97.51725825538017L72.17777777777778,114.29389838336141L72.8,60.393921028235L73.42222222222223,75.32877078149771L74.04444444444444,75.25223915763043L74.66666666666667,70.05032296118992L75.28888888888889,100.57502686707348L75.91111111111111,119.02654632682685L76.53333333333333,108.3464977677876L77.15555555555555,99.21642865104218L77.77777777777779,116.30824133211381L78.4,109.56838701529617L79.02222222222221,98.30817537090802L79.64444444444445,111.2679704933805L80.26666666666667,129.71824366316943L80.88888888888889,129.5180023551655L81.5111111111111,128.720853059657L82.13333333333334,141.68157609245148L82.75555555555556,149.03086709019846L83.37777777777777,141.06983581370133L84,137.4337199964557L84.62222222222222,61.14745786852603L85.24444444444445,75.56757143829985L85.86666666666666,112.5719117046172L86.48888888888888,129.84742534961765L87.11111111111111,126.96331681277056L87.73333333333333,135.47375576990447L88.35555555555555,146.72837902132684L88.97777777777777,136.6798027538517L89.60000000000001,132.81527936250433L90.22222222222223,142.4358647187705L90.84444444444443,92.49569026406085L91.46666666666667,99.17975132385722L92.08888888888889,117.37093066514521L92.71111111111112,109.67599387859804L93.33333333333333,122.84632115518534L93.95555555555555,133.37705673250846L94.57777777777778,91.29927008921787L95.2,99.51204602356592L95.82222222222222,100.81976161750566L96.44444444444444,78.38373712836425L97.06666666666666,113.25357089098253L97.6888888888889,127.8260674122873L98.3111111111111,117.26370219524846L98.93333333333334,125.83962650000917L99.55555555555556,118.3540064453529L100.17777777777778,126.25828699932266L100.8,133.75090082630433L101.42222222222222,143.65665594019353L102.04444444444445,153.57038744569175L102.66666666666666,165.52617100468217L103.28888888888889,162.04944715418617L103.91111111111111,163.21857661371894L104.53333333333333,152.73389460282982L105.15555555555555,155.7952891799602L105.77777777777777,121.91416043986365L106.4,130.3584854071489L107.02222222222223,66.73071772681939L107.64444444444443,59.00568414010782L108.26666666666667,87.24620654748783L108.88888888888889,108.53008457001555L109.51111111111112,123.39636150069755L110.13333333333333,117.42718234915351L110.75555555555556,134.42174386780206L111.37777777777778,130.26866797469322L112,137.19493149138847L112.62222222222222,138.01697732025437L113.24444444444444,152.6722685889247L113.86666666666667,154.2081820366289L114.4888888888889,156.88877845337478L115.1111111111111,115.22503607697669L115.73333333333333,138.73395452120153L116.35555555555555,155.31406264137178L116.97777777777779,145.46969496550366L117.6,151.9210250040424L118.22222222222223,157.71927610346327L118.84444444444445,113.71490297772407L119.46666666666667,99.40989356400593L120.08888888888889,98.50587497450128L120.71111111111111,77.71748222506554L121.33333333333334,115.32516782503866L121.95555555555555,140.30701583961843L122.57777777777777,147.5525438803121L123.2,140.18693721454L123.82222222222222,105.28059163080952L124.44444444444444,56.151752785260186L125.06666666666666,68.69551369437097L125.6888888888889,54.58020774005418L126.31111111111112,50.36674963792031L126.93333333333332,45.215119251857296L127.55555555555556,58.6979476420311L128.17777777777778,98.78523717273642L128.8,107.41624193052976L129.42222222222222,119.50873704621242L130.04444444444445,103.71736311184249L130.66666666666666,121.46481478996479L131.2888888888889,141.74008807399676L131.9111111111111,130.04538254870442L132.53333333333333,143.81031171423095L133.15555555555557,146.00638010087928L133.77777777777777,157.9066548151409L134.4,121.69262106325948L135.0222222222222,128.73910802178705L135.64444444444445,149.23734382434563L136.26666666666668,144.23716346409248L136.88888888888889,153.30694712879958L137.51111111111112,162.45183133497008L130.66666666666666,145.61475019756006L131.2888888888889,111.04928764328821L131.9111111111111,130.557313493642L132.53333333333333,139.61729840036307L133.15555555555557,114.45672180303488L133.77777777777777,115.63790907238511L134.4,122.44131167017356L135.0222222222222,144.87321411512778L135.64444444444445,154.9847652263898L136.26666666666668,157.4786371782262L136.88888888888889,155.12615522657322L137.51111111111112,157.84918975481085L138.13333333333333,102.23172451373428L138.75555555555556,107.59649320595989L139.37777777777777,133.5403412528682L140,143.58285690858327L140.62222222222223,105.07536219827587L141.24444444444444,132.95206577723394L141.86666666666667,136.69736228129912L142.48888888888888,126.44091051825508L143.1111111111111,139.56686321745943L143.73333333333332,141.8761148850251L144.35555555555555,139.76608389562594L144.9777777777778,151.43214934896798L145.6,140.17464084958223L146.22222222222223,132.70648669648554L146.84444444444446,112.1001803072649L147.46666666666664,127.36049528130584L148.08888888888887,137.58303254750405L148.7111111111111,111.55223489619242L149.33333333333334,121.38030177354076L149.95555555555555,141.70815390862762L150.57777777777778,149.00805203952308L151.20000000000002,112.27621152900407L151.82222222222222,135.4179144548721L152.44444444444443,145.60321428949624L153.06666666666666,143.6793175097622L153.6888888888889,152.6498812324323L154.3111111111111,137.74815948362618L154.93333333333334,150.99514291536275L155.55555555555557,137.65342069504808L156.17777777777778,128.71718486451002L156.8,138.95413901688391L157.42222222222222,154.47731445464171L158.04444444444442,125.0091741402363L158.66666666666666,129.70910928581827L159.2888888888889,145.42034201921734L159.91111111111113,111.32301753223965L160.53333333333333,141.41438758329713L161.15555555555557,147.58352801285972L161.77777777777777,153.46297082679416L162.39999999999998,159.62705647316653L163.0222222222222,168.15735655246152L163.64444444444445,163.16765721028378L164.26666666666668,139.87629277610705L164.88888888888889,149.18939753968237L165.51111111111112,160.5477664370894L166.13333333333335,164.5060401963654L166.75555555555553,132.61706039841658L167.37777777777777,101.52135729621355L168,132.58236592758L168.6222222222222,143.61636560842737L169.24444444444444,154.7049155828838L169.86666666666667,159.1123067158045L170.4888888888889,162.28247777084545L155.55555555555557,147.58779031908534L156.17777777777778,125.95111846253883L156.8,82.66924080446728L157.42222222222222,84.42315064514175L158.04444444444442,119.41146918797463L158.66666666666666,140.70694982872965L159.2888888888889,146.71851322029514L159.91111111111113,116.77324466310813L160.53333333333333,144.579252324284L161.15555555555557,148.1673949916032L161.77777777777777,118.47399699226041L162.39999999999998,135.71512544094716L163.0222222222222,135.34360315004866L163.64444444444445,90.96687144994664L164.26666666666668,118.20834625176906L164.88888888888889,132.2204545985761L165.51111111111112,150.79836593344606L166.13333333333335,152.86072785611736L166.75555555555553,147.19127450775758L167.37777777777777,141.9625592580211L168,137.50319893771135L168.6222222222222,139.775829651275L169.24444444444444,122.01311351936002L169.86666666666667,120.33383560120535L170.4888888888889,133.47992317505003L171.11111111111111,147.73525497122273L171.73333333333332,158.26339601174828L172.35555555555555,157.59711249397785L172.97777777777776,160.37701115391064L173.6,159.6692903733771L174.22222222222223,144.80516032176521L174.84444444444446,148.20231535747396L175.46666666666667,75.93826037204386L176.0888888888889,98.08451673286469L176.7111111111111,123.32344710738573L177.33333333333331,143.665699783386L177.95555555555555,113.75558545468252L178.57777777777778,139.01656420884242L179.20000000000002,141.56849933967527L179.82222222222222,159.19612679318183L180.44444444444446,151.15776318246208L181.06666666666666,159.97574319461526L181.68888888888887,152.8445545116419L182.3111111111111,140.04152412941727L182.93333333333334,141.1698363594236L183.55555555555554,119.12016624587363L184.17777777777778,139.91096657604166L184.8,140.54423981037576L185.42222222222225,128.2020111953103L186.04444444444442,148.89342041881906L186.66666666666666,158.55414671114482L187.2888888888889,150.351974523894L187.9111111111111,137.69986196459166L188.53333333333333,143.72479466070325L189.15555555555557,153.87919328533275L189.7777777777778,133.02200295012068L190.4,152.223373564896L191.0222222222222,143.2086836669113L191.64444444444445,122.38936848914582L192.26666666666665,144.0264589648277L192.88888888888889,155.2339891277613L193.51111111111112,164.48341285023625L194.13333333333333,162.95252283685255L194.75555555555556,155.4033071163033L195.3777777777778,141.57853562772317L196,108.12190593185234L196.6222222222222,120.96867272307888L197.24444444444444,118.16152095011937L197.86666666666667,142.8716181149985L198.48888888888888,151.10205554198114L199.11111111111111,147.98036484503734L199.73333333333335,139.2213929460395L200.35555555555555,156.0426944817355L200.97777777777776,159.3378842482662L201.6,116.22351779345304L202.22222222222223,90.73981068234006L202.84444444444443,126.05257991685323L203.46666666666667,145.39578708373546L204.0888888888889,158.67665987095694L204.71111111111114,161.11372062466148L205.33333333333331,150.19426288871202L205.95555555555555,134.04555441593615L206.57777777777778,133.57157224915807L207.2,151.64264014256338L207.82222222222222,160.86944008933725L208.44444444444446,147.3756736797308L209.06666666666666,156.62445704478765L209.6888888888889,165.5752166433639L210.3111111111111,110.44345766933706L210.93333333333334,135.19935622835777L211.55555555555554,148.93741275168054L212.17777777777778,159.49991000200538L212.8,152.62218688756636L213.42222222222222,133.67952874255965L214.04444444444445,147.87026069596718L214.66666666666669,160.22620869137396L215.28888888888886,168.20417370066482L215.9111111111111,160.2687961165579L216.53333333333333,165.700327180728L217.15555555555557,164.1514400886921L217.77777777777777,169.958225627903L218.4,170.48103641728392L219.02222222222224,167.8244271020229L219.64444444444445,151.36635431182108L220.26666666666665,148.4053249724068L220.88888888888889,149.30808330037883L221.51111111111112,116.90093542502447L222.13333333333333,127.0555250238437L222.75555555555556,127.01188718677457L223.3777777777778,148.49044098998192L224,155.37350472861849L224.6222222222222,159.81688723163037L225.24444444444444,164.7117479758688L225.86666666666667,169.4311967601262L226.48888888888888,164.12394895910518L227.11111111111111,160.62031344980124L227.73333333333335,169.23016424558995L228.35555555555555,172.967417701351L228.9777777777778,154.05166503607904L229.6,131.82661043568982L230.2222222222222,151.7896567133258L230.84444444444443,160.63815040436168L231.46666666666667,164.0633489493698L232.0888888888889,172.2085798427239L232.7111111111111,170.77266991649174L233.33333333333334,131.44194888074568L233.95555555555558,79.44274640245499L234.57777777777775,102.87989529360202L235.2,99.48624030420864L235.82222222222222,116.1818465717091L236.44444444444446,134.2723510129993L237.06666666666666,147.36523769633985L237.6888888888889,163.21493771612356L238.31111111111113,168.7206486367837L238.93333333333334,108.33547144120503L239.55555555555554,134.6397201776999L240.17777777777778,144.79885646438314L240.79999999999998,145.01672909183546L241.42222222222222,156.2971452443468L242.04444444444445,157.36628017699363L242.66666666666669,159.99964127981232L243.2888888888889,167.01926133794092L243.9111111111111,163.2285478686135L244.53333333333333,163.8667495146299L245.15555555555554,87.44376028474869L245.77777777777777,103.506591176371L246.4,84.35834094444094L247.02222222222224,112.27758978640544L247.64444444444445,114.95613009506494L248.26666666666668,140.55171595758435L248.88888888888889,149.616800500701L249.5111111111111,158.38872909688146L250.13333333333333,167.56615906009625L250.75555555555556,172.8879952474318L251.3777777777778,172.6392355626697L252,164.01740863959694L252.62222222222223,149.71178773665847L253.24444444444447,146.93592184016305L253.86666666666665,146.652950332393L254.48888888888888,155.6775926333464L255.11111111111111,162.6858167902977L255.73333333333332,168.91955950230283L256.35555555555555,158.05915655768413L256.97777777777776,98.71465727353177L257.6,130.6256692029156L258.22222222222223,141.095945357942L258.84444444444443,157.6248515103377L259.46666666666664,165.109166782527L260.0888888888889,159.5373930080759L260.7111111111111,163.96200372392101L261.3333333333333,100.58694445856908L261.9555555555556,111.88155275174351L262.5777777777778,87.18704785188334L263.2,98.63448592428905L263.8222222222222,120.84732774303714L264.44444444444446,131.97934424658797L265.06666666666666,137.67999763628677" style="fill: none;" fill="none"></path></g></g></g></g><g opacity="0.2"><g><g><g><path stroke="rgb(255, 112, 67)" stroke-width="2px" d="M34.22222222222222,-75.98922748999159L34.84444444444444,83.28896427154541L35.46666666666667,75.94992530074985L36.08888888888889,-20.631606963547817L36.711111111111116,100.76404489712283L37.333333333333336,-9.562331931157553L37.955555555555556,45.73047789118506L38.577777777777776,23.31989310817284L39.2,-70.44718098098579L39.82222222222222,22.521376319906913L40.44444444444444,17.153585005890243L41.06666666666667,-78.54732012748718L41.68888888888888,14.529734560034475L42.31111111111111,128.51204772022638L42.93333333333333,109.23671971126035L43.55555555555556,-83.57589226419273L44.17777777777778,11.872519669207644L44.800000000000004,4.0390443205833435L45.42222222222222,83.73135786977682L46.044444444444444,114.34836128354073L46.666666666666664,90.44704638557002L47.28888888888889,-26.77018529176712L47.91111111111111,118.33324250985275L48.53333333333333,-34.24789711020209L49.15555555555555,32.46471222964199L49.77777777777778,-86.21411711519414L50.4,134.97887560047886L51.022222222222226,139.2660329436714L51.644444444444446,58.30960495363582L52.266666666666666,119.98015491258016L52.888888888888886,91.30601000514898L53.51111111111111,149.18985131247476L54.13333333333333,-62.61117602478372L54.75555555555556,152.816529315981L55.37777777777778,57.55602166869422L56,97.3683524348519L56.62222222222222,67.3894934843887L57.24444444444445,154.43620048260146L57.86666666666667,156.8353624316779L58.488888888888894,127.97287565198812L59.111111111111114,136.85032963888213L59.733333333333334,101.2291450202465L60.355555555555554,151.47856472026217L60.977777777777774,134.50963938913563L61.6,94.0245588882403L62.22222222222222,55.08783200383186L62.84444444444445,71.6773941245946L63.46666666666666,43.58388407122005L64.08888888888889,171.58068477565593L64.71111111111111,96.9866034808484L65.33333333333333,66.59114453738385L65.95555555555555,47.02831044251268L66.57777777777778,150.43817368894815L67.2,64.445881458846L67.82222222222222,-14.743399842218912L68.44444444444444,95.64316006682135L69.06666666666666,28.512625986879513L69.68888888888888,107.14862456511369L70.31111111111112,127.5610531405969L70.93333333333334,91.25357159972191L71.55555555555554,103.37568489123474L72.17777777777778,139.45885857533324L72.8,-20.45604500445454L73.42222222222223,97.7310454113917L74.04444444444444,75.13744172182949L74.66666666666667,62.247448666529216L75.28888888888889,146.36208272589877L75.91111111111111,146.7038255164569L76.53333333333333,92.32642492922871L77.15555555555555,85.52132497592407L77.77777777777779,141.94596035372126L78.4,99.45860554006967L79.02222222222221,81.41785790432583L79.64444444444445,130.70766317708924L80.26666666666667,157.3936534178528L80.88888888888889,129.2176403931596L81.5111111111111,127.5251291163943L82.13333333333334,161.12266064164314L82.75555555555556,160.05480358681896L83.37777777777777,129.1282888989557L84,131.97954627058724L84.62222222222222,-53.2819353233684L85.24444444444445,97.19774179296061L85.86666666666666,168.07842210409316L86.48888888888888,155.76069581711835L87.11111111111111,122.63715400749987L87.73333333333333,148.23941420560533L88.35555555555555,163.61031389846042L88.97777777777777,121.60693835263902L89.60000000000001,127.01849427548322L90.22222222222223,156.86674275316975L90.84444444444443,17.585428581996386L91.46666666666667,109.20584291355178L92.08888888888889,144.65769967707723L92.71111111111112,98.13358869877729L93.33333333333333,142.60181207006627L93.95555555555555,149.1731600984931L94.57777777777778,28.182590124281955L95.2,111.83120992508802L95.82222222222222,102.78133500841531L96.44444444444444,44.72970039465209L97.06666666666666,165.55832153491L97.6888888888889,149.68481219424442L98.3111111111111,101.4201543696902L98.93333333333334,138.70351295715028L99.55555555555556,107.12557636336848L100.17777777777778,138.11470783027738L100.8,144.98982156677678L101.42222222222222,158.51528861102733L102.04444444444445,168.44098470393908L102.66666666666666,183.4598463431678L103.28888888888889,156.83436137844217L103.91111111111111,164.97227080301806L104.53333333333333,137.00687158649617L105.15555555555555,160.38738104565576L105.77777777777777,71.09246732971884L106.4,143.02497285807675L107.02222222222223,-28.710933793674798L107.64444444444443,47.41813376004045L108.26666666666667,129.6069901585579L108.88888888888889,140.4559016038071L109.51111111111112,145.6957768967206L110.13333333333333,108.47341362183744L110.75555555555556,159.91358614577487L111.37777777777778,124.03905413502997L112,147.58432676643133L112.62222222222222,139.2500460635532L113.24444444444444,174.65520549193025L113.86666666666667,156.5120522081852L114.4888888888889,160.90967307849363L115.1111111111111,52.72942251237956L115.73333333333333,173.9973321875388L116.35555555555555,180.18422482162714L116.97777777777779,130.70314345170152L117.6,161.59802006185055L118.22222222222223,166.4166527525945L118.84444444444445,47.708343289115206L119.46666666666667,77.95237944342874L120.08888888888889,97.1498470902443L120.71111111111111,46.53489310091191L121.33333333333334,171.73669622499835L121.95555555555555,177.77978786148807L122.57777777777777,158.42083594135264L123.2,129.1385272158818L123.82222222222222,52.92107325521381L124.44444444444444,-17.54150548306381L125.06666666666666,87.51115505803715L125.6888888888889,33.407248808579006L126.31111111111112,44.04656248471953L126.93333333333332,37.48767367276278L127.55555555555556,78.92219022729181L128.17777777777778,158.91617146879435L128.8,120.36274906721982L129.42222222222222,137.64747971973637L130.04444444444445,80.03030221028763L130.66666666666666,148.0859923071482L131.2888888888889,172.1529980000447L131.9111111111111,112.50332426076585L132.53333333333333,164.45770546252078L133.15555555555557,149.30048268085176L133.77777777777777,175.75706688653338L134.4,67.37157043543728L135.0222222222222,139.30883845957845L135.64444444444445,179.98469752818346L136.26666666666668,136.73689292371273L136.88888888888889,166.9116226258603L137.51111111111112,176.1691576442258L130.66666666666666,120.35912849144503L131.2888888888889,59.20109381188046L131.9111111111111,159.81935226917267L132.53333333333333,153.20727576044473L133.15555555555557,76.71585690704259L133.77777777777777,117.40968997641042L134.4,132.6464155668562L135.0222222222222,178.5210677825592L135.64444444444445,170.1520918932828L136.26666666666668,161.21944510598075L136.88888888888889,151.59743229909375L137.51111111111112,161.9337415471673L138.13333333333333,18.80552665211936L138.75555555555556,115.64364624429832L139.37777777777777,172.45611332323062L140,158.64663039215586L140.62222222222223,47.31412013281476L141.24444444444444,174.76712114567107L141.86666666666667,142.31530703739688L142.48888888888888,111.05623287368904L143.1111111111111,159.2557922662659L143.73333333333332,145.3399923863736L144.35555555555555,136.6010374115272L144.9777777777778,168.9312475289811L145.6,123.28837810050359L146.22222222222223,121.50425546684049L146.84444444444446,81.19072072343394L147.46666666666664,150.25096774236724L148.08888888888887,152.91683844680136L148.7111111111111,72.50603841922499L149.33333333333334,136.1224020895633L149.95555555555555,172.19993211125785L150.57777777777778,159.95789923586628L151.20000000000002,57.178450763225555L151.82222222222222,170.13046884367412L152.44444444444443,160.88116404143247L153.06666666666666,140.79347234016114L153.6888888888889,166.10572681643745L154.3111111111111,115.39557686041704L154.93333333333334,170.8656180629676L155.55555555555557,117.64083736457609L156.17777777777778,115.31283111870289L156.8,154.30957024544477L157.42222222222222,177.7620776112784L158.04444444444442,80.80696366862819L158.66666666666666,136.75901200419122L159.2888888888889,168.98719111931595L159.91111111111113,60.17703080177307L160.53333333333333,186.55144265988335L161.15555555555557,156.83723865720359L161.77777777777777,162.28213504769585L162.39999999999998,168.87318494272503L163.0222222222222,180.95280667140403L163.64444444444445,155.68310819701716L164.26666666666668,104.93924612484194L164.88888888888889,163.15905468504536L165.51111111111112,177.58531978319994L166.13333333333335,170.44345083527944L166.75555555555553,84.78359070149335L167.37777777777777,54.87780264290896L168,179.17387887462974L168.6222222222222,160.1673651296984L169.24444444444444,171.33774054456842L169.86666666666667,165.72339341518554L170.4888888888889,167.03773435340688L155.55555555555557,125.54575914144516L156.17777777777778,93.49611067771912L156.8,17.746424317359924L157.42222222222222,87.05401540615343L158.04444444444442,171.89394700222394L158.66666666666666,172.65017078986222L159.2888888888889,155.73585830764338L159.91111111111113,71.85534182732755L160.53333333333333,186.28826381604782L161.15555555555557,153.54960899258202L161.77777777777777,73.93389999324624L162.39999999999998,161.57681811397725L163.0222222222222,134.7863197137009L163.64444444444445,24.401773899793625L164.26666666666668,159.0705584545027L164.88888888888889,153.2386171187867L165.51111111111112,178.66523293575102L166.13333333333335,155.95427074012431L166.75555555555553,138.68709448521787L167.37777777777777,134.11948638341644L168,130.81415845724672L168.6222222222222,143.18477572162044L169.24444444444444,95.3690393214876L169.86666666666667,117.81491872397336L170.4888888888889,153.19905453581703L171.11111111111111,169.11825266548178L171.73333333333332,174.0556075725366L172.35555555555555,156.59768721732226L172.97777777777776,164.54685914380983L173.6,158.60770920257676L174.22222222222223,122.5089652443474L174.84444444444446,153.2980479110371L175.46666666666667,-32.45782210610129L176.0888888888889,131.3039012740959L176.7111111111111,161.1818426691673L177.33333333333331,174.17907879738644L177.95555555555555,68.89041396162726L178.57777777777778,176.90803234008226L179.20000000000002,145.39640203592452L179.82222222222222,185.6375679734417L180.44444444444446,139.10021776638249L181.06666666666666,173.202713212845L181.68888888888887,142.14777148718184L182.3111111111111,120.83697855608031L182.93333333333334,142.86230470443314L183.55555555555554,86.04566107554871L184.17777777777778,171.0971670712937L184.8,141.49414966187695L185.42222222222225,109.68866827271201L186.04444444444442,179.93053425408223L186.66666666666666,173.04523614963347L187.2888888888889,138.0487162430178L187.9111111111111,118.7216931256381L188.53333333333333,152.7621937048706L189.15555555555557,169.11079122227702L189.7777777777778,101.73621744730256L190.4,181.02542948705906L191.0222222222222,129.68664881993425L191.64444444444445,91.16039572249761L192.26666666666665,176.48209467835048L192.88888888888889,172.04528437216175L193.51111111111112,178.35754843394866L194.13333333333333,160.65618781677702L194.75555555555556,144.07948353547943L195.3777777777778,120.84137839485298L196,57.93696138804608L196.6222222222222,140.23882290991872L197.24444444444444,113.95079329068011L197.86666666666667,179.93676386231726L198.48888888888888,163.4477116824551L199.11111111111111,143.2978287996216L199.73333333333335,126.08293509754269L200.35555555555555,181.27464678527957L200.97777777777776,164.28066889806226L201.6,51.55196811123327L202.22222222222223,52.51425001567059L202.84444444444443,179.02173376862297L203.46666666666667,174.4105978340588L204.0888888888889,178.59796905178914L204.71111111111114,164.7693117552183L205.33333333333331,133.81507628478786L205.95555555555555,109.8224917067723L206.57777777777778,132.86059899899095L207.2,178.74924198267132L207.82222222222222,174.70964000949806L208.44444444444446,127.13502406532115L209.06666666666666,170.49763209237292L209.6888888888889,179.00135604122823L210.3111111111111,27.745819208296847L210.93333333333334,172.33320406688884L211.55555555555554,169.54449753666466L212.17777777777778,175.34365587749264L212.8,142.30560221590778L213.42222222222222,105.26554152504966L214.04444444444445,169.1563586260785L214.66666666666669,178.76013068448415L215.28888888888886,180.1711212146011L215.9111111111111,148.36572974039748L216.53333333333333,173.84762377698314L217.15555555555557,161.8281094506383L217.77777777777777,178.66840393671936L218.4,171.26525260135531L219.02222222222224,163.83951312913135L219.64444444444445,126.67924512651834L220.26666666666665,143.96378096328542L220.88888888888889,150.6622207923369L221.51111111111112,68.29021361199291L222.13333333333333,142.2874094220725L222.75555555555556,126.94643043117091L223.3777777777778,180.70827169479296L224,165.69810033657333L224.6222222222222,166.48196098614824L225.24444444444444,172.05403909222647L225.86666666666667,176.51036993651226L226.48888888888888,156.1630772575736L227.11111111111111,155.36486018584534L227.73333333333335,182.14494043927303L228.35555555555555,178.57329788499257L228.9777777777778,125.67803603817116L229.6,98.48902853510596L230.2222222222222,181.73422612977976L230.84444444444443,173.91089094091546L231.46666666666667,169.20114676688206L232.0888888888889,184.42642618275502L232.7111111111111,168.6188050271435L233.33333333333334,72.44586732712658L233.95555555555558,1.4439426850188881L234.57777777777775,138.03561863032255L235.2,94.39575782011858L235.82222222222222,141.2252559729598L236.44444444444446,161.40810767493466L237.06666666666666,167.00456772135064L237.6888888888889,186.98948774579912L238.31111111111113,176.9792150177739L238.93333333333334,17.757705647837035L239.55555555555554,174.0960932824422L240.17777777777778,160.03756089440802L240.79999999999998,145.343538033014L241.42222222222222,173.2177694731138L242.04444444444445,158.96998257596385L242.66666666666669,163.94968293404037L243.2888888888889,177.54869142513385L243.9111111111111,157.5424776646224L244.53333333333333,164.8240519836545L245.15555555555554,-27.190723560073156L245.77777777777777,127.60083751380444L246.4,55.63596559654582L247.02222222222224,154.15646304935217L247.64444444444445,118.97394055805422L248.26666666666668,178.94509475136346L248.88888888888889,163.214427315376L249.5111111111111,171.5466219911521L250.13333333333333,181.33230400491843L250.75555555555556,180.87074952843517L251.3777777777778,172.26609603552654L252,151.08466825498775L252.62222222222223,128.2533563822508L253.24444444444447,142.77212299541995L253.86666666666665,146.22849307073787L254.48888888888888,169.21455608477646L255.11111111111111,173.19815302572468L255.73333333333332,178.27017357031053L256.35555555555555,141.7685521407561L256.97777777777776,9.697908347303207L257.6,178.49218709699133L258.22222222222223,156.80135959048164L258.84444444444443,182.4182107389312L259.46666666666664,176.33563969081098L260.0888888888889,151.17973234639928L260.7111111111111,170.59891979768872L261.3333333333333,5.524355560541153L261.9555555555556,128.82346519150516L262.5777777777778,50.14529050209304L263.2,115.80564303289762L263.8222222222222,154.16659047115934L264.44444444444446,148.67736900191414L265.06666666666666,146.230977720835" style="fill: none;" fill="none"></path></g></g></g></g></g></g><g transform="translate(50, 177)" clip-path="url(#clip_1)"><clipPath id="clip_1"><rect width="280" height="22"></rect></clipPath><g><g><line x1="0" y1="0" x2="0" y2="5" style="visibility: inherit;" fill="rgb(0, 0, 0)" stroke="rgb(204, 204, 204)" stroke-width="1px"></line><line x1="31.11111111111111" y1="0" x2="31.11111111111111" y2="5" style="visibility: inherit;" fill="rgb(0, 0, 0)" stroke="rgb(204, 204, 204)" stroke-width="1px"></line><line x1="62.22222222222222" y1="0" x2="62.22222222222222" y2="5" style="visibility: inherit;" fill="rgb(0, 0, 0)" stroke="rgb(204, 204, 204)" stroke-width="1px"></line><line x1="93.33333333333333" y1="0" x2="93.33333333333333" y2="5" style="visibility: inherit;" fill="rgb(0, 0, 0)" stroke="rgb(204, 204, 204)" stroke-width="1px"></line><line x1="124.44444444444444" y1="0" x2="124.44444444444444" y2="5" style="visibility: inherit;" fill="rgb(0, 0, 0)" stroke="rgb(204, 204, 204)" stroke-width="1px"></line><line x1="155.55555555555557" y1="0" x2="155.55555555555557" y2="5" style="visibility: inherit;" fill="rgb(0, 0, 0)" stroke="rgb(204, 204, 204)" stroke-width="1px"></line><line x1="186.66666666666666" y1="0" x2="186.66666666666666" y2="5" style="visibility: inherit;" fill="rgb(0, 0, 0)" stroke="rgb(204, 204, 204)" stroke-width="1px"></line><line x1="217.77777777777777" y1="0" x2="217.77777777777777" y2="5" style="visibility: inherit;" fill="rgb(0, 0, 0)" stroke="rgb(204, 204, 204)" stroke-width="1px"></line><line x1="248.88888888888889" y1="0" x2="248.88888888888889" y2="5" style="visibility: inherit;" fill="rgb(0, 0, 0)" stroke="rgb(204, 204, 204)" stroke-width="1px"></line><line x1="280" y1="0" x2="280" y2="5" style="visibility: inherit;" fill="rgb(0, 0, 0)" stroke="rgb(204, 204, 204)" stroke-width="1px"></line></g><g transform="translate(0, 8)"><text x="0" y="0" dx="0em" dy="0.95em" style="text-anchor: middle; visibility: hidden; font-family: Roboto, sans-serif; font-size: 12px; font-weight: 200;" fill="rgb(33, 33, 33)" stroke="none" stroke-width="1px">-5k</text><text x="31.11111111111111" y="0" dx="0em" dy="0.95em" style="text-anchor: middle; visibility: inherit; font-family: Roboto, sans-serif; font-size: 12px; font-weight: 200;" fill="rgb(33, 33, 33)" stroke="none" stroke-width="1px">0</text><text x="62.22222222222222" y="0" dx="0em" dy="0.95em" style="text-anchor: middle; visibility: inherit; font-family: Roboto, sans-serif; font-size: 12px; font-weight: 200;" fill="rgb(33, 33, 33)" stroke="none" stroke-width="1px">5k</text><text x="93.33333333333333" y="0" dx="0em" dy="0.95em" style="text-anchor: middle; visibility: inherit; font-family: Roboto, sans-serif; font-size: 12px; font-weight: 200;" fill="rgb(33, 33, 33)" stroke="none" stroke-width="1px">10k</text><text x="124.44444444444444" y="0" dx="0em" dy="0.95em" style="text-anchor: middle; visibility: inherit; font-family: Roboto, sans-serif; font-size: 12px; font-weight: 200;" fill="rgb(33, 33, 33)" stroke="none" stroke-width="1px">15k</text><text x="155.55555555555557" y="0" dx="0em" dy="0.95em" style="text-anchor: middle; visibility: inherit; font-family: Roboto, sans-serif; font-size: 12px; font-weight: 200;" fill="rgb(33, 33, 33)" stroke="none" stroke-width="1px">20k</text><text x="186.66666666666666" y="0" dx="0em" dy="0.95em" style="text-anchor: middle; visibility: inherit; font-family: Roboto, sans-serif; font-size: 12px; font-weight: 200;" fill="rgb(33, 33, 33)" stroke="none" stroke-width="1px">25k</text><text x="217.77777777777777" y="0" dx="0em" dy="0.95em" style="text-anchor: middle; visibility: inherit; font-family: Roboto, sans-serif; font-size: 12px; font-weight: 200;" fill="rgb(33, 33, 33)" stroke="none" stroke-width="1px">30k</text><text x="248.88888888888889" y="0" dx="0em" dy="0.95em" style="text-anchor: middle; visibility: inherit; font-family: Roboto, sans-serif; font-size: 12px; font-weight: 200;" fill="rgb(33, 33, 33)" stroke="none" stroke-width="1px">35k</text><text x="280" y="0" dx="0em" dy="0.95em" style="text-anchor: middle; visibility: hidden; font-family: Roboto, sans-serif; font-size: 12px; font-weight: 200;" fill="rgb(33, 33, 33)" stroke="none" stroke-width="1px">40k</text></g><line x1="0" y1="0" x2="280" y2="0" fill="rgb(0, 0, 0)" stroke="rgb(204, 204, 204)" stroke-width="1px"></line></g></g></g></g></svg>